<svg width="100" height="101" viewBox="0 0 100 101" fill="none" xmlns="http://www.w3.org/2000/svg">
<path d="M100 50.4715C100.009 42.2426 97.9667 34.1408 94.0572 26.8964L94.0822 26.8864L93.0572 25.1297C93.0322 25.0864 93.0006 25.0431 92.9756 25.0016C92.4756 24.1697 91.9656 23.3479 91.4223 22.5494C91.2557 22.3015 91.074 22.0603 90.9007 21.8157C90.4785 21.2179 90.0452 20.6302 89.6008 20.0523C89.5058 19.9325 89.4342 19.8061 89.3308 19.6863C89.1858 19.5033 89.0325 19.3286 88.8859 19.1473C88.6959 18.9111 88.5059 18.6782 88.3109 18.4452C87.9259 17.9861 87.5343 17.5369 87.1443 17.0927C87.056 16.9946 86.966 16.8948 86.876 16.7983C86.405 16.2825 85.9244 15.7791 85.4344 15.2877L85.2544 15.108C84.7855 14.6445 84.3095 14.1914 83.8262 13.7489C83.6595 13.5941 83.4929 13.4411 83.3162 13.288C83.1396 13.135 82.9446 12.9453 82.7529 12.789C82.5863 12.6492 82.4413 12.5278 82.283 12.3947L82.3363 12.3664L80.5014 10.969C79.4459 10.1548 78.3582 9.38353 77.2383 8.65487C77.13 8.58333 77.02 8.51512 76.905 8.44359C74.9043 7.16115 72.8148 6.02261 70.6521 5.03651L70.2288 4.84519C57.355 -0.86018 42.6635 -0.86018 29.7898 4.84519L29.3532 5.04316C27.205 6.01991 25.1288 7.14743 23.1402 8.41697L22.7486 8.66818C21.6376 9.3958 20.5544 10.1644 19.4988 10.9739L17.6723 12.3597L17.7256 12.388C17.5706 12.5194 17.4206 12.6392 17.2623 12.7756C17.0756 12.942 16.8956 13.1084 16.7107 13.2747C16.5257 13.4411 16.3507 13.5958 16.1724 13.7605C15.6934 14.1974 15.2224 14.6455 14.7591 15.1047L14.5708 15.2927C14.0785 15.7874 13.5959 16.2925 13.1226 16.8082L12.8776 17.0794C12.4666 17.5352 12.0637 17.9988 11.6693 18.4702C11.4927 18.6821 11.3187 18.8938 11.1477 19.1057C10.991 19.2987 10.8277 19.485 10.6744 19.6796C10.5727 19.8094 10.4861 19.9442 10.3844 20.0739C9.94778 20.6396 9.5228 21.2162 9.1095 21.8041C8.93284 22.0536 8.74786 22.3032 8.57787 22.551C8.03457 23.3512 7.52127 24.1714 7.02464 25.0032C6.99964 25.0448 6.96797 25.0881 6.94298 25.1313L5.91804 26.8881L5.94304 26.8981C-1.98101 41.6196 -1.98101 59.3267 5.94304 74.0483L5.91804 74.0583L6.94298 75.815C6.96797 75.8583 6.99964 75.9015 7.02464 75.9431C7.5246 76.7749 8.03457 77.5968 8.57787 78.3953C8.74452 78.6432 8.92618 78.8844 9.0995 79.1289C9.52176 79.7268 9.95507 80.3145 10.3994 80.8924C10.4944 81.0122 10.5744 81.1386 10.6694 81.2584C10.8144 81.4414 10.9677 81.6161 11.1144 81.7974C11.3044 82.0336 11.4943 82.2665 11.6893 82.4994C12.0743 82.9586 12.4659 83.4078 12.8642 83.8519C12.9526 83.9501 13.0426 84.0499 13.1326 84.1464C13.6048 84.6621 14.0852 85.1656 14.5741 85.657L14.7541 85.8366C15.223 86.3014 15.6991 86.7543 16.1824 87.1958C16.349 87.3505 16.5157 87.5036 16.6923 87.6566C16.869 87.8097 17.064 87.9993 17.2556 88.1557C17.4223 88.2955 17.5673 88.4169 17.7256 88.55L17.6723 88.5783L19.4921 89.9691C20.5477 90.7832 21.6353 91.5545 22.7553 92.2831C22.8636 92.3547 22.9736 92.4229 23.0886 92.4928C25.0926 93.7769 27.186 94.916 29.3532 95.9015L29.7765 96.0928C36.1429 98.922 43.0345 100.383 50.0034 100.38C50.3601 100.38 50.7134 100.37 51.0567 100.353C57.6648 100.224 64.1806 98.7785 70.2221 96.1028L70.6587 95.9048C72.8069 94.9281 74.883 93.8006 76.8717 92.531L77.2633 92.2798C78.3743 91.5535 79.4575 90.7849 80.5131 89.9741L82.333 88.5833L82.2796 88.555C82.4346 88.4236 82.5846 88.3038 82.7429 88.1674C82.9296 88.001 83.1096 87.8346 83.2946 87.6683C83.4795 87.5019 83.6545 87.3472 83.8329 87.1825C84.3118 86.7456 84.7828 86.2975 85.2461 85.8383L85.4344 85.6503C85.9267 85.1569 86.4094 84.6515 86.8827 84.1348L87.1276 83.8636C87.5387 83.4078 87.9415 82.9442 88.3359 82.4728C88.5126 82.2609 88.6865 82.0492 88.8575 81.8373C89.0142 81.6443 89.1775 81.458 89.3308 81.2634C89.4325 81.1336 89.5191 80.9989 89.6208 80.8691C90.0574 80.3035 90.4824 79.7268 90.8957 79.1389C91.0724 78.8894 91.2574 78.6398 91.4274 78.392C91.9706 77.5918 92.484 76.7716 92.9806 75.9398C93.0056 75.8982 93.0372 75.8549 93.0622 75.8117L94.0872 74.0549L94.0622 74.0449C97.9698 66.8003 100.01 58.6993 100 50.4715ZM90.8407 27.9628C94.3917 34.3573 96.3741 41.5009 96.6253 48.8079H84.9711C84.8455 42.5558 83.8545 36.3512 82.0263 30.37C85.0894 29.6713 88.0409 28.8645 90.8407 27.9628ZM79.0215 14.035C79.1882 14.1631 79.3548 14.2862 79.5065 14.416C79.6581 14.5457 79.8131 14.6722 79.9665 14.8003C80.3198 15.0981 80.6697 15.3992 81.013 15.7069C81.218 15.8833 81.4164 16.0629 81.6147 16.2443C82.0313 16.6302 82.448 17.0195 82.8479 17.4188C82.9363 17.5053 83.0229 17.5935 83.1112 17.6816C83.5379 18.1109 83.9568 18.549 84.3678 18.9959L84.7095 19.3752C85.0428 19.7528 85.3761 20.1388 85.7094 20.5281C85.9244 20.7876 86.1394 21.0471 86.351 21.3117C86.591 21.6078 86.8277 21.9089 87.061 22.2117C87.2387 22.4423 87.4143 22.6742 87.5876 22.9071C87.8943 23.323 88.1936 23.7432 88.4859 24.1681C88.5875 24.3161 88.6892 24.4609 88.7875 24.6089C88.8859 24.757 88.9742 24.9001 89.0692 25.0448C86.4877 25.8517 83.7545 26.557 80.9431 27.1892C79.469 23.1676 77.5156 19.3376 75.1251 15.7818C76.4483 15.2444 77.7483 14.6655 79.0215 14.035ZM69.6821 68.3687C73.7737 63.9042 76.2094 58.1747 76.5833 52.1351H81.6397C81.5153 58.1526 80.5522 64.1236 78.7782 69.8759C75.8417 69.282 72.8053 68.7713 69.6821 68.3687ZM77.6899 73.0667C76.2488 76.9259 74.3279 80.589 71.972 83.9701C65.4268 81.7599 58.5785 80.5732 51.67 80.4515V77.0195C51.945 77.0012 52.2183 76.9895 52.4916 76.9629C52.8033 76.9346 53.1082 76.8864 53.4165 76.8465C53.9165 76.7816 54.4165 76.7101 54.9165 76.6186C55.2798 76.5503 55.6381 76.4705 55.9964 76.3873C56.4307 76.2875 56.863 76.1767 57.293 76.0546C57.6529 75.9514 58.0112 75.8483 58.3662 75.7219C58.8079 75.5771 59.2395 75.4124 59.6728 75.2444C59.9861 75.1213 60.3044 75.0065 60.6127 74.8734C61.1894 74.6222 61.7543 74.3444 62.3143 74.0533C62.4593 73.9784 62.6109 73.9135 62.7543 73.8353C63.4725 73.4444 64.1742 73.0168 64.8558 72.5593C64.9674 72.4845 65.0708 72.4013 65.1891 72.3248C65.6491 72.0053 66.109 71.6859 66.549 71.3382C70.3938 71.7541 74.1068 72.353 77.6899 73.0667ZM76.5833 48.8079C76.2094 42.7683 73.7737 37.0389 69.6821 32.5743C72.8069 32.1717 75.8484 31.661 78.7782 31.0671C80.5522 36.8195 81.5153 42.7904 81.6397 48.8079H76.5833ZM68.3822 7.69164C68.8055 7.87297 69.2272 8.05929 69.6471 8.25394C70.2654 8.54008 70.8754 8.84618 71.4803 9.16061C71.8853 9.37022 72.2886 9.57984 72.6869 9.8011C73.2919 10.1338 73.8868 10.5015 74.4785 10.8675C74.8601 11.1037 75.2451 11.3333 75.6201 11.5812C75.7401 11.6594 75.8517 11.7475 75.97 11.8274C75.0268 12.2566 74.0552 12.6309 73.0869 13.0069C71.466 10.9592 69.6432 9.0793 67.6456 7.39551C67.8906 7.49533 68.1389 7.58683 68.3822 7.69164ZM51.67 3.95349H51.7367C58.5612 4.50748 64.8158 8.25061 69.8238 14.1831C63.9398 16.0014 57.8283 16.9821 51.67 17.0961V3.95349ZM51.6567 20.4915C58.5652 20.3698 65.4133 19.1831 71.9586 16.9729C74.3095 20.352 76.2261 24.0123 77.6633 27.868C74.0968 28.58 70.3838 29.1772 66.5357 29.5965C66.0957 29.2488 65.6357 28.931 65.1758 28.6099C65.0658 28.5334 64.9625 28.4436 64.8425 28.3754C64.1608 27.9179 63.4592 27.4903 62.7409 27.0994C62.5959 27.0212 62.4443 26.9563 62.2993 26.8814C61.741 26.5903 61.176 26.3125 60.5994 26.0629C60.2911 25.9282 59.9728 25.8134 59.6578 25.6903C59.2245 25.5239 58.7929 25.3576 58.3529 25.2128C57.9996 25.0947 57.6396 24.9916 57.2796 24.8801C56.8497 24.758 56.4174 24.6472 55.983 24.5474C55.6247 24.4642 55.2664 24.381 54.9031 24.3161C54.4031 24.2246 53.9032 24.1498 53.4032 24.0882C53.0949 24.0483 52.7899 24.0001 52.4783 23.9718C52.205 23.9452 51.9316 23.9335 51.6567 23.9152V20.4915ZM48.3236 3.9668H48.3369V17.0961C42.1785 16.9821 36.0671 16.0014 30.1831 14.1831C35.1828 8.26059 41.424 4.52078 48.2369 3.9668H48.3236ZM18.3672 48.8079C18.4916 42.7904 19.4546 36.8195 21.2287 31.0671C24.1652 31.661 27.2016 32.1717 30.3248 32.5727C26.2334 37.038 23.7977 42.7679 23.4235 48.8079H18.3672ZM30.3248 68.3687C27.2 68.7713 24.1585 69.282 21.2287 69.8759C19.4546 64.1236 18.4916 58.1526 18.3672 52.1351H23.4235C23.7975 58.1747 26.2331 63.904 30.3248 68.3687ZM22.317 27.8763C23.7581 24.0171 25.679 20.354 28.0349 16.9729C34.5801 19.1831 41.4284 20.3698 48.3369 20.4915V23.9235C48.0619 23.9418 47.7886 23.9535 47.5153 23.9801C47.2036 24.0084 46.8987 24.0566 46.5903 24.0965C46.0904 24.1614 45.5904 24.233 45.0904 24.3245C44.7271 24.3927 44.3688 24.4725 44.0105 24.5557C43.5762 24.6555 43.1439 24.7664 42.7139 24.8884C42.354 24.9916 41.9956 25.0947 41.6407 25.2211C41.2007 25.3659 40.7674 25.5306 40.3358 25.6986C40.0208 25.8217 39.7025 25.9365 39.3941 26.0696C38.8175 26.3208 38.2526 26.5986 37.6943 26.8898C37.5493 26.9646 37.396 27.0295 37.2526 27.1077C36.5343 27.4986 35.8327 27.9262 35.1511 28.3837C35.0394 28.4585 34.9361 28.5417 34.8178 28.6183C34.3578 28.9377 33.8979 29.2571 33.4579 29.6048C29.6131 29.1889 25.9 28.59 22.317 27.8763ZM24.3735 11.5878C24.7751 11.3216 25.1868 11.0771 25.5951 10.8242C26.1567 10.4782 26.72 10.1355 27.2966 9.81441C27.7199 9.57818 28.1499 9.35525 28.5799 9.13233C29.1598 8.83121 29.7465 8.54008 30.3348 8.26558C30.7747 8.06096 31.2164 7.86631 31.668 7.67666C31.898 7.57851 32.133 7.492 32.3663 7.39718C30.366 9.07951 28.5409 10.959 26.9183 13.0069C25.95 12.6309 24.9784 12.2566 24.0335 11.8274C24.1485 11.7509 24.2585 11.6643 24.3735 11.5878ZM11.2127 24.6139C11.316 24.4592 11.4243 24.3045 11.531 24.1498C11.8177 23.7316 12.1116 23.319 12.4126 22.9121C12.5803 22.6848 12.7515 22.4585 12.9259 22.2333C13.1759 21.9072 13.4298 21.5851 13.6875 21.2667C13.8808 21.0255 14.0775 20.7893 14.2742 20.553C14.6141 20.1482 14.9601 19.7495 15.3124 19.3569L15.6307 19.0059C16.0417 18.5623 16.4623 18.1219 16.8923 17.685L17.1673 17.4121C17.5639 17.0179 17.9706 16.6336 18.3822 16.2476C18.5905 16.058 18.7989 15.8683 19.0088 15.6836C19.3421 15.3842 19.6838 15.0914 20.0271 14.8019C20.1938 14.6705 20.3454 14.5324 20.5021 14.406C20.6587 14.2796 20.8221 14.1548 20.982 14.0283C22.2553 14.6589 23.5552 15.2378 24.8768 15.7751C22.4876 19.3315 20.5348 23.1614 19.0605 27.1826C16.2507 26.5504 13.5175 25.8517 10.9344 25.0382C11.0294 24.9017 11.1177 24.7553 11.2127 24.6139ZM9.17283 27.9628C11.9676 28.8661 14.9191 29.6763 17.9806 30.37C16.1524 36.3512 15.1614 42.5558 15.0358 48.8079H3.38155C3.63486 41.5003 5.61952 34.3567 9.17283 27.9628ZM9.16616 72.9802C5.61515 66.5857 3.63278 59.4421 3.38155 52.1351H15.0358C15.1614 58.3872 16.1524 64.5919 17.9806 70.573C14.9174 71.2717 11.966 72.0785 9.16616 72.9802ZM20.9854 86.908C20.8187 86.7799 20.6521 86.6568 20.5004 86.527C20.3488 86.3973 20.1938 86.2709 20.0404 86.1428C19.6871 85.845 19.3372 85.5439 18.9938 85.2361C18.7889 85.0597 18.5905 84.8801 18.3922 84.6987C17.9756 84.3128 17.5589 83.9235 17.159 83.5242L16.8956 83.2614C16.469 82.8322 16.0501 82.394 15.6391 81.9471L15.2974 81.5678C14.9558 81.1902 14.6225 80.8042 14.2975 80.4149C14.0825 80.1554 13.8675 79.8959 13.6559 79.6314C13.4159 79.3352 13.1792 79.0341 12.9459 78.7313C12.767 78.4995 12.5916 78.2678 12.4193 78.036C12.1126 77.62 11.8133 77.1998 11.521 76.7749C11.4193 76.6269 11.3177 76.4821 11.2194 76.3341C11.121 76.186 11.0327 76.0429 10.9377 75.8982C13.5192 75.0914 16.2524 74.386 19.0638 73.7538C20.5379 77.7754 22.4913 81.6054 24.8818 85.1612C23.5585 85.6986 22.2586 86.2775 20.9854 86.908ZM31.6263 93.253C31.2014 93.07 30.7781 92.8837 30.3581 92.6891C29.7415 92.4013 29.1315 92.0968 28.5249 91.7841C28.1199 91.5728 27.7149 91.3632 27.3166 91.1403C26.7117 90.8075 26.1167 90.4415 25.5251 90.0755C25.1434 89.8393 24.7585 89.6097 24.3835 89.3618C24.2635 89.2837 24.1518 89.1955 24.0335 89.1156C24.9768 88.6864 25.9484 88.3121 26.9166 87.9361C28.5376 89.9838 30.3604 91.8637 32.358 93.5475C32.1163 93.4477 31.868 93.3562 31.6263 93.253ZM48.3369 96.9895H48.2702C41.4457 96.4355 35.1911 92.6924 30.1831 86.76C36.0671 84.9416 42.1785 83.9609 48.3369 83.847V96.9895ZM48.3502 80.4598C41.4417 80.5815 34.5934 81.7683 28.0482 83.9784C25.6949 80.5971 23.7766 76.934 22.3386 73.0751C25.91 72.363 29.6231 71.7658 33.4712 71.3466C33.9112 71.6943 34.3712 72.012 34.8311 72.3331C34.9411 72.4096 35.0444 72.4994 35.1644 72.5676C35.8461 73.0251 36.5477 73.4527 37.266 73.8436C37.4093 73.9218 37.5609 73.9867 37.7059 74.0616C38.2659 74.3527 38.8309 74.6305 39.4091 74.8817C39.7158 75.0148 40.0324 75.1296 40.3458 75.2511C40.7791 75.4174 41.2124 75.5838 41.654 75.7302C42.009 75.8483 42.3673 75.9514 42.7273 76.0629C43.1572 76.1837 43.5895 76.2948 44.0238 76.3956C44.3822 76.4788 44.7405 76.562 45.1038 76.6269C45.6037 76.7184 46.1037 76.7932 46.6037 76.8548C46.912 76.8947 47.217 76.943 47.5286 76.9712C47.8019 76.9979 48.0752 77.0095 48.3502 77.0278V80.4598ZM50.0068 73.7588C49.2618 73.7588 48.5269 73.7155 47.7986 73.6473C47.5119 73.619 47.227 73.5725 46.9403 73.5342C46.5087 73.4776 46.0787 73.4177 45.6537 73.3379C45.3204 73.273 44.9871 73.1932 44.6538 73.115C44.2855 73.0285 43.9188 72.937 43.5572 72.8322C43.1956 72.7274 42.8906 72.6292 42.5573 72.5177C42.1983 72.3957 41.8446 72.2659 41.4957 72.1285C41.1857 72.007 40.8757 71.8822 40.5707 71.7475C40.1941 71.5811 39.8258 71.3998 39.4608 71.2135C39.1975 71.0804 38.9325 70.949 38.6742 70.8059C38.2626 70.5763 37.8626 70.3268 37.4659 70.0722C37.266 69.9441 37.0593 69.8243 36.861 69.6896C36.4177 69.3851 35.991 69.0574 35.5711 68.7247C35.4261 68.6099 35.2744 68.5068 35.1311 68.392C25.2163 60.2076 23.8254 45.5497 32.0242 35.6524C32.9596 34.5233 33.9999 33.4847 35.1311 32.551C35.2744 32.4329 35.4261 32.3298 35.5711 32.2183C35.991 31.8856 36.4177 31.5529 36.861 31.2534C37.0593 31.1187 37.266 30.9989 37.4659 30.8708C37.8626 30.6163 38.2626 30.3717 38.6742 30.1371C38.9325 29.9941 39.1975 29.8626 39.4608 29.7295C39.8258 29.5432 40.1941 29.3619 40.5707 29.1955C40.8757 29.0608 41.1857 28.936 41.4957 28.8146C41.8457 28.6759 42.1996 28.5461 42.5573 28.4253C42.8906 28.3138 43.2239 28.2073 43.5572 28.1109C43.8905 28.0144 44.2855 27.9145 44.6538 27.828C44.9871 27.7498 45.3204 27.67 45.6537 27.6051C46.0787 27.5253 46.5087 27.4654 46.9403 27.4088C47.227 27.3705 47.5119 27.324 47.7986 27.2957C48.5235 27.2241 49.2585 27.1809 50.0034 27.1809C50.7484 27.1809 51.4833 27.2241 52.2116 27.2924C52.4983 27.3206 52.7833 27.3672 53.0699 27.4055C53.5015 27.462 53.9315 27.5219 54.3565 27.6018C54.6898 27.6667 55.0231 27.7465 55.3564 27.8247C55.7247 27.9112 56.0914 28.0027 56.453 28.1075C56.7863 28.204 57.1196 28.3105 57.4529 28.4219C57.8119 28.544 58.1656 28.6738 58.5145 28.8112C58.8245 28.9327 59.1345 29.0574 59.4395 29.1922C59.8161 29.3586 60.1844 29.5399 60.5494 29.7262C60.8127 29.8593 61.0777 29.9907 61.336 30.1338C61.7477 30.3634 62.1476 30.6129 62.5443 30.8675C62.7443 30.9956 62.9509 31.1153 63.1492 31.2501C63.5925 31.5545 64.0192 31.8823 64.4391 32.215C64.5841 32.3298 64.7358 32.4329 64.8791 32.5477C74.7939 40.7321 76.1848 55.3902 67.986 65.2873C67.0506 66.4164 66.0103 67.4547 64.8791 68.3886L64.8825 68.392C64.7391 68.5101 64.5875 68.6132 64.4425 68.7247C64.0225 69.0574 63.5959 69.3901 63.1526 69.6896C62.9543 69.8243 62.7476 69.9441 62.5476 70.0722C62.151 70.3268 61.751 70.5713 61.3394 70.8059C61.081 70.949 60.8161 71.0804 60.5527 71.2135C60.1878 71.3998 59.8195 71.5811 59.4428 71.7475C59.1378 71.8822 58.8279 72.007 58.5179 72.1285C58.1679 72.2659 57.814 72.3957 57.4563 72.5177C57.123 72.6292 56.7897 72.7357 56.4563 72.8322C56.0947 72.937 55.7281 73.0285 55.3598 73.115C55.0264 73.1932 54.6931 73.273 54.3598 73.3379C53.9348 73.4177 53.5049 73.4776 53.0732 73.5342C52.7866 73.5725 52.5016 73.619 52.215 73.6473C51.4867 73.7155 50.7517 73.7588 50.0068 73.7588ZM51.6833 96.9762H51.67V83.847C57.8283 83.9609 63.9398 84.9416 69.8238 86.76C64.8241 92.6824 58.5829 96.4222 51.77 96.9762H51.6833ZM75.6384 89.3552C75.2368 89.6197 74.8251 89.8659 74.4152 90.1188C73.8535 90.4648 73.2902 90.8075 72.7153 91.1286C72.2936 91.3648 71.8637 91.5878 71.4337 91.8107C70.8521 92.1101 70.2671 92.4029 69.6755 92.6774C69.2372 92.8821 68.7955 93.0767 68.3422 93.2663C68.1122 93.3645 67.8773 93.451 67.6439 93.5458C69.6419 91.8631 71.4647 89.9836 73.0852 87.9361C74.0535 88.3121 75.0251 88.6864 75.97 89.1156C75.8584 89.1922 75.7484 89.2787 75.6334 89.3552H75.6384ZM88.7942 76.3291C88.6909 76.4838 88.5825 76.6385 88.4759 76.7932C88.1892 77.2102 87.8953 77.6227 87.5943 78.031C87.4266 78.2595 87.2553 78.4857 87.081 78.7097C86.831 79.0358 86.577 79.3579 86.3194 79.6763C86.126 79.9175 85.9294 80.1537 85.7327 80.39C85.3928 80.7936 85.0467 81.1925 84.6945 81.5861L84.3762 81.9371C83.9651 82.3807 83.5446 82.8211 83.1146 83.258L82.8396 83.5309C82.443 83.9251 82.0363 84.3094 81.6247 84.6954C81.4164 84.8851 81.208 85.0747 80.998 85.2594C80.6647 85.5588 80.3231 85.8516 79.9798 86.1411C79.8215 86.2725 79.6615 86.4106 79.5048 86.537C79.3482 86.6635 79.1848 86.7882 79.0248 86.9147C77.7516 86.2842 76.4517 85.7052 75.1301 85.1679C77.5193 81.6121 79.4719 77.7827 80.9464 73.7621C83.7562 74.3943 86.4893 75.093 89.0725 75.9065C88.9775 76.0413 88.8892 76.1877 88.7942 76.3291ZM90.8341 72.9802C88.0393 72.0769 85.0878 71.2667 82.0263 70.573H82.0313C83.8579 64.5917 84.847 58.387 84.9711 52.1351H96.6253C96.372 59.4426 94.3874 66.5861 90.8341 72.9802Z" fill="white"/>
<path d="M61.0002 43.6589C61.0002 40.6232 58.5377 38.1623 55.5001 38.1623H53.6668V34.4978H50.0001V38.1623H48.1814L48.2107 34.5125L44.544 34.4832L44.5147 38.1623H39V41.8267H42.6667V60.1489H39V63.8133H44.5147L44.544 67.4924L48.2107 67.4631L48.1814 63.8133H50.0001V67.4778H53.6668V63.8133H55.5001C58.5377 63.8133 61.0002 61.3524 61.0002 58.3167V54.6522C60.9953 53.2957 60.4857 51.9893 59.5701 50.9878C60.4857 49.9863 60.9953 48.6799 61.0002 47.3234V43.6589ZM57.3335 58.3167C57.3335 59.3285 56.5126 60.1489 55.5001 60.1489H46.3334V52.82H55.5001C56.5126 52.82 57.3335 53.6404 57.3335 54.6522V58.3167ZM57.3335 47.3234C57.3335 48.3352 56.5126 49.1556 55.5001 49.1556H46.3334V41.8267H55.5001C56.5126 41.8267 57.3335 42.6471 57.3335 43.6589V47.3234Z" fill="white"/>
</svg>
