<svg width="44" height="47" viewBox="0 0 44 47" fill="none" xmlns="http://www.w3.org/2000/svg">
<path d="M43.4959 11.8794L22.4959 0.129229C22.188 -0.0430763 21.8119 -0.0430763 21.504 0.129229L0.503999 11.8794C0.192 12.0537 0 12.3788 0 12.7294V34.2714C0 34.6219 0.192 34.947 0.503999 35.1213L21.504 46.8715C21.658 46.9577 21.828 47.0007 22 47.0007C22.172 47.0007 22.342 46.9577 22.496 46.8715L43.496 35.1213C43.808 34.947 44 34.6219 44 34.2714V12.7294C43.9999 12.3788 43.8079 12.0537 43.4959 11.8794Z" fill="url(#paint0_linear)"/>
<path d="M30.8191 25.8935C30.358 24.9791 29.5294 24.2511 28.3332 23.7096C30.0971 23.2189 31.0782 21.9927 31.2774 20.031C31.3551 19.3207 31.2825 18.6777 31.0593 18.1011C30.8359 17.5244 30.4775 17.0258 29.9823 16.6048C29.4877 16.1835 28.9289 15.8272 28.3076 15.5354C27.6862 15.2436 26.9586 14.9776 26.1253 14.7379L26.9399 10.7423L24.4597 10.2575L23.6677 14.1421C23.2382 14.0582 22.5811 13.9407 21.6964 13.7898L22.4948 9.87341L20.0142 9.38856L19.1997 13.3842C18.843 13.3256 18.3212 13.2292 17.634 13.0948L14.2227 12.4114L13.6926 15.0118L15.4804 15.3613C16.2965 15.5208 16.701 15.9737 16.6941 16.7196L15.7664 21.2703C15.8739 21.2913 15.9586 21.3135 16.0209 21.3367L15.7631 21.2863L14.4637 27.6601C14.2681 28.1823 13.9017 28.3911 13.3648 28.2862L11.5771 27.9368L10.4862 30.7408L13.7076 31.3705C13.9117 31.4104 14.2062 31.4707 14.592 31.5511C14.9774 31.632 15.2667 31.6913 15.46 31.7291L14.6358 35.7722L17.1167 36.2571L17.9313 32.2615C18.3799 32.3605 19.0339 32.4937 19.8929 32.6616L19.0816 36.6412L21.5619 37.126L22.3861 33.0828C23.2754 33.2128 24.0726 33.2866 24.778 33.3031C25.4836 33.3197 26.1732 33.2652 26.8466 33.1383C27.5198 33.0118 28.1035 32.8042 28.5977 32.5161C29.092 32.2283 29.5339 31.8253 29.9246 31.308C30.3143 30.7905 30.6237 30.164 30.8517 29.428C31.2913 27.9865 31.2802 26.8081 30.8191 25.8935ZM21.1629 16.6528C21.2381 16.6675 21.4507 16.7063 21.8008 16.7692C22.151 16.832 22.4419 16.8834 22.6738 16.9232C22.9058 16.9631 23.2145 17.0372 23.6001 17.1456C23.9856 17.2539 24.3071 17.3608 24.5647 17.466C24.8223 17.5712 25.1001 17.7162 25.3971 17.9007C25.6948 18.0852 25.9221 18.2836 26.0796 18.4957C26.2375 18.7079 26.356 18.962 26.435 19.2577C26.5145 19.5535 26.5186 19.8758 26.4475 20.2246C26.3871 20.5206 26.2839 20.7808 26.1378 21.0051C25.9919 21.2294 25.8051 21.4045 25.5786 21.5306C25.3521 21.6567 25.124 21.7607 24.8951 21.8423C24.6666 21.9239 24.386 21.9708 24.0542 21.9828C23.7226 21.9949 23.4342 21.999 23.1895 21.9951C22.9446 21.9912 22.6435 21.9627 22.2858 21.9092C21.9282 21.8557 21.6574 21.814 21.4739 21.7835C21.2903 21.7531 21.0407 21.7043 20.7249 21.6371C20.409 21.57 20.2246 21.531 20.1707 21.5205L21.1631 16.6528L21.1629 16.6528L21.1629 16.6528ZM25.7349 28.7743C25.583 28.9976 25.4085 29.1834 25.2109 29.3318C25.0131 29.4797 24.7686 29.5969 24.4777 29.6827C24.1867 29.769 23.9089 29.8299 23.6449 29.8662C23.3804 29.9028 23.0674 29.9182 22.7057 29.9137C22.3434 29.9088 22.0284 29.8937 21.7597 29.8688C21.4913 29.8439 21.1731 29.8036 20.8046 29.7482C20.4365 29.6924 20.1501 29.6448 19.9462 29.605C19.7421 29.5651 19.4849 29.5118 19.1746 29.4458C18.864 29.3799 18.6661 29.3385 18.5801 29.3217L19.6727 23.9622C19.7585 23.979 20.0146 24.0237 20.441 24.0958C20.8675 24.1681 21.2146 24.2308 21.4831 24.2833C21.7515 24.3358 22.1189 24.4238 22.5851 24.5481C23.0508 24.6719 23.4385 24.7969 23.748 24.9234C24.057 25.0498 24.3886 25.2162 24.7431 25.423C25.0972 25.6296 25.3732 25.8511 25.5708 26.0876C25.7682 26.3243 25.9172 26.6059 26.0179 26.9334C26.119 27.2609 26.1305 27.6149 26.0529 27.9955C25.9924 28.2918 25.8866 28.551 25.7349 28.7743Z" fill="white"/>
<defs>
<linearGradient id="paint0_linear" x1="8.1718" y1="8.58311" x2="34.7484" y2="40.2095" gradientUnits="userSpaceOnUse">
<stop stop-color="#FFBB1F"/>
<stop offset="1" stop-color="#FF9400"/>
</linearGradient>
</defs>
</svg>
