<svg width="192" height="48" viewBox="0 0 192 48" fill="none" xmlns="http://www.w3.org/2000/svg"><path fill-rule="evenodd" clip-rule="evenodd" d="M19.899 4.789H15.71v4.202h3.26c.391-1.69 3.142-1.856 3.142.587 0 1.608-2.668 2.015-3.143.235h-2.214v2.332h-4.888c-.275 1.18-.083 2.153 0 3.153.467 0 .935.007 1.402-.007 1.259-.02 1.046-.303 1.046 2.34h6.628c.536-2.015 3.259-1.339 3.259.234 0 .925-.633 1.753-1.63 1.753-1.375 0-1.251-1.166-1.863-1.166h-8.842v3.505h3.61v3.382c0 .407.082.455.116.82h7.447c.433-1.862 3.142-1.524 3.142.353 0 .434-.151.904-.378 1.138-.186.18-.805.497-1.135.497-1.478 0-1.354-1.173-1.98-1.173H12.218c-.536 0-.35.663-.35 1.988 1.677 0 2.908-.256 2.908.351v3.154H13.03c-.585 0-.516.103-1.045.117 0 1.484-.214 2.333.35 2.333h6.402c.447 0 .35-.4.715-.794 1.375-1.483 3.946.58 2.227 2.236-.378.366-.563.428-1.196.428-1.08 0-1.183-1.166-1.746-1.166h-4.655c-.269 0-.351.082-.351.351v2.92c-2.592 0-1.623-.339-1.63 4.319V48c.468-.317 1.114-1.884 1.396-2.457l2.558-5.134c.227-.372.653-.641 1.066-.807 1.072-.435 5.562-.18 8.636-1.021 1.176-.318 1.567-.628 2.173-1.677 1.313-2.291-1.74-2.87.797-3.871 1.898-.745.763-1.801.598-2.436.413-.614 1.046-.518 1.046-1.4 0-.967-1.706-1.767-.654-2.644.454-.372 2.4-.359 2.4-1.677 0-1.58-3.025-4.954-3.025-7.01l.467-2.45c0-3.94.564-7.135-2.365-10.123-.88-.904.296-.932-1.85-3.395C24.154.53 23.674.11 22.807 0H19.9v4.789zm20.709 17.983c0 3.995.434 7.17 2.882 9.957 3.836 4.348 11.654 4.382 16.44 1.836l-1.183-3.61c-1.025.077-1.403 1.277-6.615 1.277-4.49 0-6.869-3.733-6.869-8.294 0-3.602.722-6.77 4.153-8.446 2.263-1.104 5.453-.649 7.667.207.447.172.942.441 1.334.531l1.279-3.616c-.365-.083-.433-.152-.722-.331-1.63-1-4.786-1.421-6.725-1.421-2.544 0-5.769 1.02-7.536 2.711-.323.31-.536.38-.811.704l-.633.773c-.632.773-1.258 1.87-1.63 2.802-.535 1.338-1.03 3.008-1.03 4.92zm28.748 9.695h-.467c-5.48 0-5.817-11.8.117-11.8 5.26 0 5.122 7.28 3.561 9.882-.577.966-1.732 1.918-3.21 1.918zm-9.076-6.072c0 3.65 1.465 7.231 4.765 8.874 2.427 1.207 5.556 1.297 7.997.075 1.182-.593 1.574-.986 2.447-1.856 2.82-2.787 3.156-8.922.915-12.655-.722-1.201-1.987-2.409-3.245-3.043-3.232-1.622-8.245-1.035-10.603 2.015-1.43 1.835-2.276 4.036-2.276 6.59zm28.04-8.177v17.52h4.304V20.902c3.417 0 6.752-1.891 6.752 5.727v9.109h3.954c.268 0 .35-.083.35-.352 0-3.395.303-11.53-.68-14.263-1.156-3.21-4.298-4.217-7.468-4.196l-6.69.883c-.316.083-.522.042-.522.408zm18.97 0v17.52h2.324v-15.65c0-.435.75-.463 1.21-.539 1.554-.248 4.531-.434 5.797.518 1.739 1.31 1.718 4.237 1.718 6.68v8.99h2.331c0-2.587.234-11.302-.343-13.669-.097-.393-.227-.69-.241-1.166 2.076-1.394 2.922-1.518 5.473-1.518 3.438 0 3.685 3.409 3.72 6.079.007.662.124.807.124 1.511l-.007 8.764h2.331v-8.991c0-4.244-.324-7.405-3.149-8.875-1.871-.973-5.432-.807-7.481.187-1.176.572-1.272.738-1.939 1.097-.406-.276-.55-.566-.997-.87-1.162-.8-3.143-1.207-4.401-1.055-2.585.317-1.788-.083-4.992.607-.591.124-.935.255-1.478.38zm44.335-.001v17.52h2.324v-15.65c0-.434.75-.462 1.21-.538 1.451-.234 2.194-.165 3.679-.165 3.665 0 3.837 3.885 3.837 6.776v9.578h2.331c0-2.684.151-10.579-.165-12.8-.11-.767-.365-1.401-.42-2.036 2.049-1.373 2.922-1.518 5.473-1.518 3.885 0 3.837 4.34 3.837 7.362v8.992h2.331v-9.93c0-3.933-.633-6.942-3.472-8.08-1.451-.573-3.26-.635-5.027-.332-2.104.366-2.688 1.021-4.07 1.76-.626-.428-.688-.918-2.228-1.505-1.65-.641-4.785-.448-6.621-.137-1.039.179-2.036.476-3.019.703zm-14.9 12.263c0-.628.11-1.367.399-1.822.268-.421.619-.718.997-.98 1.313-.932 4.174-.994 5.907-.67.419.077.873.284 1.313.318v6.425c-.908 0-1.705.234-2.792.234-1.781 0-3.204.152-4.71-.883-.68-.462-1.114-1.498-1.114-2.622zm-.116-10.51c2.619-.614 1.443-.704 4.771-.704 1.534 0 2.73.725 3.301 1.712.66 1.138.66 2.608.66 4.36-2.922-.682-6.573-.855-9.083.932-3.514 2.519-2.489 9.813 3.96 9.813 2.235 0 4.758-.062 6.924-.642.323-.083.523-.034.523-.407V23.476c0-2.153-.77-4.072-2.441-5.259-2.042-1.456-5.659-1.18-7.942-.607-1.677.421-.715.428-.673 2.36zm44.452 10.392c0-3.519 3.706-3.505 6.167-3.505.908 0 1.692.297 2.448.469v6.424c-.908 0-1.705.235-2.792.235-1.56 0-3.513.131-4.689-.904-.729-.649-1.134-1.394-1.134-2.719zm-.344-12.497c0 .89.227 1.332.227 2.105 2.606-.607 1.622-.704 4.772-.704 1.478 0 2.557.552 3.314 1.705.722 1.104.646 2.608.646 4.368-.963-.463-2.998-.463-4.194-.463-1.705 0-3.541.518-4.6 1.215-2.049 1.345-2.145 2.967-2.145 4.975 0 1.587.832 2.926 1.725 3.637 3.438 2.74 9.723.724 11.538.683V23.24c0-3.63-2.434-6.072-6.051-6.072-3.039 0-2.544.069-5.232.696zM80.523 35.738h4.194V17.403h-4.194v18.335zm-.578-23.71c0 3.643 5.232 3.23 5.232.351 0-1.124-.103-2.18-1.437-2.76-1.939-.842-3.795.497-3.795 2.409zM6.518 37.953h4.422v-4.437H6.518v4.437zM5.583 14.83h3.96v-3.97h-3.96v3.968z" fill="#fff"/><path fill-rule="evenodd" clip-rule="evenodd" d="M14.893.235V3.74h3.61V.235L16.172.117c-.647 0-.688.118-1.28.118zM10.94 9.226h2.791c.316 0 .323-.055.584-.117V5.838H10.94v3.388zm-4.89 9.461c-.302 3.65-.46 3.153 2.675 3.153.585 0 .351-2.077.351-3.153l-1.98-.118c-.585 0-.516.104-1.045.118zm.585 5.837c0 3.34-.667 2.685 2.792 2.685v-2.684l-1.747-.118c-.584 0-.522.104-1.045.117zm.928 15.886c0 3.146-.557 2.566 2.331 2.566.571 0 .344-1.428.344-2.567-.797-.069-.364-.117-1.63-.117-.584 0-.515.104-1.045.117zm-6.518-8.764c0 .497.53.365 1.045.359.468-.007.935-.007 1.403-.007.186-.8.186-1.767 0-2.567H1.045v2.215zM11.29 25.69h2.324v-1.98c0-.269-.082-.352-.35-.352H11.29v2.332zM0 17.865v1.753h2.097c0-2.525.392-2.098-1.746-2.098-.268 0-.351.076-.351.345zm.701 5.024v1.987h2.09V22.89c-1.038-.242-1.21-.09-2.09 0zm6.746 6.307v1.635h1.98v-1.987c-1.327 0-1.98-.186-1.98.352z" fill="#fff"/></svg>