<svg width="25" height="25" viewBox="0 0 25 25" fill="none" xmlns="http://www.w3.org/2000/svg">
<path d="M25 12.5C25 19.1786 19.7623 24.6342 13.1704 24.9821C12.9485 24.9938 12.725 25 12.5 25C11.8429 25 11.1979 24.9495 10.5684 24.8515C10.0214 24.7668 9.48672 24.6469 8.96631 24.4934C8.13315 24.2484 7.33672 23.9194 6.58623 23.5153C5.10459 22.7184 3.80254 21.6311 2.75562 20.3296C2.54492 20.0684 2.34492 19.7979 2.15562 19.5194C0.794922 17.5184 0 15.1021 0 12.5C0 5.59644 5.59644 0 12.5 0C19.4036 0 25 5.59644 25 12.5Z" fill="#F99400"/>
<path d="M21.5847 8.61428C21.2873 7.82039 20.7475 7.13162 19.9643 6.54539C19.5102 6.20559 18.9164 5.901 18.2107 5.62395L18.9919 2.6219L16.523 1.97908L15.7679 4.87957L14.1806 4.46682L14.9352 1.56633L12.4663 0.923462L11.7112 3.82395L6.46993 2.45969L5.83472 4.90051L6.52911 5.08162C6.99136 5.20154 7.29493 5.326 7.43829 5.45305C7.5796 5.57957 7.66636 5.72395 7.69595 5.88469C7.72808 6.04592 7.673 6.38674 7.53726 6.90969L4.97657 16.7469C4.84288 17.2607 4.723 17.5837 4.61739 17.7133C4.51177 17.8444 4.36739 17.9276 4.1817 17.9648C3.99547 18.0015 3.44395 17.9015 2.9817 17.7816L2.15567 19.5194C2.34498 19.7979 2.54498 20.0683 2.75567 20.3296L7.11998 21.4653L6.58629 23.5153C7.33677 23.9194 8.13321 24.2484 8.96636 24.4933L9.58726 22.1076L11.121 22.5072C11.1388 22.5113 11.1572 22.5148 11.1751 22.5194L10.5684 24.8515C11.198 24.9495 11.8429 25 12.5 25C12.725 25 12.9485 24.9939 13.1704 24.9821L13.6816 23.0183C14.5066 23.1224 15.2169 23.1383 15.8077 23.0627C16.946 22.9178 17.901 22.525 18.6699 21.8826C19.4393 21.2418 19.946 20.4531 20.1898 19.5163C20.3919 18.7337 20.3903 17.9755 20.1863 17.2418C19.9812 16.5107 19.6092 15.8826 19.0684 15.3653C18.698 14.9995 18.1251 14.6015 17.3546 14.1781C18.1934 14.1163 18.897 13.9464 19.473 13.6689C20.0449 13.3898 20.5245 13.0224 20.9118 12.5633C21.296 12.1061 21.5659 11.5857 21.7169 11.0041C21.9255 10.2041 21.8806 9.40711 21.5847 8.61428ZM15.7311 17.8607C15.5724 18.4744 15.2622 18.9555 14.8041 19.3051C14.3449 19.6525 13.8505 19.8331 13.3224 19.8444C12.7949 19.8556 12.1561 19.7648 11.4076 19.5698L10.1204 19.2346C9.69029 19.1229 9.43516 19.0311 9.34996 18.9596C9.26524 18.8872 9.21783 18.7882 9.20557 18.6586C9.19488 18.5561 9.2566 18.2372 9.38873 17.6933L10.3826 13.8744L12.6648 14.4683C13.6668 14.7296 14.3867 15.0163 14.827 15.3285C15.2663 15.6398 15.5612 16.0102 15.7107 16.4362C15.8602 16.8633 15.8673 17.3372 15.7311 17.8607ZM17.2699 10.552C17.1541 10.9985 16.9291 11.3607 16.5949 11.6383C16.2622 11.9168 15.8306 12.077 15.3025 12.1189C14.774 12.1612 14.0041 12.0515 12.9919 11.7883L11.0582 11.2847L12.1775 6.98367L14.1112 7.48674C15.2419 7.78113 16.0071 8.0551 16.4092 8.30818C16.8107 8.56126 17.0842 8.88367 17.2316 9.27146C17.3771 9.66067 17.3913 10.0872 17.2699 10.552Z" fill="#F0EFEB"/>
</svg>
