<svg width="30" height="30" viewBox="0 0 30 30" fill="none" xmlns="http://www.w3.org/2000/svg">
<path d="M0.000654449 22.528C0.0122299 22.9177 0.174609 23.2876 0.453302 23.5593L6.43619 29.5593C6.57507 29.699 6.73997 29.8099 6.9216 29.8855C7.10323 29.9611 7.29796 30 7.49461 30C7.69126 30 7.88598 29.9611 8.06762 29.8855C8.24925 29.8099 8.41414 29.699 8.55303 29.5593L14.5361 23.5593C14.6792 23.4207 14.7932 23.2548 14.8716 23.0714C14.9501 22.888 14.9912 22.6907 14.9927 22.4912C14.9942 22.2916 14.956 22.0937 14.8803 21.9092C14.8046 21.7246 14.6928 21.5571 14.5518 21.4164C14.4107 21.2756 14.2433 21.1646 14.059 21.0896C13.8746 21.0147 13.6771 20.9774 13.4782 20.98C13.2793 20.9826 13.0829 21.025 12.9005 21.1047C12.7182 21.1843 12.5535 21.2997 12.4161 21.4441L8.98533 24.8806L8.98533 1.50149C8.98533 1.10327 8.82764 0.721365 8.54699 0.439779C8.26635 0.158195 7.88564 -2.25204e-06 7.48874 -2.23469e-06C7.09185 -2.21734e-06 6.71131 0.158195 6.43067 0.439779C6.15002 0.721365 5.99233 1.10327 5.99233 1.50149L5.99233 24.8659L2.57307 21.4441C2.36379 21.2256 2.09337 21.0759 1.79762 21.0146C1.50187 20.9532 1.19456 20.9832 0.916124 21.1005C0.637685 21.2179 0.401182 21.4171 0.237756 21.6719C0.0743296 21.9267 -0.00827655 22.2252 0.000654449 22.528ZM14.9536 7.51327C14.956 7.80996 15.0459 8.09927 15.2122 8.34463C15.3785 8.58998 15.6135 8.78036 15.8876 8.89168C16.1618 9.003 16.4627 9.03027 16.7522 8.97004C17.0418 8.90981 17.307 8.76479 17.5144 8.55331L20.9482 5.1109L20.9482 28.4959C20.9567 28.888 21.1181 29.2612 21.3975 29.5355C21.677 29.8098 22.0523 29.9634 22.4432 29.9634C22.8341 29.9634 23.2096 29.8098 23.489 29.5355C23.7685 29.2612 23.9297 28.888 23.9382 28.4959L23.9382 5.11969L27.3692 8.55331C27.5033 8.71034 27.6681 8.83787 27.8536 8.92791C28.0391 9.01794 28.2412 9.06854 28.4471 9.07651C28.653 9.08449 28.8583 9.04967 29.0501 8.97425C29.242 8.89883 29.4164 8.78443 29.5621 8.63824C29.7078 8.49204 29.8218 8.31721 29.897 8.12471C29.9721 7.9322 30.0068 7.72619 29.9989 7.51959C29.9909 7.313 29.9405 7.11028 29.8508 6.92417C29.761 6.73805 29.6339 6.57255 29.4774 6.43807L23.4973 0.438016C23.2172 0.158591 22.8382 0.00174995 22.4432 0.00174997C22.0482 0.00174998 21.6692 0.158591 21.3891 0.438016L15.4062 6.43807C15.263 6.57785 15.1491 6.74502 15.0713 6.9297C14.9936 7.11437 14.9536 7.3128 14.9536 7.51327Z" fill="white"/>
</svg>
