<svg width="479" height="417" viewBox="0 0 479 417" fill="none" xmlns="http://www.w3.org/2000/svg">
<path d="M325.478 110.702C325.478 110.702 329.898 119.055 338.005 119.668L333.585 124.455C333.585 124.455 326.092 123.475 323.271 115.982L325.478 110.702Z" fill="#90E0FB"/>
<path d="M224.056 298.56C224.056 298.56 228.476 306.914 236.583 307.527L232.162 312.314C232.162 312.314 224.669 311.334 221.849 303.841L224.056 298.56Z" fill="#90E0FB"/>
<path d="M68.8399 99.4075C68.8399 99.4075 73.26 107.761 81.3666 108.374L76.9465 113.161C76.9465 113.161 69.4533 112.181 66.6328 104.688L68.8399 99.4075Z" fill="#FFA68E"/>
<path d="M82.2321 51.6687C82.2321 51.6687 90.1402 53.3044 94.9572 48.2949L95.709 53.8156C95.709 53.8156 90.9821 58.2177 84.5113 55.9986L82.2321 51.6687Z" fill="#90E0FB"/>
<path d="M456.747 155.793C456.747 155.793 464.656 157.429 469.473 152.419L470.224 157.94C470.224 157.94 465.497 162.342 459.027 160.123L456.747 155.793Z" fill="#FFDB79"/>
<path d="M233.299 66.5784C233.299 66.5784 241.207 68.2142 246.024 63.2047L246.776 68.7254C246.776 68.7254 242.049 73.1275 235.578 70.9084L233.299 66.5784Z" fill="#90E0FB"/>
<path d="M95.475 303.925C95.475 303.925 103.383 305.561 108.2 300.551L108.952 306.072C108.952 306.072 104.225 310.474 97.7542 308.255L95.475 303.925Z" fill="#90E0FB"/>
<path d="M154.987 249.849C154.987 249.849 161.001 255.237 167.682 253.337L165.554 258.484C165.554 258.484 159.257 259.91 154.777 254.738L154.987 249.849Z" fill="#90E0FB"/>
<path d="M366.114 189.35C366.114 189.35 361.904 196.242 364.989 202.466L359.54 201.305C359.54 201.305 356.997 195.37 361.266 190.03L366.114 189.35Z" fill="#FFA68E"/>
<path d="M200.301 181.432C200.301 181.432 204.06 188.577 210.988 189.124L207.199 193.207C207.199 193.207 200.801 192.348 198.401 185.943L200.301 181.432Z" fill="#FFA68E"/>
<path d="M449.447 58.905C449.447 58.905 445.237 65.7968 448.322 72.0211L442.873 70.8604C442.873 70.8604 440.33 64.9248 444.599 59.5846L449.447 58.905Z" fill="#B3B3FF"/>
<path d="M17.3858 235.043C20.2754 235.043 22.6178 232.7 22.6178 229.811C22.6178 226.921 20.2754 224.579 17.3858 224.579C14.4963 224.579 12.1538 226.921 12.1538 229.811C12.1538 232.7 14.4963 235.043 17.3858 235.043Z" fill="#B3B3FF"/>
<path d="M386.025 39.1356C389.74 37.5512 391.467 33.2554 389.883 29.5406C388.298 25.8257 384.003 24.0987 380.288 25.6831C376.573 27.2675 374.846 31.5633 376.43 35.2782C378.015 38.993 382.31 40.72 386.025 39.1356Z" fill="#90E0FB"/>
<path d="M362.451 143.098C366.49 143.098 369.764 139.824 369.764 135.785C369.764 131.746 366.49 128.472 362.451 128.472C358.412 128.472 355.138 131.746 355.138 135.785C355.138 139.824 358.412 143.098 362.451 143.098Z" fill="#FFDB79"/>
<path d="M289.528 303.822C293.567 303.822 296.841 300.548 296.841 296.51C296.841 292.471 293.567 289.197 289.528 289.197C285.489 289.197 282.215 292.471 282.215 296.51C282.215 300.548 285.489 303.822 289.528 303.822Z" fill="#FFA68E"/>
<path d="M76.4292 270.031C80.4679 270.031 83.7419 266.757 83.7419 262.718C83.7419 258.679 80.4679 255.405 76.4292 255.405C72.3904 255.405 69.1164 258.679 69.1164 262.718C69.1164 266.757 72.3904 270.031 76.4292 270.031Z" fill="#FFDB79"/>
<path d="M445.784 315.183C449.823 315.183 453.097 311.909 453.097 307.87C453.097 303.831 449.823 300.557 445.784 300.557C441.745 300.557 438.471 303.831 438.471 307.87C438.471 311.909 441.745 315.183 445.784 315.183Z" fill="#90E0FB"/>
<path d="M17.3128 340.626C21.3515 340.626 24.6255 337.351 24.6255 333.313C24.6255 329.274 21.3515 326 17.3128 326C13.2741 326 10 329.274 10 333.313C10 337.351 13.2741 340.626 17.3128 340.626Z" fill="#B3B3FF"/>
<path d="M328.313 408.626C332.352 408.626 335.626 405.351 335.626 401.313C335.626 397.274 332.352 394 328.313 394C324.274 394 321 397.274 321 401.313C321 405.351 324.274 408.626 328.313 408.626Z" fill="#B3B3FF"/>
<path d="M75.7525 71.8907C77.9155 69.7277 77.9155 66.2208 75.7525 64.0578C73.5895 61.8949 70.0826 61.8949 67.9196 64.0578C65.7567 66.2208 65.7567 69.7277 67.9196 71.8907C70.0826 74.0536 73.5895 74.0536 75.7525 71.8907Z" fill="#B3B3FF"/>
<path d="M453.455 43.5981C455.804 41.2495 455.804 37.4419 453.455 35.0934C451.107 32.7448 447.299 32.7448 444.951 35.0934C442.602 37.4419 442.602 41.2495 444.951 43.5981C447.299 45.9466 451.107 45.9466 453.455 43.5981Z" fill="#90E0FB"/>
<path d="M454.372 367.648L455.5 370.802C455.931 372.008 455.74 373.348 455.004 374.397C453.26 376.879 450.15 381.824 449.412 386.476L447.7 381.691C447.457 381.012 447.43 380.274 447.62 379.574C448.183 377.558 449.839 373.064 454.372 367.648Z" fill="#FFC028"/>
<path d="M421.423 353.408C421.423 353.408 421.149 346.302 427.043 340.604L428.949 345.932C428.949 345.932 424.219 353.206 425.519 359.339L421.423 353.408Z" fill="#FFC028"/>
<path d="M451.456 350.642C451.456 350.642 449.02 348.779 444.042 349.666C439.082 350.546 434.748 353.732 432.572 358.272C431.547 360.408 430.951 362.901 431.657 365.427L433.081 369.408C433.081 369.408 437.726 350.667 452.304 354.477L451.456 350.642Z" fill="#FFC028"/>
<path d="M431.323 363.03C431.323 363.03 431.357 364.589 431.531 365.076L433.081 369.408C433.081 369.408 437.625 375.415 454.935 369.222L454.035 366.708C453.764 365.95 452.937 365.549 452.18 365.807C448.228 367.151 436.139 369.764 431.323 363.03Z" fill="#FFDB79"/>
<path d="M449.414 386.482C449.414 386.482 459.016 389.006 459.564 393.447L460.463 389.159C460.851 387.296 459.992 385.412 458.343 384.463C456.237 383.255 452.279 381.669 447.505 380.663C447.609 381.526 447.822 382.37 448.136 383.177L449.414 386.482Z" fill="#FFDB79"/>
<path d="M421.423 353.408C421.423 353.408 423.903 359.502 437.547 358.613C437.547 358.613 450.256 357.055 451.452 350.649L452.148 353.255C452.494 354.562 452.287 355.965 451.527 357.073C449.78 359.634 445.56 363.692 436.266 363.957C436.266 363.957 432.628 364.109 428.688 362.772C425.831 361.801 423.607 359.512 422.59 356.669L421.423 353.408Z" fill="#FFDB79"/>
<path d="M106.119 231.879L106.504 235.464C106.649 236.835 107.46 238.044 108.663 238.711C111.514 240.299 116.836 243.636 119.729 247.792L119.145 242.355C119.061 241.58 118.748 240.858 118.231 240.269C116.746 238.573 113.041 235.001 106.119 231.879Z" fill="#6565FB"/>
<path d="M131.359 202.671C131.359 202.671 128.298 195.659 119.927 192.898L120.576 198.948C120.576 198.948 128.557 203.783 130.174 210.326L131.359 202.671Z" fill="#6565FB"/>
<path d="M100.989 214.042C100.989 214.042 102.475 211.102 107.713 209.628C112.927 208.161 118.61 209.219 122.844 212.599C124.834 214.187 126.578 216.328 127.077 219.1L127.558 223.616C127.558 223.616 114.292 207.65 101.964 218.156L100.989 214.042Z" fill="#6565FB"/>
<path d="M126.271 216.622C126.271 216.622 126.969 218.15 127.029 218.697L127.552 223.616C127.552 223.616 125.965 231.555 106.306 233.659L105.999 230.803C105.909 229.943 106.516 229.167 107.376 229.059C111.832 228.518 124.762 225.39 126.271 216.622Z" fill="#B3B3FF"/>
<path d="M119.728 247.786C119.728 247.786 111.61 254.72 113.161 259.278L110.287 255.55C109.036 253.932 108.994 251.701 110.149 250.011C111.622 247.858 114.713 244.466 118.862 241.261C119.163 242.145 119.35 243.059 119.428 243.991L119.728 247.786Z" fill="#B3B3FF"/>
<path d="M131.359 202.671C131.359 202.671 131.81 209.731 118.183 215.251C118.183 215.251 105.151 219.69 100.989 214.043L101.537 216.893C101.813 218.318 102.667 219.581 103.924 220.303C106.811 221.963 112.801 223.917 121.917 219.828C121.917 219.828 125.508 218.276 128.701 215.131C131.016 212.852 132.099 209.598 131.75 206.369L131.359 202.671Z" fill="#B3B3FF"/>
<path d="M454.293 206.331C454.293 206.331 457.636 214.434 453.873 221.767C451.76 225.881 447.56 228.632 442.939 228.444C442.526 228.428 442.107 228.386 441.687 228.314C439.773 227.984 438.138 226.743 437.169 225.053L434.739 220.82C434.739 220.82 438.467 223.75 443.13 223.173C445.502 222.882 447.536 221.39 448.665 219.29C450.628 215.643 452.912 208.502 447.45 200.093C447.45 200.093 451.87 202.116 454.293 206.331Z" fill="#FF5554"/>
<path d="M423.184 190.975L424.419 193.121C425.948 195.788 428.819 197.418 431.896 197.324C438.353 197.12 449.548 198.065 454.298 206.327C454.298 206.327 452.745 202.208 450.566 197.634C448.704 193.716 445.003 191.003 440.708 190.376C436.637 189.778 430.809 189.602 423.184 190.975Z" fill="#FFA68E"/>
<path d="M461.294 224.852C461.294 224.852 462.277 227.732 459.82 231.359C459.217 232.251 458.468 233.028 457.659 233.739C456.555 234.709 454.276 236.99 453.443 240.009C453.188 240.93 453.073 241.932 453.172 242.978C453.053 242.858 452.955 242.736 452.853 242.609L451.32 239.946C451.229 239.795 451.148 239.636 451.08 239.483L451.066 239.456C451.052 239.42 451.038 239.393 451.025 239.357C449.991 237.019 450.455 234.234 452.308 232.401C452.641 232.066 453.007 231.734 453.398 231.405C455.952 229.265 457.787 226.314 458.145 222.99C458.287 221.697 458.234 220.314 457.845 218.915L461.294 224.852Z" fill="#FF5554"/>
<path d="M434.738 220.828C434.738 220.828 441.207 212.929 453.298 215.723C455.342 216.196 457.089 217.539 458.133 219.361L461.289 224.855C461.289 224.855 449.613 215.193 437.168 225.062L434.738 220.828Z" fill="#FFA68E"/>
<path d="M460.261 239.514L463.08 244.415C460.451 245.174 458.123 245.067 456.399 244.753C455.15 244.522 454.016 243.896 453.177 242.974C453.057 242.854 452.96 242.732 452.858 242.605C452.659 242.357 452.487 242.085 452.33 241.803L451.454 240.162L451.081 239.475L451.067 239.448L451.014 239.343C451.022 239.344 451.022 239.344 451.026 239.349C451.848 239.653 452.655 239.862 453.44 239.996C457.174 240.625 460.261 239.514 460.261 239.514Z" fill="#FFA68E"/>
<path d="M403.017 378.326C403.017 378.326 406.476 385.471 403.475 392.309C401.788 396.142 398.141 398.857 393.953 398.939C393.575 398.947 393.195 398.93 392.815 398.887C391.069 398.693 389.52 397.655 388.553 396.189L386.126 392.499C386.126 392.499 389.653 394.944 393.844 394.173C395.971 393.784 397.727 392.323 398.642 390.361C400.219 386.961 401.897 380.375 396.505 373.068C396.496 373.06 400.603 374.648 403.017 378.326Z" fill="#6565FB"/>
<path d="M374.064 366.132L375.296 368.002C376.823 370.33 379.508 371.65 382.283 371.398C388.111 370.867 398.279 371.112 403.021 378.322C403.021 378.322 401.396 374.682 399.179 370.661C397.284 367.222 393.789 364.971 389.877 364.635C386.157 364.323 380.881 364.475 374.064 366.132Z" fill="#B3B3FF"/>
<path d="M410.352 394.696C410.352 394.696 411.397 397.249 409.373 400.659C408.873 401.501 408.238 402.241 407.55 402.923C406.602 403.856 404.665 406.047 404.079 408.819C403.899 409.671 403.848 410.579 403.998 411.519C403.888 411.416 403.787 411.313 403.694 411.201L402.163 408.877C402.073 408.744 401.992 408.61 401.92 408.477L401.906 408.456C401.892 408.427 401.879 408.397 401.865 408.368C400.802 406.309 401.072 403.769 402.644 402.011C402.927 401.692 403.236 401.371 403.574 401.053C405.765 398.978 407.266 396.214 407.414 393.188C407.473 392.016 407.347 390.761 406.919 389.52L410.352 394.696Z" fill="#6565FB"/>
<path d="M386.122 392.495C386.122 392.495 391.544 384.999 402.625 386.874C404.503 387.191 406.148 388.311 407.195 389.902L410.348 394.701C410.348 394.701 399.267 386.597 388.549 396.193L386.122 392.495Z" fill="#B3B3FF"/>
<path d="M410.21 408.009L413.022 412.291C410.683 413.117 408.574 413.152 406.998 412.961C405.853 412.819 404.794 412.314 403.99 411.528C403.88 411.425 403.779 411.322 403.686 411.21C403.491 410.995 403.322 410.762 403.169 410.512L402.288 409.077L401.915 408.473L401.902 408.452L401.848 408.36C401.856 408.36 401.856 408.36 401.861 408.364C402.626 408.594 403.362 408.74 404.08 408.819C407.482 409.179 410.21 408.009 410.21 408.009Z" fill="#B3B3FF"/>
<path d="M218.689 384.952C218.689 384.952 216.452 392.608 209.602 395.675C205.76 397.395 201.207 396.956 198.038 394.19C197.755 393.943 197.479 393.672 197.22 393.384C196.047 392.061 195.596 390.244 195.867 388.5L196.546 384.11C196.546 384.11 197.527 388.314 201.165 390.563C203.017 391.706 205.309 391.802 207.305 390.954C210.775 389.481 216.464 385.71 217.372 376.629C217.378 376.629 219.369 380.58 218.689 384.952Z" fill="#79ABE5"/>
<path d="M205.338 356.339L204.773 359.971C204.466 361.95 205.296 363.934 206.932 365.089C211.491 368.318 220.12 375.757 218.689 384.946C218.689 384.946 219.928 381.14 220.986 376.653C221.894 372.811 220.812 368.775 218.118 365.883C215.568 363.146 211.533 359.701 205.338 356.339Z" fill="#90E0FB"/>
<path d="M213.114 402.092C213.114 402.092 212.17 404.696 208.363 405.874C207.425 406.163 206.451 406.289 205.477 406.331C204.142 406.392 201.219 406.71 198.916 408.382C198.206 408.893 197.557 409.537 197.033 410.337C197.015 410.186 197.015 410.042 197.015 409.892L197.442 407.131C197.466 406.975 197.496 406.819 197.533 406.668L197.539 406.644C197.551 406.614 197.557 406.584 197.569 406.554C198.164 404.305 200.082 402.591 202.44 402.344C202.867 402.296 203.312 402.266 203.781 402.254C206.818 402.188 209.795 401.135 211.942 398.983C212.778 398.147 213.529 397.13 214.052 395.916L213.114 402.092Z" fill="#79ABE5"/>
<path d="M196.546 384.111C196.546 384.111 205.639 382.18 212.633 391.05C213.818 392.554 214.293 394.496 213.998 396.385L213.114 402.086C213.114 402.086 210.324 388.579 195.867 388.501L196.546 384.111Z" fill="#90E0FB"/>
<path d="M204.033 411.918L203.246 417C200.948 416.038 199.349 414.643 198.308 413.434C197.551 412.556 197.106 411.467 197.033 410.337C197.015 410.187 197.015 410.042 197.015 409.892C197.015 409.603 197.045 409.315 197.1 409.026L197.412 407.366L197.539 406.668L197.545 406.644L197.569 406.536C197.575 406.542 197.575 406.542 197.575 406.548C197.984 407.234 198.441 407.841 198.922 408.382C201.207 410.944 204.033 411.918 204.033 411.918Z" fill="#90E0FB"/>
<path d="M281.711 403.586C281.711 403.586 284.904 404.837 288.554 402.895L286.888 399.767C286.888 399.767 281.789 401.355 279.504 399.431L281.711 403.586Z" fill="#6565FB"/>
<path d="M291.928 389.003C291.928 389.003 293.401 392.749 286.395 396.484C286.395 396.484 280.814 399.677 281.705 403.586L279.491 399.437C278.577 397.723 278.992 395.606 280.49 394.361C281.29 393.699 282.354 392.99 283.767 392.322C285.138 391.679 286.419 390.837 287.49 389.766C288.777 388.473 289.986 386.687 289.643 384.715L291.928 389.003Z" fill="#B3B3FF"/>
<path d="M266.766 393.597C266.766 393.597 269.641 396.52 283.19 389.49C284.056 389.039 284.952 388.666 285.896 388.413C287.688 387.932 290.37 387.559 291.928 389.003L289.643 384.715C288.753 383.043 286.822 382.219 284.994 382.718C283.773 383.049 282.312 383.572 280.772 384.39C280.772 384.39 267.969 392.304 264.746 386.808L266.766 393.597Z" fill="#6565FB"/>
<path d="M275.853 368.797C275.853 368.797 268.156 375.057 264.704 382.069C263.471 384.571 263.531 387.518 264.842 389.983L266.766 393.591C266.766 393.591 265.028 382.586 278.662 374.065L275.853 368.797Z" fill="#B3B3FF"/>
<path d="M356.048 37.3274C356.048 37.3274 359.476 38.6745 363.391 36.5877L361.605 33.232C361.605 33.232 356.133 34.94 353.679 32.8712L356.048 37.3274Z" fill="#FFC028"/>
<path d="M367.012 21.6797C367.012 21.6797 368.593 25.703 361.076 29.7081C361.076 29.7081 355.086 33.136 356.042 37.3336L353.667 32.8774C352.687 31.0372 353.132 28.764 354.737 27.4349C355.597 26.7253 356.74 25.9616 358.255 25.2459C359.723 24.5543 361.1 23.6523 362.249 22.5036C363.632 21.1144 364.925 19.196 364.558 17.0852L367.012 21.6797Z" fill="#FFDB79"/>
<path d="M340.01 26.6108C340.01 26.6108 343.095 29.75 357.636 22.2027C358.562 21.7216 359.53 21.3187 360.535 21.0481C362.459 20.5309 365.334 20.134 367.012 21.6855L364.564 17.085C363.608 15.2869 361.539 14.4089 359.579 14.9381C358.268 15.2929 356.698 15.8522 355.05 16.7302C355.05 16.7302 341.309 25.2217 337.851 19.3281L340.01 26.6108Z" fill="#FFC028"/>
<path d="M349.764 0C349.764 0 341.507 6.7174 337.797 14.2467C336.474 16.9348 336.54 20.0981 337.947 22.7381L340.01 26.611C340.01 26.611 338.145 14.7999 352.777 5.65296L349.764 0Z" fill="#FFDB79"/>
<path d="M418.409 154.945C418.409 154.945 417.068 157.964 422.228 163.93C422.228 163.93 427.641 169.697 425.307 175.723C425.307 175.723 427.214 173.552 428.771 170.455C429.824 168.362 429.715 165.854 428.507 163.845C427.833 162.727 426.943 161.464 425.824 160.315C425.824 160.315 420.171 153.784 421.224 150.471L418.409 154.945Z" fill="#90E0FB"/>
<path d="M434.141 152.425C434.141 152.425 432.061 156.4 425.71 154.638C425.71 154.638 420.406 152.84 418.409 154.945L420.28 151.595C421.043 150.23 422.535 149.43 424.092 149.599C425.024 149.701 426.221 149.936 427.725 150.417C427.725 150.417 431.874 151.974 436.048 148.961L434.141 152.425Z" fill="#79ABE5"/>
<path d="M439.626 137.944L442.308 132.887C442.308 132.887 435.242 131.588 428.542 132.111C426.66 132.255 424.982 133.356 424.062 135.003L422.318 138.125C422.324 138.125 429.835 135.966 439.626 137.944Z" fill="#79ABE5"/>
<path d="M436.439 123.896L433.757 128.701C433.757 128.701 440.871 134.733 439.626 137.944L442.037 133.626C442.489 132.82 442.489 131.846 442.032 131.04C441.208 129.591 439.53 127.071 436.439 123.896Z" fill="#90E0FB"/>
<path d="M422.324 138.124C422.324 138.124 422.012 141.991 428.633 145.972C429.324 146.387 429.992 146.826 430.611 147.337C432.019 148.492 434.135 150.543 434.141 152.419L435.885 149.298C436.649 147.933 436.433 146.213 435.326 145.106C434.52 144.3 433.402 143.374 431.916 142.544C431.916 142.544 423.906 137.529 425.013 133.752L422.324 138.124Z" fill="#90E0FB"/>
<path d="M41.334 189.397C41.334 189.397 43.7657 191.632 51.0717 188.643C51.0717 188.643 58.2615 185.351 63.2325 189.487C63.2325 189.487 61.7816 186.988 59.3474 184.527C57.6962 182.863 55.29 182.162 53.002 182.671C51.7257 182.953 50.2446 183.395 48.8008 184.085C48.8008 184.085 40.8056 187.357 38.007 185.308L41.334 189.397Z" fill="#FFA68E"/>
<path d="M43.9652 173.684C43.9652 173.684 47.0724 176.928 43.3749 182.383C43.3749 182.383 39.9842 186.833 41.3421 189.399L38.7647 186.558C37.7165 185.401 37.4299 183.727 38.0847 182.308C38.4755 181.458 39.082 180.398 40.0176 179.127C40.0176 179.127 42.8127 175.686 41.2939 170.774L43.9652 173.684Z" fill="#FF5554"/>
<path d="M31.9842 163.869L28.0495 159.712C28.0495 159.712 24.562 165.996 22.9221 172.51C22.4601 174.342 22.967 176.281 24.236 177.682L26.6384 180.328C26.6384 180.328 26.9907 172.518 31.9842 163.869Z" fill="#FF5554"/>
<path d="M17.651 162.41L21.3503 166.489C21.3503 166.489 29.3369 161.665 31.9793 163.872L28.6544 160.21C28.0329 159.529 27.1095 159.214 26.2037 159.394C24.5765 159.708 21.6496 160.491 17.651 162.41Z" fill="#FFA68E"/>
<path d="M26.6385 180.328C26.6385 180.328 30.209 181.855 36.0887 176.852C36.7037 176.329 37.3332 175.84 38.015 175.41C39.559 174.443 42.1793 173.092 43.9601 173.687L41.5577 171.041C40.5061 169.879 38.8091 169.538 37.4036 170.231C36.3835 170.735 35.1534 171.502 33.8881 172.648C33.8881 172.648 26.5774 178.639 23.3571 176.388L26.6385 180.328Z" fill="#FFA68E"/>
<path d="M403.826 54.2861C403.826 54.2861 404.006 57.1968 410.405 59.2835C412.666 60.0232 414.795 61.1418 416.653 62.6332C419.035 64.5456 421.446 67.3841 421.536 71.0706L422.926 65.8326C423.677 62.988 422.505 59.9751 419.991 58.4416C418.457 57.5035 416.419 56.4571 413.773 55.4588C413.773 55.4588 406.099 52.1332 405.618 48.1881L403.826 54.2861Z" fill="#FF5554"/>
<path d="M425.586 39.2458L423.499 47.1179C423.499 47.1179 421.069 49.5354 414.55 49.9143C412.301 50.0466 410.076 50.4796 407.971 51.2855C406.101 52.0011 404.279 53.0054 403.828 54.2863L404.79 50.1549C405.337 47.8095 407.184 45.9633 409.547 45.5122C410.178 45.3919 410.882 45.2897 411.658 45.2236C413.528 45.0612 415.392 44.7845 417.202 44.2674C420.131 43.4194 423.908 41.8679 425.586 39.2458Z" fill="#FFA68E"/>
<path d="M35.2228 274.83C35.2228 274.83 35.8242 277.686 42.4513 278.829C44.7967 279.232 47.0639 280.038 49.1146 281.247C51.7487 282.798 54.5391 285.258 55.1585 288.896L55.7779 283.514C56.1147 280.591 54.515 277.777 51.8088 276.622C50.155 275.912 47.99 275.173 45.2237 274.565C45.2237 274.565 37.1532 272.382 36.1068 268.546L35.2228 274.83Z" fill="#79ABE5"/>
<path d="M54.5872 256.813L53.655 264.901C53.655 264.901 51.5983 267.643 45.1997 268.96C42.9926 269.411 40.8517 270.163 38.8912 271.264C37.1472 272.244 35.4874 273.495 35.2228 274.83L35.5776 270.602C35.7821 268.203 37.3396 266.11 39.6128 265.322C40.2202 265.112 40.8998 264.907 41.6575 264.727C43.4857 264.294 45.2959 263.759 47.0038 262.983C49.7882 261.726 53.3062 259.651 54.5872 256.813Z" fill="#90E0FB"/>
<path d="M319.459 225.349C319.459 225.349 321.636 228.025 329.225 225.625C331.907 224.777 334.728 224.393 337.536 224.543C341.144 224.741 345.414 225.812 348.036 229.294L345.769 223.298C344.536 220.045 341.331 217.958 337.861 218.21C335.738 218.367 333.062 218.764 329.832 219.624C329.832 219.624 320.162 221.71 316.993 218.246L319.459 225.349Z" fill="#FFC028"/>
<path d="M330.019 195.911L333.429 204.914C333.429 204.914 332.761 208.913 326.753 213.766C324.685 215.438 322.838 217.392 321.377 219.611C320.072 221.584 319.014 223.809 319.465 225.349L317.546 220.712C316.458 218.084 316.963 215.035 318.923 212.972C319.447 212.425 320.054 211.842 320.752 211.24C322.441 209.791 324.047 208.245 325.424 206.501C327.649 203.675 330.217 199.586 330.019 195.911Z" fill="#FFDB79"/>
<path d="M96.1002 34.0015C96.1002 34.0015 98.2772 36.6777 105.867 34.2782C108.549 33.4302 111.369 33.0453 114.178 33.1957C117.786 33.3941 122.056 34.4646 124.678 37.9466L122.411 31.9508C121.178 28.6974 117.972 26.6106 114.502 26.8632C112.38 27.0195 109.703 27.4164 106.474 28.2764C106.474 28.2764 96.8038 30.3632 93.6346 26.8993L96.1002 34.0015Z" fill="#79ABE5"/>
<path d="M106.667 4.56421L110.076 13.5669C110.076 13.5669 109.409 17.566 103.401 22.4191C101.332 24.091 99.4861 26.0455 98.0248 28.2645C96.7198 30.2371 95.6613 32.4622 96.1124 34.0017L94.194 29.3651C93.1055 26.737 93.6106 23.6881 95.5711 21.6253C96.0943 21.0781 96.7017 20.4947 97.3993 19.8934C99.0892 18.444 100.695 16.8985 102.072 15.1545C104.291 12.334 106.865 8.23863 106.667 4.56421Z" fill="#90E0FB"/>
<path d="M275.438 162.974C275.438 162.974 280.754 164.892 281.295 169.222L283.069 162.974C283.069 162.974 279.28 157.748 269.977 159.816L275.438 162.974Z" fill="#FFC028"/>
<path d="M267.614 150.375C267.614 150.375 265.25 160.021 275.438 162.973C275.438 162.973 270.32 160.171 272.828 152.245L267.614 150.375Z" fill="#FFDB79"/>
<path d="M330.644 300.334C330.644 300.334 337.049 302.65 337.704 307.87L339.839 300.334C339.839 300.334 335.269 294.032 324.059 296.534L330.644 300.334Z" fill="#FFC028"/>
<path d="M321.208 285.15C321.208 285.15 318.358 296.78 330.644 300.34C330.644 300.34 324.474 296.961 327.499 287.405L321.208 285.15Z" fill="#FFDB79"/>
<path d="M148.679 50.1608C148.679 50.1608 153.995 52.0792 154.536 56.4091L156.31 50.1608C156.31 50.1608 152.516 44.9348 143.218 47.0035L148.679 50.1608Z" fill="#FFC028"/>
<path d="M140.855 37.5679C140.855 37.5679 138.492 47.214 148.679 50.1668C148.679 50.1668 143.561 47.3643 146.069 39.4382L140.855 37.5679Z" fill="#FFDB79"/>
<path d="M148.401 386L154.27 390.979C154.27 390.979 151.901 394.786 146.103 395.869C144.864 396.103 143.656 396.518 142.597 397.198C141.328 398.004 140.029 399.254 139.897 401.022C139.897 401.022 136.259 400.126 137.137 396.693C137.323 395.959 137.708 395.291 138.219 394.732C138.893 393.986 140.083 392.982 141.96 392.32C143.92 391.635 145.706 390.486 147.023 388.881C147.739 388.009 148.304 387.016 148.401 386Z" fill="#FF5554"/>
<path d="M139.891 401.023C139.891 401.023 144.137 401.78 147.378 401.023C147.378 401.023 147.414 401.017 147.487 401.005C151.125 400.343 154.432 403.368 154.06 407.048C154.042 407.199 154.024 407.355 154.005 407.511L147.829 409.514C147.829 409.514 148.124 407.62 146.302 406.405C145.827 406.086 145.273 405.9 144.714 405.792C143.157 405.485 138.388 404.144 137.287 399.032C137.281 399.026 137.846 400.379 139.891 401.023Z" fill="#FFA68E"/>
<path d="M38.3137 35.2345L44.1832 40.2139C44.1832 40.2139 41.8138 44.0206 36.0165 45.1031C34.7776 45.3377 33.5689 45.7526 32.5104 46.4322C31.2415 47.238 29.9426 48.4889 29.8103 50.2569C29.8103 50.2569 26.1719 49.3609 27.0499 45.927C27.2363 45.1933 27.6212 44.5258 28.1324 43.9665C28.8059 43.2208 29.9967 42.2165 31.873 41.555C33.8335 40.8694 35.6196 39.7208 36.9366 38.1151C37.6462 37.2431 38.2175 36.2508 38.3137 35.2345Z" fill="#FFC028"/>
<path d="M29.7984 50.2571C29.7984 50.2571 34.0441 51.0148 37.2855 50.2571C37.2855 50.2571 37.3216 50.251 37.3938 50.239C41.0321 49.5775 44.3397 52.6024 43.9668 56.2829C43.9488 56.4332 43.9308 56.5896 43.9127 56.7459L37.7366 58.7485C37.7366 58.7485 38.0312 56.8542 36.2091 55.6394C35.734 55.3207 35.1807 55.1342 34.6214 55.026C33.0638 54.7193 28.2949 53.3782 27.1944 48.2665C27.1884 48.2605 27.7537 49.6136 29.7984 50.2571Z" fill="#FFDB79"/>
<path d="M214.655 39.0582C214.655 39.0582 216.531 43.1235 212.766 48.572C211.69 50.1296 210.8 51.8135 210.307 53.6356C209.916 55.109 209.663 56.847 209.928 58.5429L205.784 49.877C205.784 49.877 205.947 48.4337 207.889 45.8959C208.659 44.8856 209.369 43.8332 209.934 42.6966C211.058 40.4354 212.454 36.8572 211.774 33.9766L214.655 39.0582Z" fill="#6565FB"/>
<path d="M192.746 34.0006C192.746 34.0006 194.112 38.2103 201.905 37.5427C202.639 37.4826 203.361 37.3623 204.082 37.218C206.085 36.8211 212.195 35.907 214.661 39.0582L211.78 33.9766C210.878 32.3889 209.164 31.4508 207.342 31.559C206.464 31.6131 205.393 31.7214 204.136 31.9319C202.242 32.2446 200.288 32.2326 198.417 31.7815C195.868 31.1621 192.831 29.6647 190.876 26.1226L192.746 34.0006Z" fill="#B3B3FF"/>
<path d="M189.361 8.78489C189.361 8.78489 199.283 7.50396 202.387 13.2892L200.985 7.08901C200.564 5.22473 199.265 3.6852 197.503 2.95152C195.549 2.13965 192.512 1.25563 188.05 0.912842L189.361 8.78489Z" fill="#B3B3FF"/>
<path d="M202.38 13.2892C202.38 13.2892 202.603 16.4885 198.784 20.4155C196.746 22.5083 195.008 24.9018 193.853 27.5839C192.963 29.6587 192.343 31.986 192.74 34.0006L190.19 26.5796C189.505 24.5891 189.794 22.388 190.984 20.65C191.417 20.0186 191.959 19.321 192.644 18.5632C193.233 17.9138 193.859 17.3064 194.508 16.717C195.831 15.5203 200.227 11.2024 200.715 6.25903L202.38 13.2892Z" fill="#6565FB"/>
<path d="M167.231 321.413C167.231 321.413 166.179 325.761 159.847 327.697C158.036 328.251 156.292 329.014 154.777 330.145C153.556 331.053 152.281 332.262 151.433 333.759L153.562 324.396C153.562 324.396 154.584 323.361 157.682 322.58C158.914 322.267 160.123 321.882 161.272 321.341C163.557 320.27 166.871 318.328 168.121 315.646L167.231 321.413Z" fill="#FF5554"/>
<path d="M153.189 303.847C153.189 303.847 151.65 307.99 158.169 312.308C158.782 312.711 159.426 313.072 160.081 313.403C161.903 314.335 167.256 317.408 167.232 321.407L168.122 315.634C168.398 313.83 167.64 312.025 166.143 310.985C165.421 310.48 164.513 309.909 163.401 309.289C161.717 308.357 160.195 307.136 159.011 305.621C157.393 303.558 155.944 300.491 156.605 296.504L153.189 303.847Z" fill="#FFA68E"/>
<path d="M166.179 281.969C166.179 281.969 174.755 287.122 173.594 293.581L176.342 287.85C177.166 286.124 177.106 284.115 176.18 282.444C175.158 280.591 173.318 278.017 170.034 274.974L166.179 281.969Z" fill="#FFA68E"/>
<path d="M173.6 293.587C173.6 293.587 171.79 296.233 166.36 296.943C163.461 297.322 160.616 298.116 158.042 299.505C156.058 300.581 154.127 302.025 153.189 303.847L155.793 296.45C156.491 294.459 158.085 292.914 160.093 292.294C160.821 292.066 161.681 291.855 162.691 291.687C163.557 291.543 164.423 291.452 165.301 291.398C167.087 291.284 173.209 290.622 176.655 287.05L173.6 293.587Z" fill="#FF5554"/>
<path d="M41.9635 382.201C41.9635 382.201 40.9486 386.147 35.1599 387.819C33.507 388.294 31.9084 388.969 30.5143 389.974C29.3869 390.785 28.2146 391.87 27.423 393.211L29.4905 384.722C29.4905 384.722 30.4349 383.793 33.2609 383.126C34.3878 382.858 35.4909 382.524 36.5455 382.05C38.6379 381.102 41.6779 379.384 42.8556 376.961L41.9635 382.201Z" fill="#FFC028"/>
<path d="M29.4293 366.029C29.4293 366.029 27.9674 369.78 33.8496 373.796C34.4011 374.176 34.9774 374.506 35.5736 374.822C37.2135 375.694 42.0436 378.564 41.9719 382.2L42.8602 376.964C43.139 375.329 42.4711 373.674 41.1251 372.708C40.475 372.239 39.6555 371.703 38.6524 371.125C37.1364 370.253 35.761 369.123 34.7093 367.729C33.2643 365.828 31.9924 363.021 32.6472 359.402L29.4293 366.029Z" fill="#FFDB79"/>
<path d="M41.5441 346.311C41.5441 346.311 49.2802 351.117 48.1342 356.974L50.7126 351.797C51.4865 350.24 51.4591 348.409 50.637 346.877C49.7301 345.182 48.0924 342.813 45.1487 340L41.5441 346.311Z" fill="#FFDB79"/>
<path d="M48.1343 356.974C48.1343 356.974 46.4526 359.358 41.5011 359.928C38.8608 360.235 36.2582 360.913 33.9 362.148C32.0818 363.101 30.3056 364.384 29.4256 366.034L31.8927 359.338C32.5563 357.535 34.0236 356.156 35.8622 355.615C36.5262 355.419 37.3113 355.237 38.2331 355.097C39.0204 354.978 39.8128 354.911 40.6078 354.869C42.2326 354.789 47.8091 354.271 50.9977 351.067L48.1343 356.974Z" fill="#FFC028"/>
<path d="M346.96 89.3948L348.421 92.3475L351.68 92.8226L349.323 95.1259L349.876 98.3734L346.96 96.8398L344.043 98.3734L344.602 95.1259L342.239 92.8226L345.504 92.3475L346.96 89.3948Z" fill="#FFDB79"/>
<path d="M214.679 102.24L216.141 105.199L219.4 105.674L217.043 107.972L217.596 111.219L214.679 109.686L211.763 111.219L212.322 107.972L209.958 105.674L213.224 105.199L214.679 102.24Z" fill="#FFDB79"/>
<path d="M150.911 11.7474L152.372 14.7002L155.632 15.1753L153.275 17.4726L153.834 20.726L150.911 19.1925L147.994 20.726L148.554 17.4726L146.19 15.1753L149.456 14.7002L150.911 11.7474Z" fill="#FFA68E"/>
<path d="M144.674 139.58L146.135 142.533L149.401 143.008L147.037 145.311L147.596 148.558L144.674 147.025L141.757 148.558L142.316 145.311L139.953 143.008L143.218 142.533L144.674 139.58Z" fill="#FFDB79"/>
<path d="M103.612 141.961L105.073 144.92L108.332 145.389L105.975 147.692L106.528 150.94L103.612 149.406L100.695 150.94L101.254 147.692L98.8908 145.389L102.156 144.92L103.612 141.961Z" fill="#FFA68E"/>
<path d="M4.72082 79.562L6.18218 82.5208L9.44165 82.9959L7.08424 85.2932L7.63751 88.5466L4.72082 87.0131L1.80414 88.5466L2.36342 85.2932L0 82.9959L3.25947 82.5208L4.72082 79.562Z" fill="#FFDB79"/>
<path d="M52.1334 220.916L53.5888 223.875L56.8542 224.344L54.4908 226.647L55.0501 229.895L52.1334 228.361L49.2107 229.895L49.77 226.647L47.4126 224.344L50.6721 223.875L52.1334 220.916Z" fill="#90E0FB"/>
<path d="M290.604 133.668C290.604 135.743 288.92 137.427 286.846 137.427C284.771 137.427 283.087 135.743 283.087 133.668C283.087 131.594 284.771 129.91 286.846 129.91C288.92 129.91 290.604 131.588 290.604 133.668Z" fill="#B3B3FF"/>
<path d="M76.8949 347.908C76.8949 349.983 75.211 351.667 73.1362 351.667C71.0615 351.667 69.3776 349.983 69.3776 347.908C69.3776 345.833 71.0615 344.149 73.1362 344.149C75.211 344.149 76.8949 345.833 76.8949 347.908Z" fill="#90E0FB"/>
<path d="M343.123 243.498C343.123 245.573 341.439 247.257 339.364 247.257C337.289 247.257 335.605 245.573 335.605 243.498C335.605 241.423 337.289 239.739 339.364 239.739C341.439 239.739 343.123 241.423 343.123 243.498Z" fill="#FFDB79"/>
<path d="M254.329 263.277C254.329 265.352 252.645 267.036 250.571 267.036C248.496 267.036 246.812 265.352 246.812 263.277C246.812 261.203 248.496 259.519 250.571 259.519C252.645 259.519 254.329 261.203 254.329 263.277Z" fill="#90E0FB"/>
<path d="M180.396 111.393C180.396 113.468 178.712 115.152 176.637 115.152C174.562 115.152 172.878 113.468 172.878 111.393C172.878 109.319 174.562 107.635 176.637 107.635C178.712 107.635 180.396 109.319 180.396 111.393Z" fill="#90E0FB"/>
<path d="M224.489 42.3248C224.489 44.3995 222.805 46.0834 220.73 46.0834C218.655 46.0834 216.971 44.3995 216.971 42.3248C216.971 40.25 218.655 38.5662 220.73 38.5662C222.805 38.5662 224.489 40.25 224.489 42.3248Z" fill="#FFDB79"/>
<path d="M65.1534 34.2484C65.1534 36.3231 63.4695 38.007 61.3948 38.007C59.32 38.007 57.6362 36.3231 57.6362 34.2484C57.6362 32.1736 59.32 30.4897 61.3948 30.4897C63.4695 30.4897 65.1534 32.1736 65.1534 34.2484Z" fill="#B3B3FF"/>
<path d="M4.7209 123.162C6.79673 123.162 8.47952 121.479 8.47952 119.404C8.47952 117.328 6.79673 115.645 4.7209 115.645C2.64507 115.645 0.96228 117.328 0.96228 119.404C0.96228 121.479 2.64507 123.162 4.7209 123.162Z" fill="#EFEFEF"/>
<path d="M321.663 67.9759C323.412 66.8579 323.924 64.5336 322.806 62.7845C321.688 61.0354 319.363 60.5238 317.614 61.6419C315.865 62.7599 315.353 65.0842 316.472 66.8333C317.59 68.5824 319.914 69.0939 321.663 67.9759Z" fill="#FFA68E"/>
<path d="M169.98 198.509C169.98 200.584 168.296 202.268 166.221 202.268C164.146 202.268 162.463 200.584 162.463 198.509C162.463 196.434 164.146 194.75 166.221 194.75C168.296 194.75 169.98 196.434 169.98 198.509Z" fill="#B3B3FF"/>
<path d="M77.9687 167.249C77.9687 169.324 76.2849 171.008 74.2101 171.008C72.1353 171.008 70.4515 169.324 70.4515 167.249C70.4515 165.175 72.1353 163.491 74.2101 163.491C76.2849 163.485 77.9687 165.169 77.9687 167.249Z" fill="#90E0FB"/>
<path d="M107.37 116.433C107.37 118.507 105.686 120.191 103.612 120.191C101.537 120.191 99.8531 118.507 99.8531 116.433C99.8531 114.358 101.537 112.674 103.612 112.674C105.686 112.674 107.37 114.358 107.37 116.433Z" fill="#B3B3FF"/>
<path d="M41.2931 84.0546C41.2931 86.1294 39.6093 87.8133 37.5345 87.8133C35.4597 87.8133 33.7759 86.1294 33.7759 84.0546C33.7759 81.9799 35.4597 80.296 37.5345 80.296C39.6093 80.296 41.2931 81.9799 41.2931 84.0546Z" fill="#FFA68E"/>
<path d="M33.575 199.91C33.575 201.985 31.8911 203.669 29.8164 203.669C27.7416 203.669 26.0577 201.985 26.0577 199.91C26.0577 197.835 27.7416 196.152 29.8164 196.152C31.8911 196.152 33.575 197.835 33.575 199.91Z" fill="#FFDB79"/>
<path d="M88.7816 234.712C88.7816 236.787 87.0977 238.471 85.023 238.471C82.9482 238.471 81.2643 236.787 81.2643 234.712C81.2643 232.637 82.9482 230.953 85.023 230.953C87.0977 230.953 88.7816 232.637 88.7816 234.712Z" fill="#FFA68E"/>
<path d="M28.5293 260.277C28.5293 262.351 26.8455 264.035 24.7707 264.035C22.6959 264.035 21.0121 262.351 21.0121 260.277C21.0121 258.202 22.6959 256.518 24.7707 256.518C26.8455 256.512 28.5293 258.196 28.5293 260.277Z" fill="#90E0FB"/>
<path d="M76.4291 300.298C76.4291 302.373 74.7452 304.057 72.6705 304.057C70.5957 304.057 68.9119 302.373 68.9119 300.298C68.9119 298.224 70.5957 296.54 72.6705 296.54C74.7452 296.54 76.4291 298.224 76.4291 300.298Z" fill="#B3B3FF"/>
<path d="M143.718 282.275C143.718 284.35 142.034 286.034 139.959 286.034C137.884 286.034 136.2 284.35 136.2 282.275C136.2 280.2 137.884 278.516 139.959 278.516C142.034 278.516 143.718 280.2 143.718 282.275Z" fill="#90E0FB"/>
<path d="M210.212 322.152C212.288 322.152 213.971 320.47 213.971 318.394C213.971 316.318 212.288 314.635 210.212 314.635C208.136 314.635 206.453 316.318 206.453 318.394C206.453 320.47 208.136 322.152 210.212 322.152Z" fill="#EFEFEF"/>
<path d="M315.429 300.557C315.429 302.632 313.745 304.316 311.671 304.316C309.596 304.316 307.912 302.632 307.912 300.557C307.912 298.482 309.596 296.798 311.671 296.798C313.745 296.798 315.429 298.482 315.429 300.557Z" fill="#B3B3FF"/>
<path d="M394.456 261.197C394.456 263.272 392.773 264.955 390.698 264.955C388.623 264.955 386.939 263.272 386.939 261.197C386.939 259.122 388.623 257.438 390.698 257.438C392.779 257.438 394.456 259.116 394.456 261.197Z" fill="#FFA68E"/>
<path d="M470.928 259.098C470.928 261.173 469.244 262.856 467.169 262.856C465.095 262.856 463.411 261.173 463.411 259.098C463.411 257.023 465.095 255.339 467.169 255.339C469.244 255.339 470.928 257.017 470.928 259.098Z" fill="#B3B3FF"/>
<path d="M276.628 86.1534C276.628 88.2282 274.944 89.912 272.87 89.912C270.795 89.912 269.111 88.2282 269.111 86.1534C269.111 84.0786 270.795 82.3948 272.87 82.3948C274.944 82.3948 276.628 84.0786 276.628 86.1534Z" fill="#FFA68E"/>
<path d="M367.232 316.199C367.232 318.274 365.548 319.957 363.473 319.957C361.399 319.957 359.715 318.274 359.715 316.199C359.715 314.124 361.399 312.44 363.473 312.44C365.548 312.44 367.232 314.124 367.232 316.199Z" fill="#FFA68E"/>
<path d="M407.446 112.674C407.446 114.749 405.762 116.433 403.688 116.433C401.613 116.433 399.929 114.749 399.929 112.674C399.929 110.599 401.613 108.915 403.688 108.915C405.762 108.915 407.446 110.593 407.446 112.674Z" fill="#FFA68E"/>
<path d="M450.078 181.219C452.154 181.219 453.837 179.537 453.837 177.461C453.837 175.385 452.154 173.702 450.078 173.702C448.002 173.702 446.319 175.385 446.319 177.461C446.319 179.537 448.002 181.219 450.078 181.219Z" fill="#EFEFEF"/>
<path d="M453.837 175.302C453.837 177.377 452.153 179.06 450.078 179.06C448.003 179.06 446.319 177.377 446.319 175.302C446.319 173.227 448.003 171.543 450.078 171.543C452.153 171.543 453.837 173.227 453.837 175.302Z" fill="#FFA68E"/>
<path d="M358.951 164.405C358.951 166.479 357.267 168.163 355.192 168.163C353.118 168.163 351.434 166.479 351.434 164.405C351.434 162.33 353.118 160.646 355.192 160.646C357.267 160.646 358.951 162.324 358.951 164.405Z" fill="#B3B3FF"/>
<path d="M203.308 249.149C203.308 251.224 201.624 252.908 199.549 252.908C197.475 252.908 195.791 251.224 195.791 249.149C195.791 247.075 197.475 245.391 199.549 245.391C201.624 245.391 203.308 247.075 203.308 249.149Z" fill="#FFA68E"/>
<path d="M286.779 23.1493C287.127 21.103 285.751 19.1615 283.705 18.813C281.658 18.4645 279.717 19.8408 279.368 21.8872C279.02 23.9335 280.396 25.8749 282.443 26.2235C284.489 26.572 286.43 25.1957 286.779 23.1493Z" fill="#90E0FB"/>
<path d="M416.725 23.9105C418.801 23.9105 420.484 22.2278 420.484 20.1519C420.484 18.0761 418.801 16.3933 416.725 16.3933C414.65 16.3933 412.967 18.0761 412.967 20.1519C412.967 22.2278 414.65 23.9105 416.725 23.9105Z" fill="#FFDB79"/>
<path d="M465.558 292.017L467.013 294.976L470.278 295.451L467.915 297.748L468.474 301.002L465.558 299.468L462.635 301.002L463.194 297.748L460.837 295.451L464.096 294.976L465.558 292.017Z" fill="#FFDB79"/>
<path d="M420.905 280.946L422.36 283.899L425.626 284.374L423.263 286.677L423.822 289.925L420.905 288.391L417.982 289.925L418.542 286.677L416.184 284.374L419.444 283.899L420.905 280.946Z" fill="#B3B3FF"/>
<path d="M283.057 312.915L284.512 315.874L287.778 316.349L285.415 318.646L285.974 321.9L283.057 320.366L280.134 321.9L280.694 318.646L278.33 316.349L281.596 315.874L283.057 312.915Z" fill="#FFDB79"/>
<path d="M195.135 300.425L196.597 303.383L199.856 303.852L197.499 306.156L198.052 309.403L195.135 307.87L192.219 309.403L192.778 306.156L190.415 303.852L193.68 303.383L195.135 300.425Z" fill="#FFDB79"/>
<path d="M102.211 273.297L103.672 276.255L106.931 276.724L104.574 279.028L105.133 282.275L102.211 280.742L99.2938 282.275L99.8531 279.028L97.4897 276.724L100.755 276.255L102.211 273.297Z" fill="#FFDB79"/>
<path d="M34.0862 303.227L35.5475 306.186L38.807 306.661L36.4496 308.958L37.0089 312.211L34.0862 310.672L31.1695 312.211L31.7288 308.958L29.3654 306.661L32.6308 306.186L34.0862 303.227Z" fill="#B3B3FF"/>
<path d="M115.928 47.3282L117.389 50.287L120.649 50.7621L118.291 53.0594L118.844 56.3068L115.928 54.7733L113.011 56.3068L113.57 53.0594L111.207 50.7621L114.472 50.287L115.928 47.3282Z" fill="#FFA68E"/>
<path d="M19.1841 20.7715L20.6394 23.7303L23.9049 24.2054L21.5415 26.5026L22.1008 29.7561L19.1841 28.2166L16.2674 29.7561L16.8207 26.5026L14.4633 24.2054L17.7227 23.7303L19.1841 20.7715Z" fill="#90E0FB"/>
<path d="M461.125 119.674L462.587 122.627L465.846 123.102L463.489 125.405L464.042 128.653L461.125 127.119L458.209 128.653L458.768 125.405L456.404 123.102L459.67 122.627L461.125 119.674Z" fill="#FFA68E"/>
<path d="M239.337 147.765L242.644 154.464L250.035 155.54L244.689 160.754L245.952 168.115L239.337 164.639L232.728 168.115L233.991 160.754L228.644 155.54L236.035 154.464L239.337 147.765Z" fill="#90E0FB"/>
<path d="M90.3201 378.528L93.6276 385.222L101.019 386.298L95.6723 391.512L96.9352 398.873L90.3201 395.397L83.7109 398.873L84.9738 391.512L79.6215 386.298L87.0185 385.222L90.3201 378.528Z" fill="#FFA68E"/>
<path d="M349.046 41.5973L351.999 47.569L358.596 48.5312L353.821 53.1798L354.946 59.7469L349.046 56.6498L343.153 59.7469L344.277 53.1798L339.502 48.5312L346.1 47.569L349.046 41.5973Z" fill="#B3B3FF"/>
<path d="M126.65 304.917L129.603 310.889L136.194 311.851L131.425 316.5L132.55 323.073L126.65 319.969L120.751 323.073L121.881 316.5L117.107 311.851L123.704 310.889L126.65 304.917Z" fill="#FFDB79"/>
<path d="M256.53 284.506L259.477 290.484L266.074 291.44L261.305 296.095L262.43 302.662L256.53 299.559L250.631 302.662L251.755 296.095L246.986 291.44L253.584 290.484L256.53 284.506Z" fill="#B3B3FF"/>
<path d="M354.338 267.962L357.291 273.94L363.882 274.896L359.113 279.551L360.238 286.118L354.338 283.015L348.439 286.118L349.57 279.551L344.795 274.896L351.392 273.94L354.338 267.962Z" fill="#90E0FB"/>
<path d="M432.55 236L435.497 241.978L442.094 242.934L437.319 247.589L438.443 254.156L432.55 251.053L426.65 254.156L427.775 247.589L423 242.934L429.597 241.978L432.55 236Z" fill="#FFDB79"/>
<path d="M42.407 106.281L45.3538 112.259L51.9509 113.215L47.176 117.87L48.3066 124.437L42.407 121.334L36.5075 124.437L37.6321 117.87L32.8632 113.215L39.4543 112.259L42.407 106.281Z" fill="#B3B3FF"/>
<path d="M434.875 85.8945L437.822 91.8722L444.419 92.8284L439.65 97.4831L440.775 104.05L434.875 100.947L428.976 104.05L430.1 97.4831L425.331 92.8284L431.928 91.8722L434.875 85.8945Z" fill="#FFDB79"/>
<path d="M145.311 223.244L146.766 226.202L150.032 226.672L147.669 228.975L148.228 232.222L145.311 230.689L142.394 232.222L142.948 228.975L140.59 226.672L143.85 226.202L145.311 223.244Z" fill="#FFDB79"/>
<path d="M59.9335 125.441L61.3888 128.394L64.6543 128.869L62.2909 131.173L62.8502 134.42L59.9335 132.886L57.0108 134.42L57.5701 131.173L55.2126 128.869L58.4721 128.394L59.9335 125.441Z" fill="#FFDB79"/>
<path d="M184.9 25.9973L186.361 28.9561L189.621 29.4312L187.263 31.7285L187.817 34.9759L184.9 33.4424L181.983 34.9759L182.543 31.7285L180.179 29.4312L183.445 28.9561L184.9 25.9973Z" fill="#90E0FB"/>
<path d="M280.133 182.738L281.594 185.697L284.854 186.172L282.496 188.469L283.05 191.723L280.133 190.189L277.216 191.723L277.776 188.469L275.412 186.172L278.678 185.697L280.133 182.738Z" fill="#B3B3FF"/>
<path d="M266.465 45.4943L267.926 48.447L271.186 48.9221L268.828 51.2254L269.382 54.4728L266.465 52.9393L263.548 54.4728L264.108 51.2254L261.744 48.9221L265.004 48.447L266.465 45.4943Z" fill="#B3B3FF"/>
<path d="M326.867 23.3273L328.329 26.2861L331.588 26.7551L329.231 29.0584L329.784 32.3059L326.867 30.7723L323.951 32.3059L324.51 29.0584L322.147 26.7551L325.412 26.2861L326.867 23.3273Z" fill="#FFDB79"/>
<path d="M235.097 16.3273L236.558 19.2861L239.818 19.7611L237.46 22.0584L238.02 25.3059L235.097 23.7723L232.18 25.3059L232.74 22.0584L230.376 19.7611L233.642 19.2861L235.097 16.3273Z" fill="#FFA68E"/>
<path d="M93.8152 186.331L95.2705 189.284L98.536 189.759L96.1726 192.062L96.7319 195.31L93.8152 193.776L90.8985 195.31L91.4518 192.062L89.0944 189.759L92.3538 189.284L93.8152 186.331Z" fill="#B3B3FF"/>
<path d="M17.1936 141.029L18.6489 143.982L21.9144 144.457L19.551 146.761L20.1103 150.008L17.1936 148.474L14.2709 150.008L14.8302 146.761L12.4728 144.457L15.7323 143.982L17.1936 141.029Z" fill="#B3B3FF"/>
<path d="M470.8 81.4847L471.932 90.1493C471.932 90.1493 467.03 91.5385 461.331 88.019C460.111 87.2687 458.777 86.6985 457.365 86.4555C455.682 86.1702 453.633 86.2261 452.175 87.6074C452.175 87.6074 449.796 84.0732 453.163 81.8594C453.882 81.3906 454.716 81.1164 455.572 81.0327C456.707 80.9271 458.477 80.9826 460.559 81.866C462.731 82.7834 465.109 83.18 467.443 82.838C468.707 82.6623 469.944 82.2666 470.8 81.4847Z" fill="#FF5554"/>
<path d="M452.175 87.6161C452.175 87.6161 455.167 91.4955 458.47 93.3335C458.47 93.3335 458.509 93.3529 458.575 93.3966C462.143 95.622 462.612 100.687 459.482 103.498C459.351 103.615 459.221 103.732 459.077 103.845L452.354 100.809C452.354 100.809 454.05 99.4422 453.441 97.0278C453.283 96.3968 452.965 95.816 452.574 95.2984C451.5 93.8514 448.517 89.0861 451.492 83.9408C451.505 83.9444 450.95 85.5122 452.175 87.6161Z" fill="#FFA68E"/>
<path d="M445.586 263.711L450.505 267.884C450.505 267.884 448.514 271.077 443.655 271.986C442.615 272.178 441.605 272.533 440.715 273.098C439.65 273.778 438.562 274.824 438.453 276.303C438.453 276.303 435.398 275.552 436.138 272.671C436.294 272.058 436.619 271.492 437.046 271.023C437.611 270.398 438.61 269.556 440.185 269.003C441.827 268.425 443.325 267.463 444.431 266.122C445.026 265.394 445.502 264.565 445.586 263.711Z" fill="#FF5554"/>
<path d="M438.447 276.309C438.447 276.309 442.008 276.941 444.726 276.309C444.726 276.309 444.756 276.303 444.816 276.291C447.871 275.738 450.643 278.276 450.325 281.361C450.313 281.487 450.295 281.62 450.276 281.752L445.099 283.43C445.099 283.43 445.345 281.842 443.818 280.826C443.421 280.561 442.958 280.399 442.489 280.309C441.184 280.05 437.184 278.925 436.264 274.644C436.258 274.632 436.733 275.768 438.447 276.309Z" fill="#FFA68E"/>
<path d="M251.581 108.693L253.036 111.646L256.302 112.121L253.938 114.424L254.498 117.672L251.581 116.138L248.664 117.672L249.217 114.424L246.86 112.121L250.119 111.646L251.581 108.693Z" fill="#FFA68E"/>
<path d="M396.808 148.131L398.269 151.09L401.529 151.565L399.171 153.863L399.731 157.116L396.808 155.577L393.891 157.116L394.45 153.863L392.087 151.565L395.353 151.09L396.808 148.131Z" fill="#FFDB79"/>
<path d="M310.161 250.823L311.617 253.782L314.882 254.257L312.519 256.554L313.078 259.808L310.161 258.274L307.245 259.808L307.798 256.554L305.44 254.257L308.7 253.782L310.161 250.823Z" fill="#B3B3FF"/>
<path d="M307.714 187.684L309.169 190.643L312.434 191.112L310.071 193.415L310.63 196.663L307.714 195.129L304.791 196.663L305.35 193.415L302.993 191.112L306.252 190.643L307.714 187.684Z" fill="#90E0FB"/>
<path d="M405.955 322.85C405.955 322.85 409.383 324.197 413.298 322.11L411.512 318.755C411.512 318.755 406.039 320.462 403.585 318.394L405.955 322.85Z" fill="#FFC028"/>
<path d="M416.924 307.196C416.924 307.196 418.506 311.22 410.988 315.225C410.988 315.225 404.999 318.653 405.955 322.85L403.579 318.394C402.599 316.554 403.044 314.281 404.65 312.952C405.51 312.242 406.652 311.478 408.168 310.763C409.635 310.071 411.012 309.169 412.161 308.02C413.544 306.631 414.837 304.713 414.47 302.602L416.924 307.196Z" fill="#FFDB79"/>
<path d="M389.916 312.127C389.916 312.127 393.001 315.267 407.543 307.719C408.469 307.238 409.437 306.835 410.447 306.565C412.372 306.048 415.246 305.651 416.924 307.202L414.476 302.602C413.52 300.803 411.451 299.925 409.491 300.455C408.18 300.809 406.61 301.369 404.963 302.247C404.963 302.247 391.221 310.738 387.763 304.845L389.916 312.127Z" fill="#FFC028"/>
<path d="M399.67 285.516C399.67 285.516 391.413 292.234 387.703 299.763C386.38 302.451 386.446 305.615 387.853 308.255L389.916 312.127C389.916 312.127 388.052 300.316 402.683 291.169L399.67 285.516Z" fill="#FFDB79"/>
</svg>
