<svg width="25" height="26" viewBox="0 0 25 26" fill="none" xmlns="http://www.w3.org/2000/svg"><path d="M0 12.664C0 5.761 5.596.164 12.5.164S25 5.761 25 12.664v.774c0 6.904-5.596 12.5-12.5 12.5S0 20.342 0 13.438v-.774z" fill="#627EEA"/><path d="M12.5 3.846v6.804l5.58 2.57-5.58-9.374z" fill="#fff" fill-opacity=".6"/><path d="M12.5 3.846L6.92 13.22l5.58-2.57V3.846z" fill="#fff"/><path d="M12.5 17.63v4.626l5.58-7.962-5.58 3.337z" fill="#fff" fill-opacity=".6"/><path d="M12.5 22.256v-4.625l-5.58-3.337 5.58 7.962z" fill="#fff"/><path d="M12.5 16.557l5.58-3.337-5.58-2.57v5.907z" fill="#fff" fill-opacity=".2"/><path d="M6.92 13.22l5.58 3.337V10.65l-5.58 2.57z" fill="#fff" fill-opacity=".6"/></svg>