<svg width="100" height="100" viewBox="0 0 100 100" fill="none" xmlns="http://www.w3.org/2000/svg"><path d="M71.569 42.574c-15.703 0-28.432 12.855-28.432 28.713S55.867 100 71.57 100C87.27 100 100 87.145 100 71.287c-.018-15.85-12.737-28.695-28.431-28.713zm0 54.048c-13.855 0-25.087-11.343-25.087-25.335S57.714 45.952 71.57 45.952c13.854 0 25.086 11.343 25.086 25.335-.016 13.986-11.238 25.32-25.086 25.335z" fill="#fff"/><path d="M71.569 49.881c-11.37 0-20.589 9.292-20.589 20.754 0 11.462 9.218 20.753 20.589 20.753 11.37 0 20.588-9.291 20.588-20.753-.013-11.457-9.223-20.74-20.588-20.754zm0 38.314c-9.622 0-17.421-7.862-17.421-17.56 0-9.699 7.8-17.56 17.42-17.56 9.622 0 17.422 7.861 17.422 17.56-.012 9.693-7.805 17.549-17.421 17.56z" fill="#fff"/><path d="M81.07 64.25c0-2.646-2.126-4.79-4.75-4.79h-1.584v-3.193H71.57v3.193h-1.571l.025-3.18-3.167-.026-.026 3.206h-4.764v3.193h3.168v15.964h-3.168v3.193h4.764l.026 3.205 3.167-.025-.025-3.18h1.57v3.192h3.168V81.81h1.584c2.624 0 4.75-2.145 4.75-4.79v-3.192a4.78 4.78 0 00-1.234-3.193 4.78 4.78 0 001.235-3.193v-3.193zm-3.166 12.77a1.59 1.59 0 01-1.584 1.597H68.4V72.23h7.919a1.59 1.59 0 011.584 1.597v3.192zm0-9.578a1.59 1.59 0 01-1.584 1.596H68.4v-6.385h7.919a1.59 1.59 0 011.584 1.596v3.193zM27.777 6.6c-11.731 0-21.241 9.605-21.241 21.453 0 11.848 9.51 21.452 21.242 21.452 11.725-.014 21.228-9.61 21.241-21.452C49.02 16.205 39.51 6.6 27.778 6.6zm0 39.605c-9.921-.012-17.962-8.132-17.973-18.152C9.804 18.028 17.85 9.9 27.778 9.9c9.926 0 17.973 8.127 17.973 18.152s-8.047 18.152-17.973 18.152z" fill="#fff"/><path d="M27.778 0C12.437 0 0 12.56 0 28.053s12.437 28.053 27.778 28.053c15.334-.018 27.76-12.567 27.778-28.053C55.556 12.56 43.119 0 27.778 0zm0 52.805c-13.53-.015-24.495-11.088-24.51-24.752 0-13.67 10.973-24.753 24.51-24.753 13.536 0 24.51 11.082 24.51 24.753 0 13.67-10.974 24.752-24.51 24.752z" fill="#fff"/><path d="M27.778 26.403c-2.657 0-4.902-1.512-4.902-3.3 0-1.79 2.245-3.3 4.902-3.3s4.902 1.51 4.902 3.3c0 .91.731 1.65 1.634 1.65.902 0 1.634-.74 1.634-1.65 0-3.189-2.812-5.854-6.536-6.468v-3.434h-3.268v3.434c-3.724.614-6.536 3.28-6.536 6.467 0 3.64 3.665 6.601 8.17 6.601 2.657 0 4.902 1.512 4.902 3.3 0 1.79-2.245 3.3-4.902 3.3s-4.902-1.51-4.902-3.3c0-.91-.732-1.65-1.634-1.65-.902 0-1.634.74-1.634 1.65 0 3.188 2.812 5.853 6.536 6.467v3.434h3.268V39.47c3.724-.614 6.536-3.279 6.536-6.467 0-3.64-3.665-6.6-8.17-6.6zm42.484-9.901h-7.494l4.142-4.185-2.31-2.333-8.087 8.168L64.6 26.32l2.31-2.333-4.142-4.185h7.494c8.118.01 14.696 6.653 14.705 14.852v8.25h3.268v-8.25c-.011-10.02-8.052-18.14-17.973-18.152zM31.805 72.69l-2.31 2.333 4.142 4.185h-5.86c-8.117-.01-14.696-6.653-14.705-14.852v-8.25H9.804v8.25c.011 10.02 8.052 18.14 17.974 18.152h5.859l-4.142 4.185 2.31 2.333 8.087-8.168-8.087-8.168z" fill="#fff"/></svg>