<svg width="100" height="101" viewBox="0 0 100 101" fill="none" xmlns="http://www.w3.org/2000/svg"><path d="M100 50.471a49.525 49.525 0 00-5.943-23.575l.025-.01-1.025-1.756c-.025-.044-.056-.087-.081-.128-.5-.832-1.01-1.654-1.554-2.453-.166-.247-.348-.489-.521-.733a53.91 53.91 0 00-1.3-1.764c-.095-.12-.167-.246-.27-.366-.145-.183-.299-.357-.445-.539-.19-.236-.38-.469-.575-.702a78.262 78.262 0 00-1.167-1.352 47.516 47.516 0 00-1.71-1.805l-.18-.18a51.542 51.542 0 00-1.938-1.82c-.176-.153-.371-.343-.563-.499l-.47-.394.053-.029-1.835-1.397a49.86 49.86 0 00-3.263-2.314c-.108-.072-.218-.14-.333-.211a50.11 50.11 0 00-6.253-3.407l-.423-.192a49.91 49.91 0 00-40.44 0l-.436.198a50.027 50.027 0 00-6.213 3.374l-.391.251a53.567 53.567 0 00-3.25 2.306l-1.827 1.386.054.028c-.155.131-.305.251-.464.388-.186.166-.366.332-.551.499-.185.166-.36.32-.539.486-.479.436-.95.885-1.413 1.344l-.188.188c-.492.494-.975 1-1.448 1.515l-.245.271a49.71 49.71 0 00-1.73 2.027c-.157.193-.32.379-.474.574-.101.13-.188.264-.29.394a48.206 48.206 0 00-1.274 1.73c-.177.25-.362.5-.532.747-.543.8-1.057 1.62-1.553 2.452-.025.042-.057.085-.082.128l-1.025 1.757.025.01a49.73 49.73 0 000 47.15l-.025.01 1.025 1.757c.025.043.057.087.082.128.5.832 1.01 1.654 1.553 2.452.167.248.348.49.522.734a52.65 52.65 0 001.3 1.763c.094.12.174.247.27.366.144.183.298.358.444.54a46.054 46.054 0 002.019 2.348c.472.516.952 1.02 1.441 1.511l.18.18a48.346 48.346 0 001.938 1.82c.177.153.372.342.564.499l.47.394-.054.028 1.82 1.391a49.876 49.876 0 003.263 2.314c.109.072.219.14.334.21a49.889 49.889 0 006.264 3.409l.423.19a49.757 49.757 0 0020.227 4.288c.357 0 .71-.01 1.054-.027a49.727 49.727 0 0019.165-4.25l.437-.198a50.02 50.02 0 006.213-3.374l.391-.251a52.434 52.434 0 003.25-2.306l1.82-1.39-.053-.029c.155-.131.305-.251.463-.388.187-.166.367-.332.552-.499.184-.166.36-.32.538-.486.479-.436.95-.885 1.413-1.344l.188-.188a49.45 49.45 0 001.449-1.515l.245-.271a49.546 49.546 0 001.73-2.027c.156-.193.32-.379.473-.574.102-.13.188-.264.29-.394a48.14 48.14 0 001.275-1.73c.176-.25.361-.5.531-.747.544-.8 1.057-1.62 1.554-2.452.025-.042.056-.085.081-.128l1.025-1.757-.025-.01A49.528 49.528 0 00100 50.47zm-9.16-22.508a46.205 46.205 0 015.785 20.845H84.971a67.73 67.73 0 00-2.945-18.438 104.96 104.96 0 008.815-2.407zM79.022 14.035c.167.128.334.251.486.381.151.13.306.256.46.384.353.298.703.6 1.046.907.205.176.403.356.602.537.416.386.833.776 1.233 1.175.088.086.175.174.263.263.427.429.846.867 1.257 1.314l.342.38c.333.377.666.763 1 1.152a58.328 58.328 0 011.878 2.38c.306.415.606.835.898 1.26.102.148.203.293.301.44.099.149.187.292.282.437-2.581.807-5.315 1.512-8.126 2.144a53.364 53.364 0 00-5.818-11.407 57.68 57.68 0 003.897-1.747zm-9.339 54.334a26.445 26.445 0 006.901-16.234h5.057a64.739 64.739 0 01-2.862 17.74 129.268 129.268 0 00-9.096-1.506zm8.008 4.698a49.144 49.144 0 01-5.718 10.903 67.155 67.155 0 00-20.302-3.519V77.02c.275-.019.548-.03.822-.057.311-.028.616-.077.925-.116.5-.065 1-.137 1.5-.228.363-.069.721-.148 1.08-.232.434-.1.866-.21 1.296-.332.36-.104.718-.207 1.073-.333.442-.145.873-.31 1.307-.478.313-.123.631-.237.94-.37a27.543 27.543 0 001.701-.82c.145-.076.297-.14.44-.219.718-.39 1.42-.818 2.102-1.276.111-.075.215-.158.333-.234.46-.32.92-.64 1.36-.987 3.845.416 7.558 1.015 11.14 1.729zm-1.107-24.26a26.446 26.446 0 00-6.9-16.233c3.124-.402 6.165-.913 9.095-1.507a64.74 64.74 0 012.862 17.74h-5.057zm-8.2-41.115c.422.181.844.367 1.264.562.618.286 1.228.592 1.833.907.405.21.809.419 1.207.64.605.333 1.2.7 1.791 1.066.382.237.767.466 1.142.714.12.078.232.167.35.246-.943.43-1.915.804-2.883 1.18a38.98 38.98 0 00-5.441-5.611c.245.1.493.19.736.296zM51.67 3.953h.067c6.824.554 13.079 4.298 18.087 10.23a65.6 65.6 0 01-18.154 2.913V3.953zm-.013 16.538a67.155 67.155 0 0020.302-3.518 49.115 49.115 0 015.704 10.895c-3.566.712-7.28 1.31-11.127 1.729-.44-.348-.9-.666-1.36-.987-.11-.077-.213-.166-.334-.235a26.554 26.554 0 00-2.101-1.276c-.145-.078-.297-.143-.442-.218a26.184 26.184 0 00-1.7-.818c-.308-.135-.626-.25-.941-.373-.434-.166-.865-.332-1.305-.477-.353-.118-.713-.221-1.073-.333-.43-.122-.863-.233-1.297-.333a20.714 20.714 0 00-1.08-.23c-.5-.092-1-.167-1.5-.229-.308-.04-.613-.088-.925-.116-.273-.027-.546-.039-.821-.057v-3.424zM48.324 3.967h.013v13.13a65.6 65.6 0 01-18.154-2.914c5-5.922 11.241-9.662 18.054-10.216h.087zm-29.957 44.84a64.736 64.736 0 012.862-17.74c2.936.594 5.973 1.105 9.096 1.506a26.453 26.453 0 00-6.901 16.235h-5.057zM30.325 68.37c-3.125.402-6.166.913-9.096 1.507a64.735 64.735 0 01-2.862-17.74h5.056a26.446 26.446 0 006.902 16.233zm-8.008-40.493a49.144 49.144 0 015.718-10.903 67.155 67.155 0 0020.302 3.518v3.433c-.275.018-.548.03-.822.056-.311.028-.616.077-.925.116-.5.065-1 .137-1.5.229-.363.068-.721.148-1.08.23-.434.1-.866.211-1.296.333-.36.104-.718.207-1.073.333-.44.145-.874.31-1.305.478-.315.123-.633.237-.942.37-.576.252-1.141.53-1.7.82-.145.076-.298.14-.441.219-.719.39-1.42.818-2.102 1.276-.112.075-.215.158-.333.234-.46.32-.92.64-1.36.987a126.733 126.733 0 01-11.141-1.729zm2.056-16.288c.402-.266.814-.51 1.222-.764a44.884 44.884 0 011.702-1.01c.423-.236.853-.459 1.283-.682.58-.3 1.167-.592 1.755-.866.44-.205.881-.4 1.333-.59.23-.097.465-.184.698-.279a38.876 38.876 0 00-5.448 5.61c-.968-.376-1.94-.75-2.884-1.18.114-.076.225-.163.34-.24zm-13.16 13.026c.103-.155.211-.31.318-.464a42.288 42.288 0 011.395-1.917c.25-.326.504-.648.761-.966a48.166 48.166 0 011.625-1.91l.319-.351c.41-.444.831-.884 1.261-1.321l.275-.273a57.92 57.92 0 011.215-1.164c.208-.19.417-.38.627-.564.333-.3.675-.593 1.018-.882.167-.131.318-.27.475-.396.157-.126.32-.251.48-.378a57.92 57.92 0 003.895 1.747 53.45 53.45 0 00-5.816 11.408c-2.81-.633-5.543-1.331-8.127-2.145.095-.136.184-.283.279-.424zm-2.04 3.349a102.2 102.2 0 008.808 2.407 67.73 67.73 0 00-2.945 18.438H3.382a46.206 46.206 0 015.79-20.845zM9.166 72.98a46.206 46.206 0 01-5.784-20.845h11.654a67.729 67.729 0 002.945 18.438 104.955 104.955 0 00-8.815 2.407zm11.82 13.928c-.167-.128-.334-.251-.486-.381-.151-.13-.306-.256-.46-.384a45.525 45.525 0 01-1.046-.907 26.695 26.695 0 01-.602-.537 45.56 45.56 0 01-1.233-1.175l-.263-.263a45.922 45.922 0 01-1.257-1.314l-.342-.38a38.424 38.424 0 01-1-1.152c-.215-.26-.43-.52-.641-.784a46.867 46.867 0 01-2.135-2.856c-.102-.148-.203-.293-.302-.44-.098-.149-.186-.292-.281-.437 2.581-.807 5.314-1.512 8.126-2.144a53.364 53.364 0 005.818 11.407 57.657 57.657 0 00-3.897 1.747zm10.64 6.345c-.425-.183-.848-.37-1.268-.564a52.08 52.08 0 01-1.833-.905c-.405-.211-.81-.42-1.208-.644-.605-.332-1.2-.698-1.792-1.064-.382-.237-.766-.466-1.141-.714-.12-.078-.232-.166-.35-.246.943-.43 1.914-.804 2.883-1.18a38.987 38.987 0 005.441 5.611c-.242-.1-.49-.19-.732-.294zm16.71 3.737h-.066c-6.824-.554-13.079-4.298-18.087-10.23a65.592 65.592 0 0118.154-2.913V96.99zm.014-16.53a67.158 67.158 0 00-20.302 3.518 49.102 49.102 0 01-5.71-10.903 127.51 127.51 0 0111.133-1.728c.44.347.9.665 1.36.986.11.077.213.166.333.235.682.457 1.384.885 2.102 1.276.143.078.295.143.44.218.56.29 1.125.569 1.703.82.307.133.623.248.937.37.433.165.866.332 1.308.478.355.118.713.221 1.073.333a30.816 30.816 0 002.377.563c.5.092 1 .167 1.5.229.308.04.613.088.925.116.273.027.546.038.821.057v3.432zm1.657-6.701c-.745 0-1.48-.043-2.208-.112-.287-.028-.572-.075-.859-.113a23.6 23.6 0 01-1.286-.196c-.334-.065-.667-.145-1-.223a22.047 22.047 0 01-1.097-.283 23.764 23.764 0 01-2.062-.704c-.31-.121-.62-.246-.924-.38a22.027 22.027 0 01-1.11-.535c-.264-.133-.529-.264-.787-.407a23.98 23.98 0 01-1.208-.734c-.2-.128-.407-.248-.605-.382-.443-.305-.87-.633-1.29-.965-.145-.115-.297-.218-.44-.333-9.915-8.184-11.306-22.842-3.107-32.74a23.274 23.274 0 013.107-3.101c.143-.118.295-.221.44-.333.42-.332.847-.665 1.29-.965.198-.134.405-.254.605-.382.397-.255.797-.5 1.208-.734.258-.143.523-.274.787-.407.365-.187.733-.368 1.11-.535.305-.134.615-.259.925-.38.35-.14.704-.269 1.061-.39.334-.111.667-.218 1-.314.334-.097.728-.197 1.097-.283.333-.078.666-.158 1-.223a23.6 23.6 0 011.286-.196c.287-.038.572-.085.859-.113a22.41 22.41 0 012.204-.115c.745 0 1.48.043 2.209.111.286.029.571.075.858.113.431.057.861.117 1.286.197.334.065.667.145 1 .223.369.086.735.178 1.097.283a23.89 23.89 0 012.061.704c.31.12.62.245.925.38.377.167.745.348 1.11.534.264.133.529.265.787.408.412.23.812.479 1.208.733.2.129.407.248.605.383.444.305.87.632 1.29.965.145.115.297.218.44.333 9.915 8.184 11.306 22.842 3.107 32.74a23.286 23.286 0 01-3.107 3.1l.003.004c-.143.118-.294.221-.44.333-.42.332-.846.665-1.29.965-.198.134-.404.254-.604.382-.397.255-.797.5-1.209.734-.258.143-.523.274-.786.407-.365.187-.733.368-1.11.535-.305.134-.615.259-.925.38a24.003 24.003 0 01-2.062.704c-.361.105-.728.197-1.096.283-.334.078-.667.158-1 .223-.425.08-.855.14-1.287.196-.286.038-.571.085-.858.113-.728.069-1.463.112-2.208.112zm1.676 23.217h-.013V83.847a65.593 65.593 0 0118.154 2.913c-5 5.922-11.241 9.662-18.054 10.216h-.087zm23.955-7.62c-.401.264-.813.51-1.223.763-.562.346-1.125.689-1.7 1.01-.421.236-.851.459-1.281.682-.582.3-1.167.592-1.758.866-.439.205-.88.4-1.334.59-.23.098-.465.184-.698.279a38.88 38.88 0 005.441-5.61c.969.376 1.94.75 2.885 1.18-.112.076-.222.163-.337.24h.005zm13.156-13.027c-.103.155-.212.31-.318.464a46.113 46.113 0 01-1.395 1.917 47.024 47.024 0 01-1.348 1.68c-.34.404-.686.802-1.038 1.196l-.319.351c-.41.444-.831.884-1.261 1.321l-.275.273a57.92 57.92 0 01-1.215 1.164c-.209.19-.417.38-.627.564-.333.3-.675.593-1.018.882-.159.131-.319.27-.475.396-.157.126-.32.251-.48.378a57.946 57.946 0 00-3.895-1.747 53.447 53.447 0 005.816-11.406c2.81.632 5.543 1.331 8.127 2.144-.095.135-.184.282-.279.423zm2.04-3.349a102.008 102.008 0 00-8.808-2.407h.005a67.73 67.73 0 002.94-18.438h11.654a46.207 46.207 0 01-5.79 20.845z" fill="#fff"/><path d="M61 43.659a5.498 5.498 0 00-5.5-5.497h-1.833v-3.664H50v3.664h-1.819l.03-3.65-3.667-.029-.03 3.68H39v3.664h3.667v18.322H39v3.664h5.515l.029 3.68 3.667-.03-.03-3.65h1.82v3.665h3.666v-3.665H55.5c3.038 0 5.5-2.46 5.5-5.496v-3.665a5.46 5.46 0 00-1.43-3.664A5.46 5.46 0 0061 47.323V43.66zm-3.666 14.658a1.833 1.833 0 01-1.834 1.832h-9.167V52.82H55.5c1.013 0 1.834.82 1.834 1.832v3.665zm0-10.994a1.834 1.834 0 01-1.834 1.833h-9.167v-7.33H55.5c1.013 0 1.834.821 1.834 1.833v3.664z" fill="#fff"/></svg>