<svg width="25" height="25" viewBox="0 0 25 25" fill="none" xmlns="http://www.w3.org/2000/svg"><path d="M12.5 23.647c6.156 0 11.147-4.99 11.147-11.147 0-6.156-4.99-11.147-11.147-11.147S1.353 6.343 1.353 12.5c0 6.156 4.99 11.147 11.147 11.147z" fill="#fff"/><path d="M12.5 0A12.5 12.5 0 1025 12.5 12.462 12.462 0 0012.573 0H12.5zm.212 12.924l-1.302 4.388h6.962a.349.349 0 01.332.206c.019.042.03.087.03.133v.115l-.604 2.089a.451.451 0 01-.454.333H7.022l1.786-6.084-1.998.606.454-1.393 1.998-.605 2.512-8.535a.457.457 0 01.454-.333h2.693a.351.351 0 01.364.339v.115l-2.12 7.203 1.999-.605-.424 1.453-2.028.575z" fill="#345D9D"/></svg>