<svg width="44" height="47" viewBox="0 0 44 47" fill="none" xmlns="http://www.w3.org/2000/svg">
<path d="M43.4959 11.8794L22.4959 0.129229C22.188 -0.0430763 21.8119 -0.0430763 21.504 0.129229L0.503999 11.8794C0.192 12.0537 0 12.3788 0 12.7294V34.2714C0 34.6219 0.192 34.947 0.503999 35.1213L21.504 46.8715C21.658 46.9577 21.828 47.0007 22 47.0007C22.172 47.0007 22.342 46.9577 22.496 46.8715L43.496 35.1213C43.808 34.947 44 34.6219 44 34.2714V12.7294C43.9999 12.3788 43.8079 12.0537 43.4959 11.8794Z" fill="url(#paint0_linear)"/>
<path d="M25.7577 22.265C24.6974 21.6794 23.5702 21.2333 22.4541 20.7705C21.8068 20.5028 21.1874 20.1906 20.6405 19.7556C19.5635 18.8968 19.77 17.5027 21.0311 16.9507C21.3883 16.7945 21.7622 16.7443 22.1416 16.722C23.6037 16.644 24.9932 16.9116 26.3157 17.5473C26.9742 17.8652 27.1919 17.7648 27.4151 17.0789C27.6494 16.354 27.8448 15.6179 28.0624 14.8874C28.2075 14.3967 28.0289 14.0732 27.5657 13.8669C26.7175 13.4933 25.847 13.2256 24.9318 13.0806C23.7376 12.8966 23.7376 12.8911 23.732 11.6921C23.7265 10.0025 23.7265 10.0025 22.03 10.0025C21.7845 10.0025 21.539 9.9969 21.2934 10.0025C20.501 10.0248 20.3671 10.1642 20.3448 10.9616C20.3336 11.3185 20.3448 11.6754 20.3392 12.0379C20.3336 13.0974 20.328 13.0806 19.3124 13.4487C16.857 14.3409 15.3392 16.0138 15.1773 18.6905C15.0323 21.0605 16.2711 22.6609 18.2186 23.8264C19.4184 24.5457 20.7465 24.9695 22.0189 25.5327C22.5155 25.7502 22.9898 26.0012 23.4028 26.3469C24.6249 27.3562 24.4017 29.0347 22.9508 29.6704C22.1751 30.0106 21.3548 30.0942 20.5122 29.9883C19.2119 29.8266 17.9675 29.4864 16.7956 28.8786C16.1093 28.5217 15.9084 28.6165 15.674 29.3581C15.4731 29.9994 15.2945 30.6463 15.116 31.2932C14.876 32.1631 14.9653 32.3694 15.7968 32.7765C16.857 33.2895 17.9898 33.5516 19.145 33.7356C20.049 33.8806 20.0769 33.9196 20.0881 34.8565C20.0936 35.2803 20.0936 35.7097 20.0992 36.1335C20.1048 36.6688 20.3615 36.9811 20.914 36.9922C21.539 37.0034 22.1695 37.0034 22.7945 36.9867C23.3079 36.9755 23.5702 36.6967 23.5702 36.1781C23.5702 35.5981 23.5981 35.0126 23.5758 34.4327C23.5479 33.8416 23.8046 33.5404 24.3738 33.3843C25.6852 33.0274 26.8012 32.3248 27.6606 31.2764C30.049 28.3767 29.1394 24.1331 25.7577 22.265Z" fill="white"/>
<defs>
<linearGradient id="paint0_linear" x1="8.1718" y1="8.58311" x2="34.7484" y2="40.2095" gradientUnits="userSpaceOnUse">
<stop stop-color="#4FBA6F"/>
<stop offset="1" stop-color="#24AE5F"/>
</linearGradient>
</defs>
</svg>
