<svg width="25" height="26" viewBox="0 0 25 26" fill="none" xmlns="http://www.w3.org/2000/svg">
<path d="M0 12.6644C0 5.76081 5.59644 0.164368 12.5 0.164368C19.4036 0.164368 25 5.76081 25 12.6644V13.4381C25 20.3417 19.4036 25.9381 12.5 25.9381C5.59644 25.9381 0 20.3417 0 13.4381V12.6644Z" fill="#627EEA"/>
<path d="M12.5 3.84631V10.6501L18.0804 13.2201L12.5 3.84631Z" fill="white" fill-opacity="0.6"/>
<path d="M12.5 3.84631L6.91968 13.2201L12.5 10.6501V3.84631Z" fill="white"/>
<path d="M12.5 17.6307V22.2561L18.0804 14.2939L12.5 17.6307Z" fill="white" fill-opacity="0.6"/>
<path d="M12.5 22.2561V17.6307L6.91968 14.2939L12.5 22.2561Z" fill="white"/>
<path d="M12.5 16.5569L18.0804 13.2201L12.5 10.6501V16.5569Z" fill="white" fill-opacity="0.2"/>
<path d="M6.91968 13.2201L12.5 16.5569V10.6501L6.91968 13.2201Z" fill="white" fill-opacity="0.6"/>
</svg>
