<svg width="100" height="100" viewBox="0 0 100 100" fill="none" xmlns="http://www.w3.org/2000/svg">
<path d="M71.5686 42.5742C55.8663 42.5742 43.1372 55.4294 43.1372 71.2871C43.1372 87.1448 55.8663 100 71.5686 100C87.2708 100 100 87.1448 100 71.2871C99.9824 55.4367 87.2635 42.592 71.5686 42.5742ZM71.5686 96.622C57.7137 96.622 46.4821 85.2791 46.4821 71.2871C46.4821 57.2951 57.7137 45.9522 71.5686 45.9522C85.4234 45.9522 96.6551 57.2951 96.6551 71.2871C96.6394 85.2726 85.417 96.6061 71.5686 96.622Z" fill="white"/>
<path d="M71.5687 49.8813C60.1981 49.8813 50.9805 59.1729 50.9805 70.6347C50.9805 82.0966 60.1981 91.3881 71.5687 91.3881C82.9393 91.3881 92.1569 82.0966 92.1569 70.6347C92.1439 59.1785 82.9338 49.8945 71.5687 49.8813ZM71.5687 88.1953C61.9475 88.1953 54.1479 80.3331 54.1479 70.6347C54.1479 60.9363 61.9475 53.0742 71.5687 53.0742C81.1899 53.0742 88.9895 60.9363 88.9895 70.6347C88.9782 80.3283 81.1852 88.1839 71.5687 88.1953Z" fill="white"/>
<path d="M81.0709 64.2491C81.0709 61.6041 78.9438 59.4599 76.3198 59.4599H74.7361V56.267H71.5687V59.4599H69.9976L70.023 56.2798L66.8555 56.2543L66.8302 59.4599H62.0664V62.6527H65.2338V78.6168H62.0664V81.8097H66.8302L66.8555 85.0153L70.023 84.9897L69.9976 81.8097H71.5687V85.0025H74.7361V81.8097H76.3198C78.9438 81.8097 81.0709 79.6655 81.0709 77.0204V73.8276C81.0668 72.6456 80.6265 71.5074 79.8356 70.6348C80.6265 69.7621 81.0668 68.6239 81.0709 67.4419V64.2491ZM77.9035 77.0204C77.9035 77.902 77.1944 78.6168 76.3198 78.6168H68.4012V72.2312H76.3198C77.1944 72.2312 77.9035 72.946 77.9035 73.8276V77.0204ZM77.9035 67.4419C77.9035 68.3236 77.1944 69.0384 76.3198 69.0384H68.4012V62.6527H76.3198C77.1944 62.6527 77.9035 63.3675 77.9035 64.2491V67.4419Z" fill="white"/>
<path d="M27.7775 6.60059C16.0459 6.60059 6.53564 16.205 6.53564 28.0527C6.53564 39.9005 16.0459 49.5049 27.7775 49.5049C39.5034 49.4913 49.0058 39.8947 49.0193 28.0527C49.0193 16.205 39.5091 6.60059 27.7775 6.60059ZM27.7775 46.2045C17.8557 46.1928 9.81526 38.0727 9.80362 28.0527C9.80362 18.0278 17.8508 9.90092 27.7775 9.90092C37.7041 9.90092 45.7513 18.0278 45.7513 28.0527C45.7513 38.0777 37.7041 46.2045 27.7775 46.2045Z" fill="white"/>
<path d="M27.7778 0C12.4365 0 0 12.5596 0 28.0528C0 43.546 12.4365 56.1056 27.7778 56.1056C43.1119 56.0883 55.5384 43.5388 55.5556 28.0528C55.5556 12.5596 43.1191 0 27.7778 0ZM27.7778 52.8053C14.2478 52.7898 3.28329 41.7168 3.26797 28.0528C3.26797 14.3824 14.2414 3.30033 27.7778 3.30033C41.3141 3.30033 52.2876 14.3824 52.2876 28.0528C52.2876 41.7232 41.3141 52.8053 27.7778 52.8053Z" fill="white"/>
<path d="M27.7778 26.4027C25.121 26.4027 22.8759 24.8912 22.8759 23.1024C22.8759 21.3136 25.121 19.8021 27.7778 19.8021C30.4347 19.8021 32.6798 21.3136 32.6798 23.1024C32.6798 24.0137 33.4114 24.7526 34.3138 24.7526C35.2162 24.7526 35.9478 24.0137 35.9478 23.1024C35.9478 19.9143 33.1357 17.2493 29.4118 16.6354V13.2014H26.1439V16.6354C22.42 17.2493 19.6079 19.9143 19.6079 23.1024C19.6079 26.7427 23.2729 29.7031 27.7778 29.7031C30.4347 29.7031 32.6798 31.2146 32.6798 33.0034C32.6798 34.7922 30.4347 36.3037 27.7778 36.3037C25.121 36.3037 22.8759 34.7922 22.8759 33.0034C22.8759 32.0921 22.1443 31.3532 21.2419 31.3532C20.3395 31.3532 19.6079 32.0921 19.6079 33.0034C19.6079 36.1915 22.42 38.8565 26.1439 39.4704V42.9044H29.4118V39.4704C33.1357 38.8565 35.9478 36.1915 35.9478 33.0034C35.9478 29.3631 32.2827 26.4027 27.7778 26.4027Z" fill="white"/>
<path d="M70.2616 16.5017H62.7681L66.9102 12.3169L64.5998 9.98352L56.5132 18.1518L64.5998 26.3202L66.9102 23.9868L62.7681 19.802H70.2616C78.3796 19.8111 84.9584 26.4551 84.9674 34.6535V42.9043H88.2354V34.6535C88.2238 24.6335 80.1833 16.5134 70.2616 16.5017Z" fill="white"/>
<path d="M31.8053 72.6898L29.4949 75.0231L33.637 79.2079H27.7776C19.6595 79.1988 13.0807 72.5549 13.0717 64.3564V56.1056H9.80371V64.3564C9.81535 74.3764 17.8558 82.4965 27.7776 82.5082H33.637L29.4949 86.6931L31.8053 89.0264L39.8919 80.8581L31.8053 72.6898Z" fill="white"/>
</svg>
