<svg width="25" height="25" viewBox="0 0 25 25" fill="none" xmlns="http://www.w3.org/2000/svg">
<path d="M12.4998 23.6471C18.6561 23.6471 23.6469 18.6563 23.6469 12.4999C23.6469 6.34357 18.6561 1.35284 12.4998 1.35284C6.34339 1.35284 1.35266 6.34357 1.35266 12.4999C1.35266 18.6563 6.34339 23.6471 12.4998 23.6471Z" fill="white"/>
<path d="M12.5 0C10.0278 0 7.611 0.733113 5.55538 2.10663C3.49977 3.48015 1.89761 5.43239 0.951513 7.71646C0.00541602 10.0005 -0.242126 12.5139 0.24019 14.9386C0.722506 17.3634 1.91302 19.5907 3.66118 21.3389C5.40933 23.087 7.63662 24.2775 10.0614 24.7598C12.4862 25.2422 14.9995 24.9946 17.2836 24.0485C19.5676 23.1024 21.5199 21.5003 22.8934 19.4446C24.2669 17.389 25 14.9723 25 12.5C25.0048 10.8633 24.6872 9.24158 24.0652 7.72759C23.4433 6.2136 22.5292 4.83693 21.3752 3.6762C20.2212 2.51546 18.8499 1.59339 17.3396 0.962627C15.8292 0.331864 14.2094 0.00476262 12.5727 0H12.5ZM12.7119 12.9237L11.4104 17.3124H18.3717C18.4178 17.3107 18.4638 17.3182 18.507 17.3344C18.5502 17.3506 18.5898 17.3751 18.6236 17.4066C18.6573 17.4381 18.6845 17.4759 18.7036 17.5179C18.7227 17.5599 18.7333 17.6052 18.7349 17.6514V17.7664L18.1296 19.8547C18.1029 19.9535 18.0434 20.0403 17.9609 20.1008C17.8784 20.1613 17.7778 20.1919 17.6756 20.1877H7.02181L8.80752 14.1041L6.80994 14.7095L7.26394 13.3172L9.26152 12.7119L11.7736 4.17676C11.8013 4.07855 11.861 3.99242 11.9433 3.93209C12.0255 3.87176 12.1256 3.84069 12.2276 3.84383H14.9213C14.9674 3.84221 15.0134 3.8497 15.0566 3.86586C15.0999 3.88203 15.1395 3.90655 15.1732 3.93804C15.2069 3.96952 15.2341 4.00734 15.2532 4.04934C15.2723 4.09134 15.283 4.1367 15.2845 4.18281V4.29783L13.1659 11.5012L15.1635 10.8959L14.7397 12.3487L12.7119 12.9237Z" fill="#345D9D"/>
</svg>
