<svg width="100" height="94" viewBox="0 0 100 94" fill="none" xmlns="http://www.w3.org/2000/svg">
<path d="M15.6442 23.9966H15.7509C19.764 23.9923 23.0155 20.7407 23.0198 16.7277V14.3073C23.0155 10.2952 19.764 7.04361 15.7509 7.03845H15.6442C11.6312 7.04361 8.37967 10.2952 8.37537 14.3073V16.7268C8.37881 20.7399 11.6312 23.9923 15.6442 23.9966ZM11.4591 14.3082C11.4617 11.9979 13.3331 10.1257 15.6442 10.1231H15.7509C18.0612 10.1257 19.9335 11.9979 19.936 14.3082V16.7277C19.9335 19.0379 18.0612 20.9102 15.7509 20.9128H15.6442C13.3331 20.9102 11.4617 19.0379 11.4591 16.7277V14.3082Z" fill="#407BFF"/>
<path d="M24.252 26.3162H21.2096C20.8172 26.317 20.4403 26.4667 20.1547 26.7352L15.9197 30.7086L11.855 26.7524C11.5668 26.4728 11.1813 26.3162 10.7795 26.3162H7.54946C5.42937 26.3162 3.40737 27.2076 1.97735 28.7718C0.547321 30.3369 -0.159088 32.4312 0.0319262 34.5427V52.2382C0.0319262 54.8496 2.14857 56.9662 4.75996 56.9679H4.81589C5.44916 56.9611 6.07469 56.8234 6.6529 56.5635L7.46514 88.5627C7.53483 90.5314 8.75491 92.2755 10.5807 93.0154C12.4066 93.7545 14.4965 93.3527 15.9171 91.9872C17.3394 93.3545 19.4336 93.7563 21.2612 93.012C23.0887 92.2677 24.3062 90.5176 24.3699 88.5464L25.1813 56.5894C26.6431 57.2132 28.3201 57.0609 29.646 56.185C30.9719 55.3082 31.7704 53.8257 31.7704 52.2356V34.5435C31.9606 32.4321 31.255 30.3378 29.825 28.7727C28.3941 27.2076 26.3721 26.3162 24.252 26.3162ZM19.3734 90.2965C18.316 90.2956 17.459 89.4387 17.4581 88.3821V56.3278H14.3743V88.3821C14.3735 89.4223 13.5423 90.2715 12.5021 90.2948C11.4618 90.318 10.5936 89.5066 10.5463 88.4672L9.62825 52.3019H22.2059L21.287 88.45C21.2534 89.4817 20.4051 90.2999 19.3734 90.2965ZM28.6935 34.3138C28.6884 34.3654 28.6858 34.4179 28.6858 34.4695V52.2356C28.6755 53.139 27.9398 53.867 27.0355 53.867C26.1321 53.867 25.3964 53.139 25.3861 52.2356V48.4695L25.4041 47.7536H25.3861V40.3437H22.3023V48.4334L22.2825 49.2181H9.55081L9.51209 47.6762H9.49316V40.3445H6.4094V52.1496C6.43005 53.0754 5.70643 53.8463 4.78147 53.885C4.34179 53.8902 3.91847 53.719 3.60527 53.4101C3.29294 53.1003 3.11655 52.6796 3.11655 52.239V34.4704C3.11655 34.4179 3.11397 34.3663 3.10881 34.3147C2.98146 33.0585 3.39189 31.8074 4.23854 30.8713C5.0852 29.9351 6.28808 29.4008 7.55032 29.4008H10.154L14.8244 33.9455C14.8312 33.9524 14.839 33.9567 14.8467 33.9636C14.8932 34.0075 14.9414 34.0479 14.993 34.0858C14.9964 34.0884 14.9999 34.0918 15.0042 34.0944C15.0601 34.134 15.1186 34.1701 15.1788 34.202C15.1909 34.208 15.2029 34.214 15.2158 34.22C15.2718 34.2484 15.3294 34.2725 15.3879 34.294C15.3931 34.2957 15.3983 34.2983 15.4043 34.3C15.4671 34.3207 15.5308 34.3379 15.5962 34.3508C15.6116 34.3534 15.6271 34.356 15.6418 34.3586C15.6994 34.3689 15.7579 34.3749 15.8164 34.3783C15.825 34.3783 15.8336 34.3801 15.8431 34.3809C15.9085 34.3826 15.9739 34.3809 16.0393 34.3749C16.0548 34.3732 16.0702 34.3715 16.0857 34.3697C16.1503 34.362 16.2148 34.3508 16.2776 34.3353L16.2845 34.3336C16.3525 34.3155 16.4196 34.2932 16.485 34.2656C16.4901 34.2639 16.4953 34.263 16.5005 34.2605C16.5065 34.2587 16.5116 34.2544 16.5168 34.2527C16.6433 34.1968 16.762 34.1254 16.8696 34.0385C16.8833 34.0264 16.8971 34.0152 16.9109 34.0032C16.9246 33.9912 16.9419 33.9782 16.9565 33.9645L21.8205 29.4008H24.2537C25.5151 29.4008 26.718 29.9351 27.5647 30.8713C28.4105 31.8074 28.8209 33.0585 28.6935 34.3138Z" fill="#407BFF"/>
<path d="M83.8458 23.9966H83.9534C87.9656 23.9923 91.2171 20.7407 91.2223 16.7277V14.3073C91.2171 10.2952 87.9656 7.04361 83.9534 7.03845H83.8458C79.8328 7.04361 76.5813 10.2952 76.577 14.3073V16.7268C76.5813 20.7399 79.8328 23.9923 83.8458 23.9966ZM79.6607 14.3082C79.6633 11.9979 81.5356 10.1257 83.8458 10.1231H83.9534C86.2636 10.1257 88.1359 11.9979 88.1385 14.3082V16.7277C88.1359 19.0379 86.2636 20.9102 83.9534 20.9128H83.8458C81.5356 20.9102 79.6633 19.0379 79.6607 16.7277V14.3082Z" fill="#407BFF"/>
<path d="M92.4535 26.3162H89.4102C89.0178 26.317 88.6409 26.4667 88.3553 26.7352L84.1203 30.7078L80.0556 26.7524C79.7674 26.4728 79.3819 26.3162 78.9801 26.3162H75.7501C73.63 26.3162 71.608 27.2076 70.1771 28.7718C68.7471 30.3369 68.0415 32.4312 68.2317 34.5427V52.2382C68.2325 54.8496 70.3492 56.9662 72.9606 56.9679H73.0156C73.6489 56.9602 74.2744 56.8225 74.8518 56.5635L75.664 88.5619C75.7337 90.5305 76.9538 92.2746 78.7796 93.0146C80.6054 93.7546 82.6954 93.3519 84.116 91.9872C85.5391 93.3545 87.6325 93.7554 89.4601 93.0111C91.2876 92.2677 92.506 90.5176 92.5688 88.5455L93.3802 56.5894C94.842 57.2123 96.519 57.06 97.8449 56.1841C99.1708 55.3073 99.9693 53.8248 99.9693 52.2356V34.5435C100.16 32.4321 99.4539 30.3378 98.0247 28.7735C96.5947 27.2084 94.5727 26.317 92.4535 26.3162ZM87.574 90.2965C86.5166 90.2956 85.6596 89.4387 85.6587 88.3821V56.3278H82.5749V88.3821C82.5775 89.424 81.7455 90.2767 80.7035 90.2999C79.6615 90.3232 78.7925 89.5084 78.7478 88.4672L77.8288 52.3019H90.4065L89.4876 88.45C89.4541 89.4817 88.6065 90.2999 87.574 90.2965ZM96.8941 34.3138C96.889 34.3654 96.8864 34.4179 96.8864 34.4695V52.2356C96.8864 53.1468 96.1482 53.885 95.237 53.885C94.3258 53.885 93.5875 53.1468 93.5875 52.2356V48.4695L93.6056 47.7537H93.5875V40.3437H90.5038V48.4325L90.484 49.2172H77.7505L77.7118 47.6754H77.6929V40.3437H74.6091V52.1496C74.6298 53.0754 73.9062 53.8463 72.9812 53.885C72.5415 53.8902 72.1182 53.719 71.8059 53.4101C71.4927 53.1003 71.3163 52.6787 71.3163 52.239V34.4704C71.3163 34.4179 71.3137 34.3663 71.3085 34.3147C71.1812 33.0585 71.5916 31.8074 72.4383 30.8713C73.2841 29.9351 74.4878 29.4008 75.7501 29.4008H78.3528L83.0258 33.9456C83.0318 33.9516 83.0404 33.9567 83.0473 33.9628C83.0938 34.0075 83.1428 34.0479 83.1945 34.0858C83.1979 34.0884 83.2013 34.0918 83.2048 34.0944C83.2616 34.134 83.3201 34.1701 83.3812 34.202C83.3932 34.208 83.4053 34.214 83.4173 34.22C83.4732 34.2484 83.5317 34.2725 83.5911 34.294L83.6057 34.2992C83.6685 34.3207 83.7331 34.3379 83.7985 34.3508C83.8131 34.3534 83.8286 34.356 83.8441 34.3586C83.9017 34.368 83.9602 34.3749 84.0187 34.3783C84.0273 34.3783 84.036 34.3801 84.0454 34.3809C84.1108 34.3826 84.1762 34.3809 84.2407 34.374C84.2571 34.3732 84.2726 34.3715 84.2881 34.3689C84.3526 34.362 84.4163 34.3499 84.4791 34.3345C84.4817 34.3345 84.4842 34.3345 84.486 34.3336C84.5548 34.3155 84.621 34.2932 84.6864 34.2656C84.6916 34.2639 84.6976 34.263 84.7028 34.2605C84.7079 34.2587 84.7131 34.2544 84.7183 34.2519C84.8447 34.1968 84.9635 34.1254 85.071 34.0385C85.0848 34.0264 85.0986 34.0161 85.1123 34.0032C85.1261 33.9903 85.1433 33.9782 85.1579 33.9645L90.0219 29.4008H92.4552C93.7175 29.4008 94.9203 29.9351 95.7661 30.8713C96.6128 31.8074 97.0224 33.0585 96.895 34.3138H96.8941Z" fill="#407BFF"/>
<path d="M49.7446 23.9966H49.8522C53.8643 23.9923 57.1167 20.7407 57.121 16.7277V14.3073C57.1167 10.2952 53.8643 7.04361 49.8522 7.03845H49.7446C45.7324 7.04361 42.4809 10.2952 42.4757 14.3073V16.7268C42.48 20.7399 45.7316 23.9923 49.7446 23.9966ZM45.5595 14.3082C45.5621 11.9979 47.4344 10.1257 49.7446 10.1231H49.8522C52.1624 10.1257 54.0347 11.9979 54.0373 14.3082V16.7277C54.0347 19.0379 52.1624 20.9102 49.8522 20.9128H49.7446C47.4344 20.9102 45.5621 19.0379 45.5595 16.7277V14.3073V14.3082Z" fill="#407BFF"/>
<path d="M58.3532 26.3162H55.309C54.9166 26.317 54.5398 26.4667 54.2541 26.7352L50.0191 30.7086L45.9544 26.7524C45.6671 26.4728 45.2807 26.3162 44.8798 26.3162H41.6497C39.5297 26.3162 37.5077 27.2076 36.0776 28.7718C34.6467 30.3369 33.9412 32.4312 34.1313 34.5427V52.2382C34.1322 54.8496 36.2489 56.9662 38.8602 56.9679H38.9153C39.5486 56.9602 40.1741 56.8225 40.7515 56.5635L41.5646 88.5619C41.6334 90.5314 42.8543 92.2755 44.6802 93.0146C46.506 93.7545 48.596 93.3519 50.0165 91.9872C51.4388 93.3545 53.5331 93.7554 55.3606 93.012C57.1873 92.2677 58.4057 90.5176 58.4693 88.5455L59.2799 56.5894C60.7426 57.2123 62.4195 57.06 63.7455 56.1841C65.0714 55.3082 65.869 53.8248 65.869 52.2356V34.5435C66.06 32.4321 65.3545 30.3378 63.9244 28.7727C62.4944 27.2084 60.4724 26.317 58.3532 26.3162ZM53.4728 90.2965C52.4162 90.2956 51.5593 89.4387 51.5584 88.3821V56.3278H48.4746V88.3821C48.4738 89.4223 47.6426 90.2715 46.6023 90.2948C45.5621 90.318 44.6939 89.5066 44.6466 88.4672L43.7285 52.3019H56.3054L55.3864 88.45C55.3537 89.4817 54.5054 90.2999 53.4728 90.2965ZM62.7938 34.3138C62.7878 34.3654 62.7852 34.4179 62.7852 34.4695V52.2356C62.7852 53.1468 62.047 53.885 61.1358 53.885C60.2246 53.885 59.4864 53.1468 59.4864 52.2356V48.4695L59.5044 47.7536H59.4864V40.3437H56.4026V48.4325L56.3828 49.2172H43.6502L43.6107 47.6754H43.5926V40.3437H40.5088V52.1496C40.5295 53.0754 39.805 53.8463 38.8809 53.885C38.4412 53.8902 38.017 53.719 37.7047 53.4101C37.3915 53.1003 37.216 52.6787 37.2151 52.239V34.4704C37.2151 34.4179 37.2125 34.3663 37.2074 34.3147C37.08 33.0585 37.4913 31.8074 38.3371 30.8713C39.1838 29.9342 40.3875 29.3999 41.6497 29.4008H44.2534L48.9255 33.9455C48.9324 33.9516 48.9401 33.9567 48.9479 33.9628C48.9935 34.0066 49.0425 34.0479 49.0941 34.0858C49.0976 34.0884 49.101 34.0918 49.1053 34.0944C49.1613 34.134 49.2198 34.1701 49.28 34.2011C49.292 34.208 49.3041 34.214 49.317 34.22C49.3729 34.2484 49.4306 34.2725 49.4891 34.2932C49.4942 34.2957 49.4994 34.2983 49.5054 34.3C49.5682 34.3207 49.6319 34.3379 49.6973 34.3508C49.7128 34.3534 49.7274 34.356 49.7429 34.3586C49.8005 34.3689 49.8591 34.3749 49.9176 34.3783C49.9262 34.3783 49.9356 34.3801 49.9442 34.3809C50.0096 34.3826 50.075 34.3809 50.1404 34.374C50.1559 34.3732 50.1714 34.3715 50.1869 34.3689C50.2523 34.362 50.3159 34.3499 50.3788 34.3345L50.3856 34.3336C50.4536 34.3155 50.5207 34.2932 50.5861 34.2656C50.5913 34.2639 50.5964 34.263 50.6016 34.2605C50.6068 34.2587 50.6128 34.2544 50.618 34.2519C50.7444 34.1968 50.8632 34.1254 50.9707 34.0385C50.9845 34.0264 50.9983 34.0161 51.012 34.0032C51.0258 33.9903 51.043 33.9782 51.0568 33.9645L55.9208 29.4008H58.354C59.6163 29.4008 60.8192 29.9351 61.6658 30.8713C62.5116 31.8074 62.922 33.0585 62.7938 34.3138Z" fill="#407BFF"/>
<path d="M40.2722 10.4311V8.01155C40.2679 3.99852 37.0163 0.746978 33.0033 0.742676H32.8966C28.8836 0.746978 25.632 3.99852 25.6277 8.01155V10.4311C25.632 14.4432 28.8836 17.6948 32.8966 17.6999H33.0033C37.0163 17.6956 40.2679 14.4432 40.2722 10.4311ZM37.1884 10.4311C37.1858 12.7413 35.3144 14.6136 33.0033 14.6162H32.8966C30.5864 14.6136 28.7141 12.7413 28.7115 10.4311V8.01155C28.7141 5.7013 30.5864 3.82902 32.8966 3.82644H33.0033C35.3144 3.82902 37.1858 5.7013 37.1884 8.01155V10.4311Z" fill="#407BFF"/>
<path d="M74.3734 10.4311V8.01155C74.3691 3.99852 71.1176 0.746978 67.1046 0.742676H66.997C62.9849 0.746978 59.7333 3.99852 59.7281 8.01155V10.4311C59.7333 14.4432 62.9849 17.6948 66.997 17.6999H67.1046C71.1176 17.6956 74.3691 14.4432 74.3734 10.4311ZM71.2897 10.4311C71.2871 12.7413 69.4148 14.6136 67.1046 14.6162H66.997C64.6868 14.6136 62.8145 12.7413 62.8119 10.4311V8.01155C62.8145 5.7013 64.6868 3.82902 66.997 3.82644H67.1046C69.4148 3.82902 71.2871 5.7013 71.2897 8.01155V10.4311Z" fill="#407BFF"/>
</svg>
