<svg width="100" height="100" viewBox="0 0 100 100" fill="none" xmlns="http://www.w3.org/2000/svg">
<path d="M71.6667 50C59.7004 50 50 59.7004 50 71.6667C50 83.6329 59.7004 93.3333 71.6667 93.3333C83.6329 93.3333 93.3333 83.6329 93.3333 71.6667C93.3196 59.7063 83.6271 50.0138 71.6667 50ZM71.6667 90C61.5415 90 53.3333 81.7919 53.3333 71.6667C53.3333 61.5415 61.5415 53.3333 71.6667 53.3333C81.7919 53.3333 90 61.5415 90 71.6667C89.9881 81.7869 81.7869 89.9881 71.6667 90Z" fill="#407BFF"/>
<path d="M81.6667 65C81.6667 62.2385 79.4281 60 76.6667 60H75V56.6667H71.6667V60H70.0133L70.04 56.68L66.7067 56.6533L66.68 60H61.6667V63.3333H65V80H61.6667V83.3333H66.68L66.7067 86.68L70.04 86.6533L70.0133 83.3333H71.6667V86.6667H75V83.3333H76.6667C79.4281 83.3333 81.6667 81.0948 81.6667 78.3333V75C81.6623 73.766 81.199 72.5777 80.3667 71.6667C81.199 70.7556 81.6623 69.5673 81.6667 68.3333V65ZM78.3333 78.3333C78.3333 79.2537 77.5871 80 76.6667 80H68.3333V73.3333H76.6667C77.5871 73.3333 78.3333 74.0796 78.3333 75V78.3333ZM78.3333 68.3333C78.3333 69.2537 77.5871 70 76.6667 70H68.3333V63.3333H76.6667C77.5871 63.3333 78.3333 64.0796 78.3333 65V68.3333Z" fill="#407BFF"/>
<path d="M71.6667 43.3334C56.0185 43.3334 43.3333 56.0186 43.3333 71.6667C43.3333 87.3148 56.0185 100 71.6667 100C87.3148 100 100 87.3148 100 71.6667C99.9825 56.0259 87.3075 43.3509 71.6667 43.3334ZM71.6667 96.6667C57.8596 96.6667 46.6667 85.4738 46.6667 71.6667C46.6667 57.8596 57.8596 46.6667 71.6667 46.6667C85.4737 46.6667 96.6667 57.8596 96.6667 71.6667C96.651 85.4673 85.4673 96.6511 71.6667 96.6667Z" fill="#407BFF"/>
<path d="M28.3333 6.66663C16.3671 6.66663 6.66667 16.367 6.66667 28.3333C6.66667 40.2995 16.3671 50 28.3333 50C40.2938 49.9862 49.9863 40.2937 50 28.3333C50 16.367 40.2996 6.66663 28.3333 6.66663ZM28.3333 46.6666C18.2131 46.6548 10.0119 38.4535 10 28.3333C10 18.2081 18.2081 9.99996 28.3333 9.99996C38.4585 9.99996 46.6667 18.2081 46.6667 28.3333C46.6667 38.4585 38.4585 46.6666 28.3333 46.6666Z" fill="#407BFF"/>
<path d="M28.3333 0C12.6852 0 0 12.6852 0 28.3333C0 43.9815 12.6852 56.6667 28.3333 56.6667C43.9742 56.6492 56.6492 43.9742 56.6667 28.3333C56.6667 12.6852 43.9815 0 28.3333 0ZM28.3333 53.3333C14.5327 53.3177 3.34896 42.134 3.33333 28.3333C3.33333 14.5262 14.5262 3.33333 28.3333 3.33333C42.1404 3.33333 53.3333 14.5262 53.3333 28.3333C53.3333 42.1404 42.1404 53.3333 28.3333 53.3333Z" fill="#407BFF"/>
<path d="M28.3333 26.6667C25.6233 26.6667 23.3333 25.14 23.3333 23.3334C23.3333 21.5267 25.6233 20 28.3333 20C31.0433 20 33.3333 21.5267 33.3333 23.3334C33.3333 24.2538 34.0796 25 35 25C35.9204 25 36.6667 24.2538 36.6667 23.3334C36.6667 20.1134 33.7983 17.4217 30 16.8017V13.3334H26.6667V16.8017C22.8683 17.4217 20 20.1134 20 23.3334C20 27.01 23.7383 30 28.3333 30C31.0433 30 33.3333 31.5267 33.3333 33.3334C33.3333 35.14 31.0433 36.6667 28.3333 36.6667C25.6233 36.6667 23.3333 35.14 23.3333 33.3334C23.3333 32.413 22.5871 31.6667 21.6667 31.6667C20.7462 31.6667 20 32.413 20 33.3334C20 36.5534 22.8683 39.245 26.6667 39.865V43.3334H30V39.865C33.7983 39.245 36.6667 36.5534 36.6667 33.3334C36.6667 29.6567 32.9283 26.6667 28.3333 26.6667Z" fill="#407BFF"/>
<path d="M71.6667 16.6667H64.0233L68.2483 12.44L65.8917 10.0834L57.6433 18.3334L65.8917 26.5834L68.2483 24.2267L64.0233 20H71.6667C79.9471 20.0092 86.6575 26.7196 86.6667 35V43.3334H90V35C89.9881 24.8798 81.7869 16.6786 71.6667 16.6667Z" fill="#407BFF"/>
<path d="M32.4417 73.4166L30.085 75.7733L34.31 80H28.3333C20.0529 79.9908 13.3425 73.2804 13.3333 65V56.6666H10V65C10.0119 75.1202 18.2131 83.3214 28.3333 83.3333H34.31L30.085 87.56L32.4417 89.9166L40.69 81.6666L32.4417 73.4166Z" fill="#407BFF"/>
</svg>
