<svg width="100" height="100" viewBox="0 0 100 100" fill="none" xmlns="http://www.w3.org/2000/svg">
<path d="M60.0027 43.3323C60.0027 40.571 57.7643 38.3326 55.003 38.3326H53.3364V34.9995H50.0033V38.3326H48.3368V34.9995H45.0037V38.3326H40.004V41.6657H43.3371V58.3313H40.004V61.6644H45.0037V64.9975H48.3368V61.6644H50.0033V64.9975H53.3364V61.6644H55.003C57.7643 61.6644 60.0027 59.426 60.0027 56.6647V53.3316C59.9983 52.0977 59.535 50.9095 58.7027 49.9985C59.535 49.0875 59.9983 47.8993 60.0027 46.6654V43.3323ZM56.6695 56.6647C56.6695 57.5851 55.9233 58.3313 55.003 58.3313H46.6702V51.6651H55.003C55.9233 51.6651 56.6695 52.4113 56.6695 53.3316V56.6647ZM56.6695 46.6654C56.6695 47.5858 55.9233 48.332 55.003 48.332H46.6702V41.6657H55.003C55.9233 41.6657 56.6695 42.4119 56.6695 43.3323V46.6654Z" fill="#407BFF"/>
<path d="M50.0033 29.9999C38.9585 29.9999 30.0047 38.9537 30.0047 49.9985C30.0047 61.0434 38.9585 69.9972 50.0033 69.9972C61.0482 69.9972 70.002 61.0434 70.002 49.9985C69.9901 38.9584 61.0434 30.0118 50.0033 29.9999ZM50.0033 66.6641C40.7992 66.6641 33.3378 59.2027 33.3378 49.9985C33.3378 40.7944 40.7992 33.333 50.0033 33.333C59.2075 33.333 66.6689 40.7944 66.6689 49.9985C66.6589 59.1983 59.2034 66.6539 50.0033 66.6641Z" fill="#407BFF"/>
<path d="M100 49.9985C100.009 41.7551 97.9666 33.639 94.057 26.3818L94.082 26.3718L93.0571 24.6119C93.0321 24.5686 93.0005 24.5252 92.9755 24.4836C92.4755 23.6503 91.9655 22.827 91.4222 22.0271C91.2556 21.7788 91.0739 21.5371 90.9006 21.2921C90.4783 20.6932 90.045 20.1045 89.6007 19.5256C89.5057 19.4056 89.434 19.2789 89.3307 19.1589C89.1857 18.9756 89.0324 18.8006 88.8857 18.619C88.6957 18.3823 88.5058 18.149 88.3108 17.9157C87.9258 17.4557 87.5341 17.0057 87.1442 16.5608C87.0558 16.4624 86.9659 16.3625 86.8759 16.2658C86.4049 15.7492 85.9243 15.2448 85.4343 14.7526L85.2543 14.5726C84.7854 14.1082 84.3094 13.6543 83.8261 13.211C83.6594 13.056 83.4928 12.9027 83.3161 12.7494C83.1394 12.596 82.9445 12.4061 82.7528 12.2494C82.5861 12.1094 82.4412 11.9877 82.2828 11.8544L82.3362 11.8261L80.5013 10.4262C79.4457 9.61061 78.3581 8.83796 77.2382 8.10801C77.1298 8.03634 77.0199 7.96802 76.9049 7.89635C74.9042 6.61165 72.8147 5.4711 70.6519 4.48325L70.2286 4.29159C57.3549 -1.42386 42.6634 -1.42386 29.7897 4.29159L29.353 4.48991C27.2048 5.46839 25.1287 6.5979 23.1401 7.86969L22.7485 8.12134C21.6375 8.85025 20.5542 9.6202 19.4987 10.4312L17.6721 11.8194L17.7255 11.8478C17.5705 11.9794 17.4205 12.0994 17.2622 12.2361C17.0755 12.4027 16.8955 12.5694 16.7105 12.736C16.5255 12.9027 16.3506 13.0577 16.1722 13.2227C15.6933 13.6603 15.2223 14.1093 14.759 14.5692L14.5707 14.7576C14.0784 15.2532 13.5957 15.7592 13.1224 16.2758L12.8775 16.5474C12.4664 17.0041 12.0636 17.4684 11.6692 17.9407C11.4925 18.153 11.3186 18.365 11.1476 18.5773C10.9909 18.7706 10.8276 18.9573 10.6743 19.1523C10.5726 19.2823 10.486 19.4173 10.3843 19.5472C9.94765 20.1139 9.52268 20.6915 9.10938 21.2805C8.93272 21.5304 8.74773 21.7804 8.57774 22.0287C8.03445 22.8304 7.52115 23.652 7.02451 24.4852C6.99952 24.5269 6.96785 24.5702 6.94285 24.6136L5.91792 26.3735L5.94292 26.3835C-1.98114 41.131 -1.98114 58.8694 5.94292 73.617L5.91792 73.627L6.94285 75.3869C6.96785 75.4302 6.99952 75.4735 7.02451 75.5152C7.52448 76.3485 8.03445 77.1717 8.57774 77.9717C8.7444 78.22 8.92605 78.4616 9.09938 78.7066C9.52164 79.3055 9.95494 79.8943 10.3993 80.4732C10.4943 80.5932 10.5743 80.7198 10.6693 80.8398C10.8143 81.0231 10.9676 81.1981 11.1142 81.3798C11.3042 81.6164 11.4942 81.8498 11.6892 82.0831C12.0742 82.543 12.4658 82.993 12.8641 83.438C12.9525 83.5363 13.0424 83.6363 13.1324 83.733C13.6047 84.2496 14.0851 84.7539 14.574 85.2462L14.754 85.4262C15.2229 85.8918 15.6989 86.3455 16.1822 86.7878C16.3489 86.9428 16.5155 87.0961 16.6922 87.2494C16.8689 87.4027 17.0638 87.5927 17.2555 87.7494C17.4222 87.8894 17.5671 88.011 17.7255 88.1443L17.6721 88.1727L19.492 89.5659C20.5476 90.3815 21.6352 91.1541 22.7551 91.8841C22.8635 91.9557 22.9735 92.0241 23.0884 92.0941C25.0925 93.3804 27.1859 94.5216 29.353 95.5088L29.7763 95.7005C36.1428 98.5347 43.0344 99.9979 50.0033 99.9952C50.36 99.9952 50.7133 99.9852 51.0566 99.9686C57.6647 99.8386 64.1805 98.3909 70.222 95.7105L70.6586 95.5122C72.8068 94.5337 74.8829 93.4042 76.8715 92.1324L77.2632 91.8808C78.3741 91.1531 79.4574 90.3831 80.5129 89.5709L82.3328 88.1777L82.2795 88.1493C82.4345 88.0177 82.5845 87.8977 82.7428 87.761C82.9295 87.5944 83.1094 87.4277 83.2944 87.2611C83.4794 87.0944 83.6544 86.9394 83.8327 86.7744C84.3117 86.3368 84.7827 85.8878 85.246 85.4278L85.4343 85.2395C85.9265 84.7452 86.4092 84.239 86.8825 83.7213L87.1275 83.4496C87.5385 82.993 87.9414 82.5287 88.3358 82.0564C88.5124 81.8441 88.6864 81.6321 88.8574 81.4198C89.0141 81.2265 89.1774 81.0398 89.3307 80.8448C89.4324 80.7148 89.519 80.5798 89.6207 80.4499C90.0573 79.8832 90.4823 79.3055 90.8956 78.7166C91.0722 78.4666 91.2572 78.2167 91.4272 77.9684C91.9705 77.1667 92.4838 76.3451 92.9805 75.5118C93.0054 75.4702 93.0371 75.4268 93.0621 75.3835L94.087 73.6236L94.062 73.6136C97.9697 66.3562 100.01 58.2409 100 49.9985ZM90.8406 27.45C94.3916 33.8559 96.374 41.0121 96.6252 48.332H84.971C84.8454 42.0689 83.8544 35.8532 82.0262 29.8616C85.0893 29.1616 88.0408 28.3533 90.8406 27.45ZM79.0214 13.4976C79.188 13.626 79.3547 13.7493 79.5063 13.8793C79.658 14.0093 79.813 14.1359 79.9663 14.2643C80.3196 14.5626 80.6696 14.8642 81.0129 15.1725C81.2179 15.3492 81.4162 15.5292 81.6145 15.7108C82.0312 16.0975 82.4478 16.4874 82.8478 16.8874C82.9361 16.9741 83.0228 17.0624 83.1111 17.1507C83.5377 17.5807 83.9567 18.0196 84.3677 18.4673L84.7093 18.8473C85.0426 19.2256 85.376 19.6122 85.7093 20.0022C85.9243 20.2622 86.1392 20.5222 86.3509 20.7872C86.5909 21.0838 86.8275 21.3855 87.0609 21.6888C87.2385 21.9198 87.4142 22.1521 87.5875 22.3854C87.8941 22.802 88.1935 23.223 88.4858 23.6486C88.5874 23.797 88.6891 23.9419 88.7874 24.0903C88.8857 24.2386 88.9741 24.3819 89.069 24.5269C86.4875 25.3352 83.7544 26.0418 80.9429 26.6751C79.4688 22.6464 77.5154 18.8096 75.125 15.2475C76.4482 14.7092 77.7481 14.1293 79.0214 13.4976ZM69.682 67.9274C73.7736 63.4549 76.2093 57.7153 76.5832 51.6651H81.6395C81.5152 57.6932 80.5521 63.6747 78.7781 69.4373C75.8416 68.8423 72.8051 68.3307 69.682 67.9274ZM77.6898 72.6337C76.2486 76.4997 74.3277 80.1692 71.9719 83.5563C65.4267 81.3423 58.5784 80.1534 51.6699 80.0315V76.5934C51.9449 76.5751 52.2182 76.5634 52.4915 76.5368C52.8031 76.5084 53.1081 76.4601 53.4164 76.4201C53.9164 76.3551 54.4164 76.2835 54.9163 76.1918C55.2796 76.1235 55.6379 76.0435 55.9962 75.9602C56.4306 75.8602 56.8629 75.7491 57.2928 75.6268C57.6528 75.5235 58.0111 75.4202 58.3661 75.2935C58.8077 75.1485 59.2394 74.9836 59.6727 74.8152C59.986 74.6919 60.3043 74.5769 60.6126 74.4436C61.1892 74.1919 61.7542 73.9136 62.3142 73.622C62.4591 73.547 62.6108 73.482 62.7541 73.4037C63.4724 73.012 64.174 72.5837 64.8557 72.1254C64.9673 72.0504 65.0706 71.9671 65.189 71.8904C65.6489 71.5704 66.1089 71.2505 66.5489 70.9022C70.3936 71.3188 74.1067 71.9188 77.6898 72.6337ZM76.5832 48.332C76.2093 42.2818 73.7736 36.5422 69.682 32.0697C72.8068 31.6664 75.8483 31.1548 78.7781 30.5598C80.5521 36.3224 81.5152 42.3039 81.6395 48.332H76.5832ZM68.3821 7.14307C68.8054 7.32473 69.227 7.51138 69.647 7.70637C70.2653 7.99301 70.8753 8.29966 71.4802 8.61464C71.8852 8.82463 72.2885 9.03461 72.6868 9.25626C73.2918 9.58957 73.8867 9.95788 74.4783 10.3245C74.86 10.5612 75.245 10.7912 75.6199 11.0395C75.7399 11.1178 75.8516 11.2061 75.9699 11.2861C75.0266 11.7161 74.055 12.0911 73.0868 12.4677C71.4658 10.4164 69.6431 8.53319 67.6455 6.84642C67.8905 6.94642 68.1388 7.03808 68.3821 7.14307ZM51.6699 3.39832H51.7365C58.5611 3.95328 64.8157 7.70303 69.8237 13.646C63.9397 15.4675 57.8282 16.4499 51.6699 16.5641V3.39832ZM51.6565 19.9655C58.565 19.8437 65.4131 18.6548 71.9585 16.4408C74.3094 19.8258 76.2259 23.4926 77.6631 27.3551C74.0967 28.0683 70.3836 28.6666 66.5355 29.0866C66.0956 28.7383 65.6356 28.42 65.1756 28.0983C65.0657 28.0217 64.9623 27.9317 64.8423 27.8634C64.1607 27.4051 63.4591 26.9767 62.7408 26.5851C62.5958 26.5068 62.4442 26.4418 62.2992 26.3668C61.7409 26.0751 61.1759 25.7968 60.5993 25.5468C60.291 25.4119 59.9727 25.2969 59.6577 25.1735C59.2244 25.0069 58.7927 24.8402 58.3528 24.6952C57.9995 24.5769 57.6395 24.4736 57.2795 24.3619C56.8495 24.2396 56.4173 24.1286 55.9829 24.0286C55.6246 23.9453 55.2663 23.862 54.903 23.797C54.403 23.7053 53.9031 23.6303 53.4031 23.5686C53.0948 23.5286 52.7898 23.4803 52.4782 23.452C52.2048 23.4253 51.9315 23.4137 51.6565 23.3953V19.9655ZM48.3234 3.41165H48.3368V16.5641C42.1784 16.4499 36.067 15.4675 30.183 13.646C35.1826 7.71303 41.4239 3.96662 48.2368 3.41165H48.3234ZM18.3671 48.332C18.4915 42.3039 19.4545 36.3224 21.2286 30.5598C24.165 31.1548 27.2015 31.6664 30.3246 32.0681C26.2332 36.5413 23.7976 42.2814 23.4234 48.332H18.3671ZM30.3246 67.9274C27.1998 68.3307 24.1584 68.8423 21.2286 69.4373C19.4545 63.6747 18.4915 57.6932 18.3671 51.6651H23.4234C23.7974 57.7153 26.233 63.4547 30.3246 67.9274ZM22.3168 27.3634C23.758 23.4974 25.6789 19.8278 28.0348 16.4408C34.58 18.6548 41.4283 19.8437 48.3368 19.9655V23.4037C48.0618 23.422 47.7885 23.4336 47.5152 23.4603C47.2035 23.4886 46.8985 23.537 46.5902 23.577C46.0902 23.642 45.5903 23.7136 45.0903 23.8053C44.727 23.8736 44.3687 23.9536 44.0104 24.0369C43.576 24.1369 43.1438 24.248 42.7138 24.3703C42.3538 24.4736 41.9955 24.5769 41.6405 24.7036C41.2006 24.8486 40.7673 25.0135 40.3356 25.1819C40.0206 25.3052 39.7023 25.4202 39.394 25.5535C38.8174 25.8052 38.2524 26.0835 37.6941 26.3751C37.5491 26.4501 37.3958 26.5151 37.2525 26.5934C36.5342 26.9851 35.8326 27.4134 35.151 27.8717C35.0393 27.9467 34.936 28.03 34.8177 28.1067C34.3577 28.4267 33.8977 28.7466 33.4578 29.0949C29.613 28.6783 25.8999 28.0783 22.3168 27.3634ZM24.3734 11.0461C24.775 10.7795 25.1866 10.5345 25.5949 10.2812C26.1566 9.93455 26.7199 9.59124 27.2965 9.2696C27.7198 9.03295 28.1498 8.80963 28.5797 8.58631C29.1597 8.28466 29.7463 7.99301 30.3346 7.71803C30.7746 7.51305 31.2162 7.31806 31.6679 7.12807C31.8979 7.02975 32.1328 6.94308 32.3662 6.84809C30.3659 8.53339 28.5408 10.4162 26.9182 12.4677C25.9499 12.0911 24.9783 11.7161 24.0334 11.2861C24.1484 11.2095 24.2584 11.1228 24.3734 11.0461ZM11.2126 24.0953C11.3159 23.9403 11.4242 23.7853 11.5309 23.6303C11.8175 23.2114 12.1115 22.7981 12.4125 22.3904C12.5802 22.1627 12.7514 21.936 12.9258 21.7104C13.1758 21.3838 13.4297 21.0611 13.6874 20.7422C13.8807 20.5005 14.0774 20.2639 14.274 20.0272C14.614 19.6216 14.96 19.2223 15.3123 18.829L15.6306 18.4773C16.0416 18.033 16.4622 17.5917 16.8922 17.1541L17.1672 16.8808C17.5638 16.4858 17.9704 16.1008 18.3821 15.7142C18.5904 15.5242 18.7987 15.3342 19.0087 15.1492C19.342 14.8492 19.6837 14.5559 20.027 14.2659C20.1936 14.1343 20.3453 13.9959 20.5019 13.8693C20.6586 13.7426 20.8219 13.6176 20.9819 13.491C22.2552 14.1226 23.5551 14.7026 24.8767 15.2409C22.4874 18.8035 20.5347 22.6402 19.0604 26.6684C16.2506 26.0351 13.5174 25.3352 10.9343 24.5202C11.0292 24.3836 11.1176 24.2369 11.2126 24.0953ZM9.1727 27.45C11.9675 28.355 14.919 29.1666 17.9804 29.8616C16.1522 35.8532 15.1613 42.0689 15.0356 48.332H3.38142C3.63474 41.0114 5.6194 33.8552 9.1727 27.45ZM9.16604 72.547C5.61502 66.1412 3.63266 58.985 3.38142 51.6651H15.0356C15.1613 57.9282 16.1522 64.1439 17.9804 70.1355C14.9173 70.8355 11.9659 71.6438 9.16604 72.547ZM20.9853 86.4995C20.8186 86.3711 20.6519 86.2478 20.5003 86.1178C20.3486 85.9878 20.1936 85.8612 20.0403 85.7328C19.687 85.4345 19.337 85.1329 18.9937 84.8246C18.7887 84.6479 18.5904 84.4679 18.3921 84.2863C17.9755 83.8996 17.5588 83.5097 17.1588 83.1097L16.8955 82.8464C16.4689 82.4164 16.05 81.9775 15.6389 81.5298L15.2973 81.1498C14.9557 80.7715 14.6223 80.3849 14.2974 79.9949C14.0824 79.7349 13.8674 79.4749 13.6557 79.2099C13.4158 78.9133 13.1791 78.6116 12.9458 78.3083C12.7668 78.076 12.5914 77.844 12.4192 77.6117C12.1125 77.1951 11.8132 76.7741 11.5209 76.3485C11.4192 76.2001 11.3176 76.0551 11.2192 75.9068C11.1209 75.7585 11.0326 75.6152 10.9376 75.4702C13.5191 74.6619 16.2522 73.9553 19.0637 73.322C20.5378 77.3507 22.4912 81.1875 24.8817 84.7496C23.5584 85.2879 22.2585 85.8678 20.9853 86.4995ZM31.6262 92.8557C31.2012 92.6724 30.7779 92.4857 30.358 92.2907C29.7413 92.0024 29.1314 91.6974 28.5247 91.3841C28.1198 91.1725 27.7148 90.9625 27.3165 90.7392C26.7115 90.4059 26.1166 90.0392 25.5249 89.6726C25.1433 89.4359 24.7583 89.2059 24.3834 88.9576C24.2634 88.8793 24.1517 88.791 24.0334 88.711C24.9767 88.281 25.9483 87.906 26.9165 87.5294C28.5375 89.5807 30.3603 91.4639 32.3578 93.1507C32.1162 93.0507 31.8679 92.959 31.6262 92.8557ZM48.3368 96.5988H48.2701C41.4456 96.0438 35.191 92.2941 30.183 86.3511C36.067 84.5296 42.1784 83.5471 48.3368 83.433V96.5988ZM48.3501 80.0399C41.4416 80.1618 34.5933 81.3506 28.0481 83.5646C25.6947 80.1774 23.7765 76.5078 22.3385 72.642C25.9099 71.9287 29.623 71.3305 33.4711 70.9105C33.9111 71.2588 34.371 71.5771 34.831 71.8988C34.941 71.9754 35.0443 72.0654 35.1643 72.1337C35.8459 72.592 36.5475 73.0203 37.2658 73.412C37.4092 73.4903 37.5608 73.5553 37.7058 73.6303C38.2658 73.922 38.8307 74.2003 39.409 74.4519C39.7157 74.5852 40.0323 74.7002 40.3456 74.8219C40.7789 74.9885 41.2122 75.1552 41.6539 75.3019C42.0089 75.4202 42.3672 75.5235 42.7271 75.6352C43.1571 75.7562 43.5894 75.8674 44.0237 75.9685C44.382 76.0518 44.7403 76.1351 45.1036 76.2001C45.6036 76.2918 46.1036 76.3668 46.6035 76.4285C46.9119 76.4685 47.2168 76.5168 47.5285 76.5451C47.8018 76.5718 48.0751 76.5834 48.3501 76.6018V80.0399ZM50.0067 73.327C49.2617 73.327 48.5267 73.2837 47.7985 73.2153C47.5118 73.187 47.2268 73.1403 46.9402 73.102C46.5086 73.0453 46.0786 72.9853 45.6536 72.9053C45.3203 72.8404 44.987 72.7604 44.6537 72.682C44.2854 72.5954 43.9187 72.5037 43.5571 72.3987C43.1954 72.2937 42.8905 72.1954 42.5571 72.0837C42.1982 71.9615 41.8445 71.8315 41.4956 71.6938C41.1856 71.5721 40.8756 71.4471 40.5706 71.3121C40.194 71.1455 39.8257 70.9638 39.4607 70.7772C39.1974 70.6438 38.9324 70.5122 38.6741 70.3689C38.2624 70.1389 37.8625 69.8889 37.4658 69.6339C37.2658 69.5056 37.0592 69.3856 36.8609 69.2506C36.4176 68.9456 35.9909 68.6173 35.5709 68.284C35.426 68.169 35.2743 68.0657 35.131 67.9507C25.2162 59.7519 23.8253 45.068 32.0241 35.1533C32.9595 34.0221 33.9998 32.9818 35.131 32.0464C35.2743 31.9281 35.426 31.8248 35.5709 31.7131C35.9909 31.3798 36.4176 31.0465 36.8609 30.7465C37.0592 30.6115 37.2658 30.4915 37.4658 30.3632C37.8625 30.1082 38.2624 29.8632 38.6741 29.6282C38.9324 29.4849 39.1974 29.3533 39.4607 29.2199C39.8257 29.0333 40.194 28.8516 40.5706 28.685C40.8756 28.55 41.1856 28.425 41.4956 28.3033C41.8455 28.1644 42.1995 28.0344 42.5571 27.9134C42.8905 27.8017 43.2238 27.695 43.5571 27.5984C43.8904 27.5017 44.2854 27.4017 44.6537 27.3151C44.987 27.2367 45.3203 27.1567 45.6536 27.0917C46.0786 27.0117 46.5086 26.9517 46.9402 26.8951C47.2268 26.8568 47.5118 26.8101 47.7985 26.7818C48.5234 26.7101 49.2584 26.6668 50.0033 26.6668C50.7483 26.6668 51.4832 26.7101 52.2115 26.7784C52.4982 26.8068 52.7831 26.8534 53.0698 26.8918C53.5014 26.9484 53.9314 27.0084 54.3564 27.0884C54.6897 27.1534 55.023 27.2334 55.3563 27.3117C55.7246 27.3984 56.0912 27.49 56.4529 27.595C56.7862 27.6917 57.1195 27.7984 57.4528 27.91C57.8118 28.0323 58.1655 28.1623 58.5144 28.3C58.8244 28.4216 59.1344 28.5466 59.4394 28.6816C59.816 28.8483 60.1843 29.0299 60.5493 29.2166C60.8126 29.3499 61.0776 29.4816 61.3359 29.6249C61.7475 29.8549 62.1475 30.1049 62.5441 30.3599C62.7441 30.4882 62.9508 30.6082 63.1491 30.7432C63.5924 31.0481 64.0191 31.3765 64.439 31.7098C64.584 31.8248 64.7357 31.9281 64.879 32.0431C74.7937 40.2419 76.1847 54.9259 67.9859 64.8405C67.0505 65.9716 66.0102 67.0118 64.879 67.9473L64.8823 67.9507C64.739 68.069 64.5873 68.1723 64.4424 68.284C64.0224 68.6173 63.5957 68.9506 63.1524 69.2506C62.9541 69.3856 62.7475 69.5056 62.5475 69.6339C62.1508 69.8889 61.7509 70.1339 61.3392 70.3689C61.0809 70.5122 60.8159 70.6438 60.5526 70.7772C60.1876 70.9638 59.8193 71.1455 59.4427 71.3121C59.1377 71.4471 58.8277 71.5721 58.5177 71.6938C58.1678 71.8315 57.8138 71.9615 57.4562 72.0837C57.1228 72.1954 56.7895 72.3021 56.4562 72.3987C56.0946 72.5037 55.7279 72.5954 55.3596 72.682C55.0263 72.7604 54.693 72.8404 54.3597 72.9053C53.9347 72.9853 53.5048 73.0453 53.0731 73.102C52.7865 73.1403 52.5015 73.187 52.2148 73.2153C51.4866 73.2837 50.7516 73.327 50.0067 73.327ZM51.6832 96.5854H51.6699V83.433C57.8282 83.5471 63.9397 84.5296 69.8237 86.3511C64.824 92.2841 58.5827 96.0305 51.7699 96.5854H51.6832ZM75.6383 88.951C75.2366 89.2159 74.825 89.4626 74.415 89.7159C73.8534 90.0625 73.2901 90.4059 72.7151 90.7275C72.2935 90.9641 71.8635 91.1875 71.4336 91.4108C70.8519 91.7108 70.267 92.0041 69.6753 92.2791C69.237 92.484 68.7954 92.679 68.3421 92.869C68.1121 92.9673 67.8771 93.054 67.6438 93.149C69.6418 91.4633 71.4646 89.5805 73.0851 87.5294C74.0534 87.906 75.025 88.281 75.9699 88.711C75.8583 88.7876 75.7483 88.8743 75.6333 88.951H75.6383ZM88.7941 75.9018C88.6907 76.0568 88.5824 76.2118 88.4758 76.3668C88.1891 76.7845 87.8952 77.1978 87.5941 77.6067C87.4265 77.8356 87.2552 78.0623 87.0808 78.2867C86.8309 78.6133 86.5769 78.936 86.3192 79.2549C86.1259 79.4966 85.9293 79.7332 85.7326 79.9699C85.3926 80.3742 85.0466 80.7738 84.6943 81.1681L84.376 81.5198C83.965 81.9641 83.5444 82.4053 83.1144 82.843L82.8395 83.1163C82.4428 83.5113 82.0362 83.8963 81.6245 84.2829C81.4162 84.4729 81.2079 84.6629 80.9979 84.8479C80.6646 85.1479 80.323 85.4412 79.9797 85.7312C79.8213 85.8628 79.6613 86.0012 79.5047 86.1278C79.348 86.2545 79.1847 86.3795 79.0247 86.5061C77.7515 85.8745 76.4516 85.2945 75.13 84.7562C77.5192 81.1942 79.4718 77.358 80.9463 73.3303C83.7561 73.9636 86.4892 74.6636 89.0724 75.4785C88.9774 75.6135 88.8891 75.7602 88.7941 75.9018ZM90.8339 72.547C88.0391 71.6421 85.0876 70.8305 82.0262 70.1355H82.0312C83.8577 64.1436 84.8468 57.928 84.971 51.6651H96.6252C96.3719 58.9854 94.3872 66.1416 90.8339 72.547Z" fill="#407BFF"/>
</svg>
