<svg width="192" height="48" viewBox="0 0 192 48" fill="none" xmlns="http://www.w3.org/2000/svg">
<path fill-rule="evenodd" clip-rule="evenodd" d="M19.8986 4.78896H15.7112V8.99137H18.9704C19.3623 7.30075 22.1126 7.13514 22.1126 9.57792C22.1126 11.1857 19.4448 11.5929 18.9704 9.81254H16.7564V12.1449H11.8677C11.5926 13.3249 11.7851 14.2979 11.8677 15.2984C12.3352 15.2984 12.8028 15.3053 13.2703 15.2915C14.5286 15.2708 14.3154 14.9879 14.3154 17.6308H20.9437C21.48 15.6159 24.2029 16.2921 24.2029 17.8654C24.2029 18.7901 23.5703 19.6182 22.5733 19.6182C21.1981 19.6182 21.3219 18.452 20.7099 18.452H11.8677V21.9574H15.4775V25.3387C15.4775 25.7458 15.56 25.7941 15.5943 26.1599H23.0408C23.474 24.2967 26.1831 24.6348 26.1831 26.5118C26.1831 26.9465 26.0318 27.4158 25.8049 27.6504C25.6193 27.8298 25.0005 28.1472 24.6704 28.1472C23.1921 28.1472 23.3159 26.9741 22.6902 26.9741H12.2183C11.682 26.9741 11.8677 27.6366 11.8677 28.9615C13.5454 28.9615 14.7761 28.7062 14.7761 29.3134V32.4669H13.0297C12.4452 32.4669 12.514 32.5704 11.9845 32.5842C11.9845 34.0679 11.7714 34.9166 12.3352 34.9166H18.7366C19.1835 34.9166 19.0873 34.5164 19.4517 34.1231C20.8268 32.6395 23.3984 34.7027 21.6794 36.3588C21.3013 36.7246 21.1156 36.7867 20.483 36.7867C19.4035 36.7867 19.3004 35.6205 18.7366 35.6205H14.0817C13.8135 35.6205 13.731 35.7033 13.731 35.9724V38.8913C11.1388 38.8913 12.1083 38.5532 12.1014 43.211C12.1014 44.8051 12.1014 46.3991 12.1014 48C12.569 47.6826 13.2153 46.1162 13.4972 45.5434L16.055 40.4094C16.2819 40.0368 16.7082 39.7677 17.1208 39.6021C18.1934 39.1673 22.6833 39.4227 25.7568 38.5808C26.9326 38.2634 27.3245 37.9528 27.9295 36.904C29.2428 34.613 26.19 34.0334 28.7271 33.0328C30.6249 32.2875 29.4904 31.2317 29.3253 30.5969C29.7379 29.9827 30.3705 30.0794 30.3705 29.1961C30.3705 28.23 28.6653 27.4296 29.7173 26.5532C30.1711 26.1806 32.1169 26.1944 32.1169 24.8764C32.1169 23.2961 29.0916 19.9218 29.0916 17.8654L29.5591 15.4158C29.5591 11.4756 30.1229 8.28062 27.1938 5.2927C26.3137 4.38873 27.4895 4.36113 25.3442 1.89764C24.1547 0.53134 23.6734 0.110408 22.8071 0H19.8986V4.78896Z" fill="white"/>
<path fill-rule="evenodd" clip-rule="evenodd" d="M40.6085 22.7717C40.6085 26.7671 41.0417 29.9413 43.4895 32.7291C47.3262 37.0765 55.144 37.111 59.9295 34.5647L58.7469 30.9557C57.7224 31.0316 57.3442 32.2323 52.1324 32.2323C47.6425 32.2323 45.2634 28.4991 45.2634 23.9379C45.2634 20.3358 45.9854 17.1685 49.4164 15.4916C51.6786 14.3876 54.8689 14.843 57.0829 15.6987C57.5299 15.8712 58.0249 16.1403 58.4169 16.23L59.6958 12.6141C59.3313 12.5313 59.2626 12.4623 58.9738 12.2829C57.3442 11.2823 54.1882 10.8614 52.2493 10.8614C49.7052 10.8614 46.4805 11.8827 44.7134 13.5733C44.3902 13.8838 44.1771 13.9528 43.902 14.2771L43.2695 15.05C42.6369 15.8229 42.0112 16.92 41.6399 17.8516C41.1036 19.1903 40.6085 20.8602 40.6085 22.7717Z" fill="white"/>
<path fill-rule="evenodd" clip-rule="evenodd" d="M69.3562 32.467H68.8887C63.4086 32.467 63.0717 20.6671 69.0055 20.6671C74.2655 20.6671 74.128 27.9472 72.5672 30.5487C71.9896 31.5147 70.8345 32.467 69.3562 32.467ZM60.2802 26.3945C60.2802 30.0449 61.7447 33.6263 65.0451 35.2686C67.4722 36.4762 70.6007 36.5659 73.0416 35.3445C74.2243 34.7511 74.6162 34.3577 75.4894 33.4883C78.3085 30.7005 78.6454 24.5659 76.4039 20.8327C75.6819 19.632 74.4168 18.4244 73.1585 17.7896C69.9269 16.168 64.9144 16.7545 62.556 19.8045C61.1259 21.6401 60.2802 23.8414 60.2802 26.3945Z" fill="white"/>
<path fill-rule="evenodd" clip-rule="evenodd" d="M88.3197 18.2174V35.7378H92.624V20.9017C96.0412 20.9017 99.376 19.011 99.376 26.6291V35.7378H103.33C103.598 35.7378 103.68 35.655 103.68 35.3859C103.68 31.9908 103.983 23.8551 103 21.1225C101.844 17.9138 98.7022 16.9063 95.5324 16.927L88.8423 17.8103C88.526 17.8931 88.3197 17.8517 88.3197 18.2174Z" fill="white"/>
<path fill-rule="evenodd" clip-rule="evenodd" d="M107.29 18.2174V35.7378H109.614V20.0874C109.614 19.6527 110.364 19.6251 110.824 19.5492C112.378 19.3008 115.355 19.1145 116.621 20.0667C118.36 21.3778 118.339 24.3037 118.339 26.7464V35.7378H120.67C120.67 33.1501 120.904 24.4348 120.327 22.0679C120.23 21.6746 120.1 21.3778 120.086 20.9017C122.162 19.5078 123.008 19.3836 125.559 19.3836C128.997 19.3836 129.245 22.7924 129.279 25.4629C129.286 26.1254 129.403 26.2703 129.403 26.9742L129.396 35.7378H131.727V26.7464C131.727 22.5026 131.404 19.3422 128.578 17.8724C126.707 16.8994 123.146 17.065 121.097 18.0587C119.921 18.6314 119.825 18.797 119.158 19.1559C118.752 18.8799 118.608 18.59 118.161 18.2864C116.999 17.486 115.018 17.0788 113.76 17.2306C111.175 17.5481 111.972 17.1478 108.768 17.8379C108.177 17.9621 107.833 18.0932 107.29 18.2174Z" fill="white"/>
<path fill-rule="evenodd" clip-rule="evenodd" d="M151.625 18.2174V35.7378H153.949V20.0874C153.949 19.6527 154.699 19.6251 155.159 19.5492C156.61 19.3146 157.353 19.3836 158.838 19.3836C162.503 19.3836 162.675 23.2686 162.675 26.1599V35.7378H165.006C165.006 33.0535 165.157 25.1593 164.841 22.9373C164.731 22.1714 164.476 21.5365 164.421 20.9017C166.47 19.5285 167.343 19.3836 169.894 19.3836C173.779 19.3836 173.731 23.724 173.731 26.7464V35.7378H176.062V25.8079C176.062 21.8747 175.429 18.866 172.59 17.7274C171.139 17.1547 169.33 17.0926 167.563 17.3962C165.459 17.7619 164.875 18.4175 163.493 19.1558C162.867 18.728 162.805 18.2381 161.265 17.6515C159.615 17.0098 156.48 17.203 154.644 17.5135C153.605 17.6929 152.608 17.9897 151.625 18.2174Z" fill="white"/>
<path fill-rule="evenodd" clip-rule="evenodd" d="M136.725 30.4796C136.725 29.8517 136.835 29.1133 137.124 28.6579C137.392 28.237 137.743 27.9402 138.121 27.678C139.434 26.7464 142.295 26.6843 144.027 27.0087C144.447 27.0846 144.901 27.2916 145.341 27.3261V33.7505C144.433 33.7505 143.636 33.9851 142.549 33.9851C140.768 33.9851 139.345 34.1369 137.839 33.1018C137.159 32.6395 136.725 31.6044 136.725 30.4796ZM136.608 19.9701C139.228 19.356 138.052 19.2663 141.38 19.2663C142.914 19.2663 144.11 19.9908 144.681 20.9776C145.341 22.1162 145.341 23.586 145.341 25.3387C142.419 24.6556 138.767 24.4831 136.258 26.2703C132.744 28.789 133.769 36.0828 140.218 36.0828C142.453 36.0828 144.976 36.0207 147.142 35.4411C147.465 35.3583 147.665 35.4066 147.665 35.034V23.4756C147.665 21.3226 146.895 19.4043 145.224 18.2174C143.182 16.7614 139.565 17.0374 137.282 17.6102C135.605 18.0311 136.567 18.038 136.608 19.9701Z" fill="white"/>
<path fill-rule="evenodd" clip-rule="evenodd" d="M181.061 30.3622C181.061 26.843 184.767 26.8568 187.228 26.8568C188.136 26.8568 188.92 27.1535 189.676 27.326V33.7504C188.768 33.7504 187.971 33.985 186.884 33.985C185.324 33.985 183.371 34.1161 182.195 33.081C181.466 32.4324 181.061 31.6871 181.061 30.3622ZM180.717 17.8654C180.717 18.7555 180.944 19.1972 180.944 19.97C183.55 19.3628 182.566 19.2662 185.716 19.2662C187.194 19.2662 188.273 19.8182 189.03 20.9706C189.752 22.0747 189.676 23.579 189.676 25.3386C188.713 24.8763 186.678 24.8763 185.482 24.8763C183.777 24.8763 181.941 25.3938 180.882 26.0908C178.833 27.4364 178.737 29.058 178.737 31.0661C178.737 32.6532 179.569 33.9919 180.462 34.7026C183.9 37.4421 190.185 35.4272 192 35.3858V23.2409C192 19.6112 189.566 17.1684 185.949 17.1684C182.91 17.1684 183.405 17.2374 180.717 17.8654Z" fill="white"/>
<path fill-rule="evenodd" clip-rule="evenodd" d="M80.5226 35.7378H84.7168V17.4031H80.5226V35.7378Z" fill="white"/>
<path fill-rule="evenodd" clip-rule="evenodd" d="M79.945 12.0276C79.945 15.6711 85.1775 15.257 85.1775 12.3795C85.1775 11.2547 85.0743 10.1989 83.7404 9.6193C81.8014 8.77743 79.945 10.1161 79.945 12.0276Z" fill="white"/>
<path fill-rule="evenodd" clip-rule="evenodd" d="M6.51831 37.9528H10.9395V33.5158H6.51831V37.9528Z" fill="white"/>
<path fill-rule="evenodd" clip-rule="evenodd" d="M5.58313 14.8292H9.54359V10.8614H5.58313V14.8292Z" fill="white"/>
<path fill-rule="evenodd" clip-rule="evenodd" d="M14.8929 0.234679V3.74014H18.5027V0.234679L16.1718 0.117371C15.5255 0.117371 15.4843 0.234679 14.8929 0.234679Z" fill="white"/>
<path fill-rule="evenodd" clip-rule="evenodd" d="M10.9394 9.22595H13.731C14.0473 9.22595 14.0541 9.17075 14.3154 9.10864V5.8378H10.9394V9.22595Z" fill="white"/>
<path fill-rule="evenodd" clip-rule="evenodd" d="M6.05074 18.6866C5.74821 22.337 5.59006 21.8402 8.72543 21.8402C9.30988 21.8402 9.0761 19.7631 9.0761 18.6866L7.09586 18.5693C6.51142 18.5693 6.58018 18.6728 6.05074 18.6866Z" fill="white"/>
<path fill-rule="evenodd" clip-rule="evenodd" d="M6.63517 24.5245C6.63517 27.8644 5.96821 27.2088 9.42674 27.2088V24.5245L7.68029 24.4072C7.09584 24.4072 7.15773 24.5107 6.63517 24.5245Z" fill="white"/>
<path fill-rule="evenodd" clip-rule="evenodd" d="M7.56341 40.4094C7.56341 43.5561 7.00647 42.9764 9.89431 42.9764C10.465 42.9764 10.2381 41.548 10.2381 40.4094C9.44051 40.3404 9.87369 40.2921 8.60854 40.2921C8.02409 40.2921 8.09285 40.3956 7.56341 40.4094Z" fill="white"/>
<path fill-rule="evenodd" clip-rule="evenodd" d="M1.0451 31.6458C1.0451 32.1426 1.57454 32.0115 2.09023 32.0046C2.55778 31.9977 3.02534 31.9977 3.49289 31.9977C3.67854 31.1973 3.67854 30.2312 3.49289 29.4307H1.0451V31.6458Z" fill="white"/>
<path fill-rule="evenodd" clip-rule="evenodd" d="M11.29 25.6906H13.6141V23.7101C13.6141 23.441 13.5316 23.3582 13.2634 23.3582H11.29V25.6906Z" fill="white"/>
<path fill-rule="evenodd" clip-rule="evenodd" d="M0 17.8654V19.6181H2.09712C2.09712 17.0925 2.48904 17.5203 0.350666 17.5203C0.0825097 17.5203 0 17.5963 0 17.8654H0Z" fill="white"/>
<path fill-rule="evenodd" clip-rule="evenodd" d="M0.701294 22.8889V24.8763H2.79154V22.8889C1.75329 22.6474 1.5814 22.7992 0.701294 22.8889Z" fill="white"/>
<path fill-rule="evenodd" clip-rule="evenodd" d="M7.44653 29.1961V30.8315H9.42677V28.8442C8.09974 28.8442 7.44653 28.6579 7.44653 29.1961Z" fill="white"/>
</svg>
